<?xml version="1.0" encoding="iso-8859-1"?>
<!-- Generator: Adobe Illustrator 19.0.0, SVG Export Plug-In . SVG Version: 6.00 Build 0)  -->
<svg version="1.1" id="Layer_1" xmlns="http://www.w3.org/2000/svg" xmlns:xlink="http://www.w3.org/1999/xlink" x="0px" y="0px"
	 viewBox="0 0 512 512" style="enable-background:new 0 0 512 512;" xml:space="preserve">
<rect x="376.163" y="67.916" style="fill:#FF4F2A;" width="31.347" height="376.163"/>
<g>
	<rect x="240.327" y="67.916" style="fill:#FF832F;" width="31.347" height="376.163"/>
	<rect x="104.49" y="67.916" style="fill:#FF832F;" width="31.347" height="376.163"/>
</g>
<polygon style="fill:#FFB833;" points="15.673,177.631 15.673,208.977 256,208.977 266.449,193.304 256,177.631 "/>
<rect x="256" y="177.633" style="fill:#FF832F;" width="240.327" height="31.347"/>
<polygon style="fill:#FFB833;" points="31.347,428.41 31.347,83.59 256,83.59 256,52.243 0,52.243 0,459.757 256,459.757 
	256,428.41 "/>
<polygon style="fill:#FF832F;" points="512,52.243 256,52.243 256,83.59 480.653,83.59 480.653,428.41 256,428.41 256,459.757 
	512,459.757 "/>
<polygon style="fill:#FF1A26;" points="208.98,240.329 208.98,271.676 256,271.676 266.449,256.002 256,240.329 "/>
<g>
	<rect x="256" y="240.327" style="fill:#C0141C;" width="47.02" height="31.347"/>
	<rect x="344.816" y="240.327" style="fill:#C0141C;" width="94.041" height="31.347"/>
</g>
<polygon style="fill:#FF1A26;" points="208.98,303.022 208.98,334.369 256,334.369 266.449,318.696 256,303.022 "/>
<g>
	<rect x="256" y="303.02" style="fill:#C0141C;" width="47.02" height="31.347"/>
	<rect x="344.816" y="303.02" style="fill:#C0141C;" width="94.041" height="31.347"/>
</g>
<polygon style="fill:#FF1A26;" points="208.98,365.716 208.98,397.063 256,397.063 266.449,381.39 256,365.716 "/>
<g>
	<rect x="256" y="365.714" style="fill:#C0141C;" width="47.02" height="31.347"/>
	<rect x="344.816" y="365.714" style="fill:#C0141C;" width="94.041" height="31.347"/>
	<rect x="344.816" y="114.939" style="fill:#C0141C;" width="94.041" height="31.347"/>
</g>
<g>
	<rect x="73.143" y="240.327" style="fill:#FF1A26;" width="94.041" height="31.347"/>
	<rect x="73.143" y="303.02" style="fill:#FF1A26;" width="94.041" height="31.347"/>
	<rect x="73.143" y="365.714" style="fill:#FF1A26;" width="94.041" height="31.347"/>
	<rect x="73.143" y="114.939" style="fill:#FF1A26;" width="94.041" height="31.347"/>
	<polygon style="fill:#FF1A26;" points="208.98,114.941 208.98,146.288 256,146.288 266.449,130.614 256,114.941 	"/>
</g>
<rect x="256" y="114.939" style="fill:#C0141C;" width="47.02" height="31.347"/>
<g>
</g>
<g>
</g>
<g>
</g>
<g>
</g>
<g>
</g>
<g>
</g>
<g>
</g>
<g>
</g>
<g>
</g>
<g>
</g>
<g>
</g>
<g>
</g>
<g>
</g>
<g>
</g>
<g>
</g>
</svg>
