<?xml version="1.0" encoding="iso-8859-1"?>
<!-- Generator: Adobe Illustrator 19.0.0, SVG Export Plug-In . SVG Version: 6.00 Build 0)  -->
<svg version="1.1" id="Layer_1" xmlns="http://www.w3.org/2000/svg" xmlns:xlink="http://www.w3.org/1999/xlink" x="0px" y="0px"
	 viewBox="0 0 511.997 511.997" style="enable-background:new 0 0 511.997 511.997;" xml:space="preserve">
<rect x="89.304" y="323.839" style="fill:#00CCC1;" width="66.679" height="188.158"/>
<rect x="356.021" y="323.839" style="fill:#37AD36;" width="66.679" height="188.158"/>
<rect x="222.663" y="323.839" style="fill:#00CCC1;" width="66.679" height="188.158"/>
<path style="fill:#99EBE6;" d="M49.186,74.771L35.039,182.613c-0.86,6.556-1.305,13.215-1.305,19.959
	c0,49.101,110.624,111.132,233.377,111.132L255.999,74.771C255.999,74.771,49.186,74.771,49.186,74.771z"/>
<g>
	<path style="fill:#4DDCD3;" d="M33.735,202.573c0,101.271,99.511,183.368,222.264,183.368l22.226-47.231l-22.226-47.231
		C133.246,291.478,33.735,251.674,33.735,202.573z"/>
	<path style="fill:#4DDCD3;" d="M478.263,202.573c0-6.745-0.45-13.403-1.31-19.959L462.81,74.771H255.998v238.934
		C378.752,313.705,478.263,251.674,478.263,202.573z"/>
</g>
<path style="fill:#00CCC1;" d="M255.999,291.478v94.462c122.753,0,222.264-82.097,222.264-183.368
	C478.263,251.674,378.752,291.478,255.999,291.478z"/>
<rect x="239.332" y="74.77" style="fill:#37AD36;" width="33.34" height="154.274"/>
<polygon style="fill:#00CCC1;" points="42.479,58.101 33.54,0 0.588,5.071 13.876,91.441 255.999,91.441 267.112,74.771 
	255.999,58.101 "/>
<polygon style="fill:#37AD36;" points="478.458,0 469.518,58.101 255.999,58.101 255.999,91.441 498.121,91.441 511.408,5.071 "/>
<g>
</g>
<g>
</g>
<g>
</g>
<g>
</g>
<g>
</g>
<g>
</g>
<g>
</g>
<g>
</g>
<g>
</g>
<g>
</g>
<g>
</g>
<g>
</g>
<g>
</g>
<g>
</g>
<g>
</g>
</svg>
