<?xml version="1.0" encoding="iso-8859-1"?>
<!-- Generator: Adobe Illustrator 19.0.0, SVG Export Plug-In . SVG Version: 6.00 Build 0)  -->
<svg version="1.1" id="Layer_1" xmlns="http://www.w3.org/2000/svg" xmlns:xlink="http://www.w3.org/1999/xlink" x="0px" y="0px"
	 viewBox="0 0 512 512" style="enable-background:new 0 0 512 512;" xml:space="preserve">
<path style="fill:#800D13;" d="M311.652,0h17.809v89.043H244.87L256,55.652C256,25.043,281.043,0,311.652,0z"/>
<path style="fill:#FF1A26;" d="M200.348,0h-17.809v89.043H256V55.652C256,25.043,230.957,0,200.348,0z"/>
<path style="fill:#C0141C;" d="M434.087,144.696l-55.652-77.913H215.93l-16.696,11.13v66.783
	c0,98.872-13.824,152.732-26.023,200.259c-11.72,45.635-21.838,73.917-21.838,155.915L168.07,512h259.339
	c0-155.481-35.361-181.415-45.301-300.522L434.087,144.696z"/>
<path style="fill:#FF1A26;" d="M182.539,66.783h-48.974l-55.652,77.913l51.979,66.783c-2.794,33.471-7.594,59.585-13.054,83.282
	l7.257,16.794l-15.575,16.794c-2.809,10.941-5.618,21.882-8.272,33.391l6.864,16.696L93.48,395.13
	c-1.783,10.35-3.378,21.385-4.708,33.391l9.136,16.696l-11.935,16.696c-0.887,15.13-1.381,31.703-1.381,50.087h50.087l16.696-11.13
	c0-81.998,10.118-110.28,21.838-155.915c12.199-47.527,26.023-101.387,26.023-200.259V77.913L182.539,66.783z"/>
<path style="fill:#C0141C;" d="M44.522,144.696l89.043-77.913c0,0-0.968,58.435-1.113,77.913
	c-0.178,25.389-0.946,47.327-2.56,66.783h-85.37V144.696z"/>
<path style="fill:#800D13;" d="M467.478,144.696l-89.043-77.913c0,0,0.968,58.435,1.113,77.913
	c0.178,25.389,0.946,47.327,2.56,66.783h85.37V144.696z"/>
<g>
	<path style="fill:#C0141C;" d="M155.983,428.522H88.779c-1.146,10.347-2.096,21.419-2.798,33.391h66.876
		C153.635,449.799,154.694,438.773,155.983,428.522z"/>
	<path style="fill:#C0141C;" d="M168.941,361.739h-68.689c-2.424,10.512-4.718,21.502-6.766,33.391h67.886
		C163.655,383.543,166.22,372.645,168.941,361.739z"/>
	<path style="fill:#C0141C;" d="M185.158,294.957h-68.364c-2.655,11.508-5.463,22.45-8.272,33.391h68.915
		C180.066,317.827,182.689,306.822,185.158,294.957z"/>
</g>
<g>
	<path style="fill:#800D13;" d="M168.07,512h-33.391c0-84.105,10.36-124.463,22.357-171.194
		c11.955-46.569,25.504-99.347,25.504-196.11V66.783h33.391v77.913c0,100.981-14.107,155.93-26.552,204.408
		C177.944,393.648,168.07,432.112,168.07,512z"/>
	<rect x="199.235" y="128" style="fill:#800D13;" width="56.765" height="33.391"/>
</g>
<g>
</g>
<g>
</g>
<g>
</g>
<g>
</g>
<g>
</g>
<g>
</g>
<g>
</g>
<g>
</g>
<g>
</g>
<g>
</g>
<g>
</g>
<g>
</g>
<g>
</g>
<g>
</g>
<g>
</g>
</svg>
