<?xml version="1.0" encoding="iso-8859-1"?>
<!-- Generator: Adobe Illustrator 19.0.0, SVG Export Plug-In . SVG Version: 6.00 Build 0)  -->
<svg version="1.1" id="Layer_1" xmlns="http://www.w3.org/2000/svg" xmlns:xlink="http://www.w3.org/1999/xlink" x="0px" y="0px"
	 viewBox="0 0 512 512" style="enable-background:new 0 0 512 512;" xml:space="preserve">
<polygon style="fill:#C0141C;" points="321.632,72.45 321.632,144.757 233.751,144.757 255.999,72.45 "/>
<g>
	<rect x="190.368" y="72.451" style="fill:#FF1A26;" width="65.633" height="72.307"/>
	<rect x="142.123" y="144.759" style="fill:#FF1A26;" width="114.023" height="66.745"/>
</g>
<rect x="256.146" y="144.759" style="fill:#C0141C;" width="114.023" height="66.745"/>
<polygon style="fill:#605757;" points="255.999,0.143 267.123,72.45 168.262,72.45 201.635,0.143 "/>
<rect x="173.827" y="72.451" style="fill:#C0141C;" width="33.373" height="72.307"/>
<g>
	<rect x="305.092" y="72.451" style="fill:#800D13;" width="33.373" height="72.307"/>
	<rect x="353.482" y="144.759" style="fill:#800D13;" width="33.373" height="222.484"/>
</g>
<rect x="125.436" y="144.759" style="fill:#C0141C;" width="33.373" height="222.484"/>
<rect x="239.459" y="144.759" style="fill:#800D13;" width="33.373" height="222.484"/>
<rect y="356.118" style="fill:#FF832F;" width="448.305" height="88.994"/>
<rect x="256.001" y="433.988" style="fill:#00CCC1;" width="255.857" height="77.869"/>
<g>
	<rect x="0.142" y="433.988" style="fill:#4DDCD3;" width="255.857" height="77.869"/>
	<path style="fill:#4DDCD3;" d="M470.484,420.293c-7.297,5.073-11.692,8.132-22.46,8.132c-10.757,0-15.162-3.059-22.449-8.132
		c-8.566-5.963-20.291-14.117-41.516-14.117c-21.225,0-32.95,8.154-41.516,14.117c-7.286,5.073-11.692,8.132-22.449,8.132
		s-15.162-3.059-22.449-8.132c-8.566-5.963-20.424-14.117-41.649-14.117l-11.124,16.686l11.124,16.686
		c10.757,0,15.296,3.059,22.582,8.132c8.566,5.963,20.291,14.117,41.515,14.117s32.95-8.154,41.516-14.117
		c7.286-5.073,11.692-8.132,22.449-8.132s15.162,3.059,22.46,8.132c8.555,5.963,20.279,14.117,41.504,14.117
		s32.961-8.154,41.516-14.117c7.297-5.073,11.703-8.132,22.46-8.132v-33.373C490.775,406.176,479.05,414.33,470.484,420.293z"/>
</g>
<path style="fill:#99EBE6;" d="M255.999,406.176v33.373c-10.657,0.022-15.062,3.081-22.315,8.132
	c-8.566,5.963-20.291,14.117-41.516,14.117s-32.95-8.154-41.504-14.117c-7.297-5.073-11.703-8.132-22.46-8.132
	s-15.151,3.059-22.449,8.132c-8.566,5.963-20.291,14.117-41.515,14.117c-21.214,0-32.939-8.154-41.504-14.117
	c-7.297-5.073-11.703-8.132-22.46-8.132v-33.373c21.225,0,32.95,8.154,41.515,14.117c7.297,5.073,11.692,8.132,22.449,8.132
	c10.768,0,15.162-3.059,22.46-8.132c8.566-5.963,20.291-14.117,41.504-14.117c21.225,0,32.95,8.154,41.516,14.117
	c7.297,5.073,11.692,8.132,22.449,8.132s15.162-3.059,22.46-8.132C223.16,414.341,234.863,406.209,255.999,406.176z"/>
<g>
	<path style="fill:#403A3A;" d="M377.395,16.829c0,21.469-17.466,38.935-38.935,38.935h-2.137L310.652,0.143h-54.653v55.621h-82.177
		c-21.469,0-38.935-17.466-38.935-38.935h-33.373c0,39.87,32.437,72.307,72.307,72.307H338.46c39.87,0,72.307-32.437,72.307-72.307
		C410.768,16.829,377.395,16.829,377.395,16.829z"/>
	<path style="fill:#403A3A;" d="M386.587,161.444H125.695c-39.87,0-72.307-32.437-72.307-72.307H86.76
		c0,21.469,17.466,38.935,38.935,38.935h260.892c21.469,0,38.935-17.466,38.935-38.935h33.373
		C458.894,129.007,426.458,161.444,386.587,161.444z"/>
</g>
<g>
</g>
<g>
</g>
<g>
</g>
<g>
</g>
<g>
</g>
<g>
</g>
<g>
</g>
<g>
</g>
<g>
</g>
<g>
</g>
<g>
</g>
<g>
</g>
<g>
</g>
<g>
</g>
<g>
</g>
</svg>
