<?xml version="1.0" encoding="iso-8859-1"?>
<!-- Generator: Adobe Illustrator 19.0.0, SVG Export Plug-In . SVG Version: 6.00 Build 0)  -->
<svg version="1.1" id="Layer_1" xmlns="http://www.w3.org/2000/svg" xmlns:xlink="http://www.w3.org/1999/xlink" x="0px" y="0px"
	 viewBox="0 0 512 512" style="enable-background:new 0 0 512 512;" xml:space="preserve">
<polygon style="fill:#FF832F;" points="389.565,122.435 389.565,345.043 367.304,361.739 389.565,378.435 389.565,512 256,512 
	222.609,317.217 256,122.435 "/>
<rect x="122.435" y="122.435" style="fill:#FFB833;" width="133.565" height="389.565"/>
<rect y="122.435" style="fill:#FF1A26;" width="89.043" height="322.783"/>
<rect x="422.957" y="122.435" style="fill:#C0141C;" width="89.043" height="322.783"/>
<rect x="317.217" y="345.043" style="fill:#FFB833;" width="72.348" height="33.391"/>
<polygon style="fill:#C0141C;" points="317.217,233.739 256,294.957 225.391,233.739 256,172.522 "/>
<polygon style="fill:#FF1A26;" points="256,172.522 256,294.957 194.783,233.739 "/>
<polygon style="fill:#C0141C;" points="389.565,0 389.565,89.043 256,89.043 230.559,44.522 256,0 "/>
<rect x="122.435" style="fill:#FF1A26;" width="133.565" height="89.043"/>
<g>
</g>
<g>
</g>
<g>
</g>
<g>
</g>
<g>
</g>
<g>
</g>
<g>
</g>
<g>
</g>
<g>
</g>
<g>
</g>
<g>
</g>
<g>
</g>
<g>
</g>
<g>
</g>
<g>
</g>
</svg>
