<?xml version="1.0" encoding="iso-8859-1"?>
<!-- Generator: Adobe Illustrator 19.0.0, SVG Export Plug-In . SVG Version: 6.00 Build 0)  -->
<svg version="1.1" id="Layer_1" xmlns="http://www.w3.org/2000/svg" xmlns:xlink="http://www.w3.org/1999/xlink" x="0px" y="0px"
	 viewBox="0 0 512 512" style="enable-background:new 0 0 512 512;" xml:space="preserve">
<path style="fill:#FFD485;" d="M91.479,133.565c-8.676,32.555-15.155,66.006-19.304,100.174l206.086,11.13L256,133.565H91.479z"/>
<path style="fill:#FFB833;" d="M420.521,133.565H256V256l183.825-22.261C435.675,199.571,429.196,166.121,420.521,133.565z"/>
<g>
	<rect x="129.002" y="200.348" style="fill:#605757;" width="33.391" height="44.522"/>
	<rect x="202.541" y="200.348" style="fill:#605757;" width="33.391" height="44.522"/>
</g>
<g>
	<rect x="276.068" y="200.348" style="fill:#403A3A;" width="33.391" height="44.522"/>
	<rect x="349.607" y="200.348" style="fill:#403A3A;" width="33.391" height="44.522"/>
</g>
<path style="fill:#FF1A26;" d="M72.175,233.739c-3.543,29.187-5.393,58.898-5.393,89.043c0,65.438,8.609,128.853,24.696,189.217H256
	l22.261-139.13L256,233.739H72.175z"/>
<path style="fill:#C0141C;" d="M445.217,322.783c0-30.146-1.85-59.856-5.393-89.043H256V512h164.521
	C436.608,451.635,445.217,388.221,445.217,322.783z"/>
<path style="fill:#FFB833;" d="M74.391,428.522c1.624,11.215,3.507,22.347,5.633,33.391H256l11.13-16.696L256,428.522H74.391z"/>
<path style="fill:#FF832F;" d="M437.609,428.522H256v33.391h175.977C434.101,450.868,435.985,439.737,437.609,428.522z"/>
<path style="fill:#FFB833;" d="M222.609,339.478c0,18.412,14.979,33.391,33.391,33.391l11.13-33.391L256,306.087
	C237.588,306.087,222.609,321.066,222.609,339.478z"/>
<path style="fill:#FF832F;" d="M256,306.087v66.783c18.412,0,33.391-14.979,33.391-33.391S274.412,306.087,256,306.087z"/>
<rect x="91.481" y="66.783" style="fill:#C0141C;" width="329.038" height="33.391"/>
<rect x="91.481" style="fill:#FF1A26;" width="329.038" height="33.391"/>
<g>
</g>
<g>
</g>
<g>
</g>
<g>
</g>
<g>
</g>
<g>
</g>
<g>
</g>
<g>
</g>
<g>
</g>
<g>
</g>
<g>
</g>
<g>
</g>
<g>
</g>
<g>
</g>
<g>
</g>
</svg>
