<?xml version="1.0" encoding="iso-8859-1"?>
<!-- Generator: Adobe Illustrator 19.0.0, SVG Export Plug-In . SVG Version: 6.00 Build 0)  -->
<svg version="1.1" id="Layer_1" xmlns="http://www.w3.org/2000/svg" xmlns:xlink="http://www.w3.org/1999/xlink" x="0px" y="0px"
	 viewBox="0 0 512 512" style="enable-background:new 0 0 512 512;" xml:space="preserve">
<path style="fill:#99EBE6;" d="M0,256c0,141.384,114.615,256,256,256l22.261-256L256,0C114.615,0,0,114.616,0,256z"/>
<path style="fill:#4DDCD3;" d="M256,0v512c141.384,0,256-114.616,256-256S397.384,0,256,0z"/>
<path style="fill:#FFD485;" d="M66.783,256c0,104.501,84.716,189.217,189.217,189.217L278.261,256L256,66.783
	C151.499,66.783,66.783,151.497,66.783,256z"/>
<path style="fill:#FFB833;" d="M256,66.783v378.435c104.501,0,189.217-84.716,189.217-189.217
	C445.217,151.497,360.501,66.783,256,66.783z"/>
<path style="fill:#FFFFFF;" d="M155.826,278.261c0,55.325,44.849,100.174,100.174,100.174L278.261,256L256,133.565
	C200.675,133.565,155.826,222.936,155.826,278.261z"/>
<path style="fill:#FFD485;" d="M256,133.565v244.87c55.325,0,100.174-44.849,100.174-100.174S311.325,133.565,256,133.565z"/>
<path style="fill:#FF4F2A;" d="M205.913,278.261c0,27.662,22.424,50.087,50.087,50.087l11.13-50.087L256,228.174
	C228.338,228.174,205.913,250.598,205.913,278.261z"/>
<path style="fill:#FF1A26;" d="M256,228.174v100.174c27.662,0,50.087-22.424,50.087-50.087
	C306.087,250.598,283.662,228.174,256,228.174z"/>
<g>
</g>
<g>
</g>
<g>
</g>
<g>
</g>
<g>
</g>
<g>
</g>
<g>
</g>
<g>
</g>
<g>
</g>
<g>
</g>
<g>
</g>
<g>
</g>
<g>
</g>
<g>
</g>
<g>
</g>
</svg>
