<?xml version="1.0" encoding="iso-8859-1"?>
<!-- Generator: Adobe Illustrator 19.0.0, SVG Export Plug-In . SVG Version: 6.00 Build 0)  -->
<svg version="1.1" id="Layer_1" xmlns="http://www.w3.org/2000/svg" xmlns:xlink="http://www.w3.org/1999/xlink" x="0px" y="0px"
	 viewBox="0 0 512.001 512.001" style="enable-background:new 0 0 512.001 512.001;" xml:space="preserve">
<rect x="291.01" y="-67.919" transform="matrix(-0.7071 -0.7071 0.7071 -0.7071 380.8346 566.315)" style="fill:#807374;" width="33.391" height="544.407"/>
<rect x="395.962" y="113.154" transform="matrix(-0.7071 -0.7071 0.7071 -0.7071 641.1332 525.2651)" style="fill:#FFB833;" width="66.782" height="33.391"/>
<rect x="341.825" y="-7.75" transform="matrix(-0.7071 0.7071 -0.7071 -0.7071 653.775 -152.7393)" style="fill:#FFD485;" width="33.391" height="133.564"/>
<rect x="348.749" y="160.388" transform="matrix(-0.7071 -0.7071 0.7071 -0.7071 527.1368 572.5148)" style="fill:#FFB833;" width="66.782" height="33.391"/>
<rect x="294.608" y="39.47" transform="matrix(-0.7071 0.7071 -0.7071 -0.7071 606.56 -38.7414)" style="fill:#FFD485;" width="33.391" height="133.564"/>
<g>
	
		<rect x="315.355" y="96.467" transform="matrix(-0.7071 0.7071 -0.7071 -0.7071 744.1716 -48.5301)" style="fill:#605757;" width="133.564" height="66.782"/>
	<polygon style="fill:#605757;" points="118.056,345.044 48.9,345.044 0,393.944 0,463.1 24.45,487.55 99.219,444.263 
		142.506,369.494 	"/>
</g>
<polygon style="fill:#403A3A;" points="166.957,393.944 142.506,369.494 24.45,487.55 48.9,512.001 118.056,512.001 166.957,463.1 
	"/>
<path style="fill:#FFD485;" d="M106.25,31.335c-19.479-19.479-51.355-19.479-70.834,0L23.611,43.14l47.223,47.223l47.222-47.222
	L106.25,31.335z"/>
<path style="fill:#605757;" d="M47.222,43.141c13.019-13.019,34.203-13.019,47.222,0l187.207,187.207l19.676-3.936l3.936-19.676
	L118.056,19.529C92.018-6.51,49.65-6.51,23.611,19.529L0,43.141l234.43,234.43l19.676-3.936l3.936-19.676L47.222,43.141z"/>
<path style="fill:#FFB833;" d="M480.666,476.583c19.479-19.479,19.479-51.355,0-70.834l-11.806-11.806l-47.222,47.222l47.222,47.222
	L480.666,476.583z"/>
<path style="fill:#403A3A;" d="M492.472,488.39c26.039-26.039,26.039-68.407,0-94.445L305.263,206.737l-23.611,23.611
	L468.86,417.555c13.019,13.019,13.019,34.203,0,47.222L258.041,253.959L234.43,277.57l234.429,234.43L492.472,488.39z"/>
<g>
</g>
<g>
</g>
<g>
</g>
<g>
</g>
<g>
</g>
<g>
</g>
<g>
</g>
<g>
</g>
<g>
</g>
<g>
</g>
<g>
</g>
<g>
</g>
<g>
</g>
<g>
</g>
<g>
</g>
</svg>
