<?xml version="1.0" encoding="iso-8859-1"?>
<!-- Generator: Adobe Illustrator 19.0.0, SVG Export Plug-In . SVG Version: 6.00 Build 0)  -->
<svg version="1.1" id="Layer_1" xmlns="http://www.w3.org/2000/svg" xmlns:xlink="http://www.w3.org/1999/xlink" x="0px" y="0px"
	 viewBox="0 0 512 512" style="enable-background:new 0 0 512 512;" xml:space="preserve">
<path style="fill:#99EBE6;" d="M78.147,194.021c0,75.407,46.933,139.849,113.179,165.722v-20.206
	c0-35.718,28.955-64.674,64.674-64.674l21.558-129.347L256,16.168C157.775,16.168,78.147,95.796,78.147,194.021z"/>
<g>
	<path style="fill:#807374;" d="M175.158,339.537v20.207h32.337v-20.207c0-26.746,21.759-48.505,48.505-48.505l10.779-16.168
		L256,258.695C211.424,258.695,175.158,294.96,175.158,339.537z"/>
	<path style="fill:#807374;" d="M94.316,194.021c0-89.153,72.532-161.684,161.684-161.684V0C149.017,0,61.979,87.038,61.979,194.021
		S149.017,388.042,256,388.042v-32.337C166.847,355.705,94.316,283.174,94.316,194.021z"/>
</g>
<rect x="239.832" y="264.084" style="fill:#605757;" width="32.337" height="247.916"/>
<path style="fill:#4DDCD3;" d="M256,16.168v258.695c35.718,0,64.674,28.955,64.674,64.674v20.206
	c66.246-25.873,113.179-90.314,113.179-165.722C433.853,95.796,354.225,16.168,256,16.168z"/>
<g>
	<path style="fill:#605757;" d="M256,0v32.337c89.153,0,161.684,72.532,161.684,161.684S345.153,355.705,256,355.705v32.337
		c106.983,0,194.021-87.038,194.021-194.021S362.983,0,256,0z"/>
	<path style="fill:#605757;" d="M256,258.695v32.337c26.746,0,48.505,21.759,48.505,48.505v20.207h32.337v-20.207
		C336.842,294.96,300.576,258.695,256,258.695z"/>
</g>
<g>
</g>
<g>
</g>
<g>
</g>
<g>
</g>
<g>
</g>
<g>
</g>
<g>
</g>
<g>
</g>
<g>
</g>
<g>
</g>
<g>
</g>
<g>
</g>
<g>
</g>
<g>
</g>
<g>
</g>
</svg>
