<?xml version="1.0" encoding="iso-8859-1"?>
<!-- Generator: Adobe Illustrator 19.0.0, SVG Export Plug-In . SVG Version: 6.00 Build 0)  -->
<svg version="1.1" id="Layer_1" xmlns="http://www.w3.org/2000/svg" xmlns:xlink="http://www.w3.org/1999/xlink" x="0px" y="0px"
	 viewBox="0 0 512 512" style="enable-background:new 0 0 512 512;" xml:space="preserve">
<rect x="239.785" style="fill:#800D13;" width="32.438" height="454.138"/>
<polygon style="fill:#FF1A26;" points="173.296,447.123 256,407.265 266.813,389.261 256,371.256 159.212,417.901 "/>
<polygon style="fill:#C0141C;" points="256,407.265 338.706,447.123 352.788,417.901 256,371.256 "/>
<polygon style="fill:#FF1A26;" points="173.296,382.246 256,342.388 266.813,324.384 256,306.38 159.212,353.024 "/>
<polygon style="fill:#C0141C;" points="352.788,353.024 256,306.38 256,342.388 338.706,382.246 "/>
<polygon style="fill:#FF1A26;" points="173.296,512 256,472.142 266.813,454.138 256,436.133 159.212,482.777 "/>
<polygon style="fill:#C0141C;" points="256,472.142 338.706,512 352.788,482.777 256,436.133 "/>
<polygon style="fill:#FF1A26;" points="193.826,48.658 131.653,156.786 193.826,264.914 256,264.914 277.626,156.786 256,48.658 "/>
<polygon style="fill:#C0141C;" points="318.174,48.658 256,48.658 256,264.914 318.174,264.914 380.347,156.786 "/>
<rect x="239.785" y="124.347" style="fill:#FFB833;" width="32.438" height="64.877"/>
<g>
</g>
<g>
</g>
<g>
</g>
<g>
</g>
<g>
</g>
<g>
</g>
<g>
</g>
<g>
</g>
<g>
</g>
<g>
</g>
<g>
</g>
<g>
</g>
<g>
</g>
<g>
</g>
<g>
</g>
</svg>
