<?xml version="1.0" encoding="iso-8859-1"?>
<!-- Generator: Adobe Illustrator 19.0.0, SVG Export Plug-In . SVG Version: 6.00 Build 0)  -->
<svg version="1.1" id="Layer_1" xmlns="http://www.w3.org/2000/svg" xmlns:xlink="http://www.w3.org/1999/xlink" x="0px" y="0px"
	 viewBox="0 0 512 512" style="enable-background:new 0 0 512 512;" xml:space="preserve">
<rect x="256" y="72.348" style="fill:#00CCC1;" width="120.209" height="77.913"/>
<rect x="135.791" y="72.348" style="fill:#4DDCD3;" width="120.209" height="77.913"/>
<g>
	<polygon style="fill:#FF832F;" points="422.957,139.13 256,139.13 233.739,211.478 456.348,211.478 	"/>
	<polygon style="fill:#FF832F;" points="366.191,0 256,0 233.739,72.348 399.583,72.348 	"/>
</g>
<g>
	<polygon style="fill:#FFB833;" points="89.043,139.13 55.652,211.478 256,211.478 256,139.13 	"/>
	<polygon style="fill:#FFB833;" points="145.809,0 112.417,72.348 256,72.348 256,0 	"/>
</g>
<g>
	<polygon style="fill:#800D13;" points="311.652,211.478 311.652,333.913 233.739,333.913 256,211.478 	"/>
	<rect x="311.652" y="211.478" style="fill:#800D13;" width="111.304" height="122.435"/>
</g>
<g>
	<rect x="200.348" y="211.478" style="fill:#C0141C;" width="55.652" height="122.435"/>
	<rect x="89.043" y="211.478" style="fill:#C0141C;" width="111.304" height="122.435"/>
</g>
<rect x="72.348" y="211.478" style="fill:#FF1A26;" width="33.391" height="122.435"/>
<rect x="406.261" y="211.478" style="fill:#C0141C;" width="33.391" height="122.435"/>
<rect x="183.652" y="211.478" style="fill:#FF1A26;" width="33.391" height="122.435"/>
<rect x="294.957" y="211.478" style="fill:#C0141C;" width="33.391" height="122.435"/>
<polygon style="fill:#FF1A26;" points="512,322.783 512,512 422.957,512 389.565,411.826 356.174,512 289.391,512 289.391,411.826 
	256,411.826 233.739,367.304 256,322.783 "/>
<polygon style="fill:#FF4851;" points="256,322.783 256,411.826 222.609,411.826 222.609,512 155.826,512 122.435,411.826 
	89.043,512 0,512 0,322.783 "/>
<rect x="356.174" y="411.826" style="fill:#800D13;" width="66.783" height="100.174"/>
<rect x="89.043" y="411.826" style="fill:#C0141C;" width="66.783" height="100.174"/>
<g>
	<path style="fill:#FF832F;" d="M382.887,89.043H129.113c-39.893,0-72.348-32.455-72.348-72.348h33.391
		c0,21.481,17.476,38.957,38.957,38.957h253.774c21.481,0,38.957-17.476,38.957-38.957h33.391
		C455.235,56.588,422.78,89.043,382.887,89.043z"/>
	<path style="fill:#FF832F;" d="M439.652,228.174H72.348C32.455,228.174,0,195.719,0,155.826h33.391
		c0,21.481,17.476,38.957,38.957,38.957h367.304c21.481,0,38.957-17.476,38.957-38.957H512
		C512,195.719,479.545,228.174,439.652,228.174z"/>
</g>
<g>
</g>
<g>
</g>
<g>
</g>
<g>
</g>
<g>
</g>
<g>
</g>
<g>
</g>
<g>
</g>
<g>
</g>
<g>
</g>
<g>
</g>
<g>
</g>
<g>
</g>
<g>
</g>
<g>
</g>
</svg>
