<?xml version="1.0" encoding="iso-8859-1"?>
<!-- Generator: Adobe Illustrator 19.0.0, SVG Export Plug-In . SVG Version: 6.00 Build 0)  -->
<svg version="1.1" id="Layer_1" xmlns="http://www.w3.org/2000/svg" xmlns:xlink="http://www.w3.org/1999/xlink" x="0px" y="0px"
	 viewBox="0 0 512.002 512.002" style="enable-background:new 0 0 512.002 512.002;" xml:space="preserve">
<rect x="393.302" y="29.594" transform="matrix(-0.7071 0.7071 -0.7071 -0.7071 811.035 -209.9234)" style="fill:#FFD485;" width="111.384" height="66.83"/>
<polygon style="fill:#807374;" points="378.107,55.133 330.851,102.39 370.231,157.523 417.487,94.514 "/>
<polygon style="fill:#605757;" points="456.868,133.894 417.487,94.514 362.355,149.647 409.611,181.152 "/>
<polygon style="fill:#807374;" points="0,433.24 39.38,472.621 102.389,425.364 47.256,385.984 "/>
<g>
	<polygon style="fill:#605757;" points="78.761,512.001 126.017,464.745 94.513,417.488 39.38,472.621 	"/>
	<polygon style="fill:#605757;" points="330.851,102.39 47.256,385.984 86.637,425.364 244.185,299.32 370.231,141.77 	"/>
</g>
<polygon style="fill:#403A3A;" points="370.231,141.77 334.788,177.213 295.408,137.833 271.779,161.461 311.16,200.841 
	240.221,271.78 200.84,232.4 177.212,256.028 216.593,295.409 192.964,319.037 153.584,279.656 129.956,303.285 169.336,342.665 
	145.708,366.293 106.328,326.913 82.699,350.541 122.08,389.921 86.637,425.364 126.017,464.745 409.611,181.152 "/>
<g>
</g>
<g>
</g>
<g>
</g>
<g>
</g>
<g>
</g>
<g>
</g>
<g>
</g>
<g>
</g>
<g>
</g>
<g>
</g>
<g>
</g>
<g>
</g>
<g>
</g>
<g>
</g>
<g>
</g>
</svg>
