<?xml version="1.0" encoding="iso-8859-1"?>
<!-- Generator: Adobe Illustrator 19.0.0, SVG Export Plug-In . SVG Version: 6.00 Build 0)  -->
<svg version="1.1" id="Layer_1" xmlns="http://www.w3.org/2000/svg" xmlns:xlink="http://www.w3.org/1999/xlink" x="0px" y="0px"
	 viewBox="0 0 512 512" style="enable-background:new 0 0 512 512;" xml:space="preserve">
<polygon style="fill:#FF832F;" points="142.47,0 66.783,0 0,66.783 142.47,89.043 "/>
<g>
	<polygon style="fill:#FFB833;" points="0,66.783 44.522,512 129.113,512 129.113,66.783 	"/>
	<polygon style="fill:#FFB833;" points="142.47,0 102.4,66.783 278.261,89.043 256,0 	"/>
</g>
<polygon style="fill:#FFD485;" points="102.4,66.783 129.113,512 256,512 289.391,289.391 256,66.783 "/>
<polygon style="fill:#FF4F2A;" points="512,66.783 445.217,0 369.53,0 369.53,89.043 "/>
<g>
	<polygon style="fill:#FF832F;" points="382.887,66.783 382.887,512 467.478,512 512,66.783 	"/>
	<polygon style="fill:#FF832F;" points="369.53,0 256,0 256,89.043 409.6,66.783 	"/>
</g>
<polygon style="fill:#FFB833;" points="409.6,66.783 256,66.783 256,512 382.887,512 "/>
<path style="fill:#FF4F2A;" d="M203.034,356.691c-4.551,8.464-7.138,18.14-7.138,28.422c0,33.195,26.91,60.104,60.104,60.104
	l22.261-93.481L256,258.255L203.034,356.691z"/>
<path style="fill:#FF1A26;" d="M308.966,356.691L256,258.255v186.962c33.194,0,60.104-26.909,60.104-60.104
	C316.104,374.832,313.518,365.155,308.966,356.691z"/>
<g>
</g>
<g>
</g>
<g>
</g>
<g>
</g>
<g>
</g>
<g>
</g>
<g>
</g>
<g>
</g>
<g>
</g>
<g>
</g>
<g>
</g>
<g>
</g>
<g>
</g>
<g>
</g>
<g>
</g>
</svg>
