<?xml version="1.0" encoding="iso-8859-1"?>
<!-- Generator: Adobe Illustrator 19.0.0, SVG Export Plug-In . SVG Version: 6.00 Build 0)  -->
<svg version="1.1" id="Layer_1" xmlns="http://www.w3.org/2000/svg" xmlns:xlink="http://www.w3.org/1999/xlink" x="0px" y="0px"
	 viewBox="0 0 512 512" style="enable-background:new 0 0 512 512;" xml:space="preserve">
<polygon style="fill:#4DDCD3;" points="144.696,100.174 144.696,166.957 267.13,189.217 256,100.174 "/>
<polygon style="fill:#00CCC1;" points="367.304,100.174 256,100.174 256,189.217 367.304,166.957 "/>
<path style="fill:#99EBE6;" d="M144.696,166.957c-30.609,0-55.652,25.043-55.652,55.652V512H256l22.261-172.522L256,166.957H144.696
	z"/>
<path style="fill:#4DDCD3;" d="M422.957,222.609c0-30.609-25.043-55.652-55.652-55.652H256V512h166.957V222.609z"/>
<path style="fill:#FFFFFF;" d="M253.566,244.931c-51.122,1.296-92.174,43.113-92.174,94.547c0,52.251,42.358,94.609,94.609,94.609
	c0.817,0,1.623-0.041,2.434-0.061c24.995-1.267,56.001-21.934,56.001-47.243L253.566,244.931z"/>
<path style="fill:#605757;" d="M350.609,339.478c0-52.251-42.358-94.609-94.609-94.609c-0.817,0-1.623,0.041-2.434,0.061
	c-24.994,1.267-44.87,21.934-44.87,47.243c0,26.125,21.179,47.304,47.304,47.304s47.304,21.179,47.304,47.304
	c0,25.31-19.876,45.975-44.87,47.243C309.556,432.73,350.609,390.913,350.609,339.478z"/>
<polygon style="fill:#FF832F;" points="161.391,0 161.391,1.113 178.087,100.174 267.13,100.174 256,0 "/>
<polygon style="fill:#FF4F2A;" points="256,0 256,100.174 333.913,100.174 350.609,1.113 350.609,0 "/>
<polygon style="fill:#99EBE6;" points="122.435,83.478 122.435,116.87 256,116.87 267.13,100.174 256,83.478 "/>
<rect x="256" y="83.478" style="fill:#4DDCD3;" width="133.565" height="33.391"/>
<g>
</g>
<g>
</g>
<g>
</g>
<g>
</g>
<g>
</g>
<g>
</g>
<g>
</g>
<g>
</g>
<g>
</g>
<g>
</g>
<g>
</g>
<g>
</g>
<g>
</g>
<g>
</g>
<g>
</g>
</svg>
