<?xml version="1.0" encoding="iso-8859-1"?>
<!-- Generator: Adobe Illustrator 19.0.0, SVG Export Plug-In . SVG Version: 6.00 Build 0)  -->
<svg version="1.1" id="Layer_1" xmlns="http://www.w3.org/2000/svg" xmlns:xlink="http://www.w3.org/1999/xlink" x="0px" y="0px"
	 viewBox="0 0 512 512" style="enable-background:new 0 0 512 512;" xml:space="preserve">
<path style="fill:#00CCC1;" d="M378.435,72.348V128h-33.391V72.348c0-21.482-17.475-38.957-38.957-38.957H256l-11.13-16.696L256,0
	h50.087C345.978,0,378.435,32.456,378.435,72.348z"/>
<path style="fill:#99EBE6;" d="M256,0v33.391h-50.087c-21.482,0-38.957,17.475-38.957,38.957V128h-33.391V72.348
	C133.565,32.456,166.022,0,205.913,0H256z"/>
<polygon style="fill:#605757;" points="205.913,445.217 205.913,512 150.261,512 139.13,422.957 "/>
<polygon style="fill:#403A3A;" points="205.913,105.739 205.913,445.217 150.261,445.217 128,275.478 150.261,105.739 "/>
<polygon style="fill:#807374;" points="150.261,422.957 150.261,512 94.609,512 94.609,445.217 "/>
<g>
	<rect x="94.609" y="105.739" style="fill:#605757;" width="55.652" height="339.478"/>
	<polygon style="fill:#605757;" points="417.391,445.217 417.391,512 361.739,512 350.609,422.957 	"/>
</g>
<polygon style="fill:#403A3A;" points="417.391,105.739 417.391,445.217 361.739,445.217 339.478,275.478 361.739,105.739 "/>
<polygon style="fill:#807374;" points="361.739,422.957 361.739,512 306.087,512 306.087,445.217 "/>
<rect x="306.087" y="105.739" style="fill:#605757;" width="55.652" height="339.478"/>
<g>
</g>
<g>
</g>
<g>
</g>
<g>
</g>
<g>
</g>
<g>
</g>
<g>
</g>
<g>
</g>
<g>
</g>
<g>
</g>
<g>
</g>
<g>
</g>
<g>
</g>
<g>
</g>
<g>
</g>
</svg>
