<?xml version="1.0" encoding="iso-8859-1"?>
<!-- Generator: Adobe Illustrator 19.0.0, SVG Export Plug-In . SVG Version: 6.00 Build 0)  -->
<svg version="1.1" id="Layer_1" xmlns="http://www.w3.org/2000/svg" xmlns:xlink="http://www.w3.org/1999/xlink" x="0px" y="0px"
	 viewBox="0 0 512 512" style="enable-background:new 0 0 512 512;" xml:space="preserve">
<g>
	<path style="fill:#9BB335;" d="M119.652,16.696c41.049,0,77.065,18.892,97.391,47.304c-20.326,28.413-56.342,47.304-97.391,47.304
		S42.587,92.413,22.261,64C42.587,35.587,78.603,16.696,119.652,16.696z"/>
	<rect x="200.348" y="47.304" style="fill:#9BB335;" width="55.652" height="33.391"/>
</g>
<g>
	<rect x="239.304" style="fill:#37AD36;" width="33.391" height="155.826"/>
	<path style="fill:#37AD36;" d="M392.348,16.696c-41.049,0-77.065,18.892-97.391,47.304c20.326,28.413,56.342,47.304,97.391,47.304
		S469.413,92.413,489.739,64C469.413,35.587,433.397,16.696,392.348,16.696z"/>
	<rect x="256" y="47.304" style="fill:#37AD36;" width="55.652" height="33.391"/>
</g>
<path style="fill:#FF832F;" d="M233.739,144.696c-18.781,0-34.455,13.292-38.136,30.98C119.157,198.423,64,263.158,64,339.478
	C64,434.759,149.961,512,256,512l22.261-183.652L256,144.696H233.739z"/>
<path style="fill:#FF4F2A;" d="M316.397,175.676c-3.681-17.688-19.355-30.98-38.136-30.98H256V512c106.039,0,192-77.241,192-172.522
	C448,263.158,392.843,198.423,316.397,175.676z"/>
<g>
	<circle style="fill:#FF832F;" cx="351.009" cy="361.372" r="16.696"/>
	<circle style="fill:#FF832F;" cx="306.488" cy="405.894" r="16.696"/>
</g>
<g>
</g>
<g>
</g>
<g>
</g>
<g>
</g>
<g>
</g>
<g>
</g>
<g>
</g>
<g>
</g>
<g>
</g>
<g>
</g>
<g>
</g>
<g>
</g>
<g>
</g>
<g>
</g>
<g>
</g>
</svg>
