<?xml version="1.0" encoding="iso-8859-1"?>
<!-- Generator: Adobe Illustrator 19.0.0, SVG Export Plug-In . SVG Version: 6.00 Build 0)  -->
<svg version="1.1" id="Layer_1" xmlns="http://www.w3.org/2000/svg" xmlns:xlink="http://www.w3.org/1999/xlink" x="0px" y="0px"
	 viewBox="0 0 512 512" style="enable-background:new 0 0 512 512;" xml:space="preserve">
<rect x="50.087" y="144.696" style="fill:#605757;" width="33.391" height="66.783"/>
<rect x="239.304" style="fill:#403A3A;" width="33.391" height="77.913"/>
<polygon style="fill:#FFB833;" points="322.783,133.565 322.783,512 256,512 233.739,322.783 256,133.565 "/>
<rect x="189.217" y="133.565" style="fill:#FFD485;" width="66.783" height="378.435"/>
<polygon style="fill:#FF832F;" points="345.043,250.435 345.043,283.826 256,283.826 244.87,267.13 256,250.435 "/>
<rect x="166.957" y="250.435" style="fill:#FFB833;" width="89.043" height="33.391"/>
<polygon style="fill:#FF832F;" points="345.043,317.217 345.043,350.609 256,350.609 244.87,333.913 256,317.217 "/>
<g>
	<rect x="166.957" y="317.217" style="fill:#FFB833;" width="89.043" height="33.391"/>
	<polygon style="fill:#FFB833;" points="111.304,200.348 111.304,512 66.783,512 44.522,356.174 66.783,200.348 	"/>
</g>
<rect x="22.261" y="200.348" style="fill:#FFD485;" width="44.522" height="311.652"/>
<polygon style="fill:#FF832F;" points="133.565,384 133.565,417.391 66.783,417.391 55.652,400.696 66.783,384 "/>
<rect y="384" style="fill:#FFB833;" width="66.783" height="33.391"/>
<polygon style="fill:#FF832F;" points="133.565,250.435 133.565,283.826 66.783,283.826 55.652,267.13 66.783,250.435 "/>
<rect y="250.435" style="fill:#FFB833;" width="66.783" height="33.391"/>
<polygon style="fill:#605757;" points="300.522,66.783 300.522,133.565 244.87,133.565 256,66.783 "/>
<rect x="211.478" y="66.783" style="fill:#807374;" width="44.522" height="66.783"/>
<polygon style="fill:#FF832F;" points="345.043,116.87 345.043,150.261 256,150.261 244.87,133.565 256,116.87 "/>
<rect x="166.957" y="116.87" style="fill:#FFB833;" width="89.043" height="33.391"/>
<polygon style="fill:#FF832F;" points="345.043,183.652 345.043,217.043 256,217.043 244.87,200.348 256,183.652 "/>
<rect x="166.957" y="183.652" style="fill:#FFB833;" width="89.043" height="33.391"/>
<polygon style="fill:#FF832F;" points="133.565,317.217 133.565,350.609 66.783,350.609 55.652,333.913 66.783,317.217 "/>
<rect y="317.217" style="fill:#FFB833;" width="66.783" height="33.391"/>
<rect x="428.522" y="144.696" style="fill:#605757;" width="33.391" height="66.783"/>
<polygon style="fill:#FFB833;" points="489.739,200.348 489.739,512 445.217,512 422.957,356.174 445.217,200.348 "/>
<rect x="400.696" y="200.348" style="fill:#FFD485;" width="44.522" height="311.652"/>
<polygon style="fill:#FF832F;" points="512,384 512,417.391 445.217,417.391 434.087,400.696 445.217,384 "/>
<rect x="378.435" y="384" style="fill:#FFB833;" width="66.783" height="33.391"/>
<polygon style="fill:#FF832F;" points="512,250.435 512,283.826 445.217,283.826 434.087,267.13 445.217,250.435 "/>
<rect x="378.435" y="250.435" style="fill:#FFB833;" width="66.783" height="33.391"/>
<polygon style="fill:#FF832F;" points="512,317.217 512,350.609 445.217,350.609 434.087,333.913 445.217,317.217 "/>
<rect x="378.435" y="317.217" style="fill:#FFB833;" width="66.783" height="33.391"/>
<g>
</g>
<g>
</g>
<g>
</g>
<g>
</g>
<g>
</g>
<g>
</g>
<g>
</g>
<g>
</g>
<g>
</g>
<g>
</g>
<g>
</g>
<g>
</g>
<g>
</g>
<g>
</g>
<g>
</g>
</svg>
