<?xml version="1.0" encoding="iso-8859-1"?>
<!-- Generator: Adobe Illustrator 19.0.0, SVG Export Plug-In . SVG Version: 6.00 Build 0)  -->
<svg version="1.1" id="Layer_1" xmlns="http://www.w3.org/2000/svg" xmlns:xlink="http://www.w3.org/1999/xlink" x="0px" y="0px"
	 viewBox="0 0 512 512" style="enable-background:new 0 0 512 512;" xml:space="preserve">
<path style="fill:#4DDCD3;" d="M327.791,142.743V71.791H256V512h124.182l34.492-197.042c1.591-9.086,2.423-18.431,2.423-27.971
	C417.097,223.812,380.729,169.141,327.791,142.743z"/>
<g>
	<path style="fill:#99EBE6;" d="M184.209,71.791v70.952c-52.937,26.399-89.306,81.07-89.306,144.244
		c0,9.541,0.833,18.886,2.423,27.971L131.818,512H256V71.791H184.209z"/>
	<path style="fill:#99EBE6;" d="M184.209,71.791H256V0C216.351,0,184.209,32.142,184.209,71.791z"/>
</g>
<path style="fill:#4DDCD3;" d="M256,0v71.791h71.791C327.791,32.142,295.649,0,256,0z"/>
<path style="fill:#66E0DA;" d="M195.339,286.986c0-33.448,27.213-60.661,60.661-60.661v-33.391
	c-51.86,0-94.052,42.192-94.052,94.052S204.14,381.038,256,381.038v-33.391C222.552,347.647,195.339,320.435,195.339,286.986z"/>
<g>
	<path style="fill:#00CCC1;" d="M256,192.934v33.391c33.448,0,60.661,27.213,60.661,60.661S289.448,347.647,256,347.647v33.391
		c51.86,0,94.052-42.192,94.052-94.052S307.86,192.934,256,192.934z"/>
	<rect x="156.383" y="55.096" style="fill:#00CCC1;" width="199.235" height="33.391"/>
</g>
<g>
</g>
<g>
</g>
<g>
</g>
<g>
</g>
<g>
</g>
<g>
</g>
<g>
</g>
<g>
</g>
<g>
</g>
<g>
</g>
<g>
</g>
<g>
</g>
<g>
</g>
<g>
</g>
<g>
</g>
</svg>
