<?xml version="1.0" encoding="iso-8859-1"?>
<!-- Generator: Adobe Illustrator 19.0.0, SVG Export Plug-In . SVG Version: 6.00 Build 0)  -->
<svg version="1.1" id="Layer_1" xmlns="http://www.w3.org/2000/svg" xmlns:xlink="http://www.w3.org/1999/xlink" x="0px" y="0px"
	 viewBox="0 0 512 512" style="enable-background:new 0 0 512 512;" xml:space="preserve">
<rect x="378.435" y="155.826" style="fill:#605757;" width="33.391" height="194.783"/>
<path style="fill:#403A3A;" d="M395.13,406.261c18.412,0,33.391-14.979,33.391-33.391s-14.979-33.391-33.391-33.391
	c-18.412,0-33.391,14.979-33.391,33.391S376.718,406.261,395.13,406.261z"/>
<polygon style="fill:#FF1A26;" points="222.609,291.358 222.609,512 256,512 267.13,291.358 "/>
<rect x="256" y="291.361" style="fill:#C0141C;" width="33.391" height="220.639"/>
<g>
	<rect x="100.174" y="155.826" style="fill:#807374;" width="33.391" height="194.783"/>
	<path style="fill:#807374;" d="M116.87,406.261c-18.412,0-33.391-14.979-33.391-33.391s14.979-33.391,33.391-33.391
		s33.391,14.979,33.391,33.391S135.282,406.261,116.87,406.261z"/>
</g>
<path style="fill:#FFB833;" d="M411.826,155.826c0,86.061-69.766,155.826-155.826,155.826l-22.261-155.826L256,0
	C342.061,0,411.826,69.766,411.826,155.826z"/>
<path style="fill:#FFD485;" d="M256,66.783V0c-86.061,0-155.826,69.766-155.826,155.826S169.939,311.652,256,311.652V244.87
	c49.099,0,89.043-39.945,89.043-89.043S305.099,66.783,256,66.783z"/>
<path style="fill:#FFFFFF;" d="M166.957,155.826c0,49.099,39.945,89.043,89.043,89.043V66.783
	C206.901,66.783,166.957,106.728,166.957,155.826z"/>
<g>
</g>
<g>
</g>
<g>
</g>
<g>
</g>
<g>
</g>
<g>
</g>
<g>
</g>
<g>
</g>
<g>
</g>
<g>
</g>
<g>
</g>
<g>
</g>
<g>
</g>
<g>
</g>
<g>
</g>
</svg>
