<?xml version="1.0" encoding="iso-8859-1"?>
<!-- Generator: Adobe Illustrator 19.0.0, SVG Export Plug-In . SVG Version: 6.00 Build 0)  -->
<svg version="1.1" id="Layer_1" xmlns="http://www.w3.org/2000/svg" xmlns:xlink="http://www.w3.org/1999/xlink" x="0px" y="0px"
	 viewBox="0 0 512 512" style="enable-background:new 0 0 512 512;" xml:space="preserve">
<polygon style="fill:#FF832F;" points="256,289.391 478.609,512 478.609,289.391 "/>
<polygon style="fill:#FFB833;" points="33.391,289.391 33.391,512 256,289.391 "/>
<path style="fill:#FFD485;" d="M33.391,512H256l22.261-111.304L256,289.391C133.057,289.391,33.391,389.057,33.391,512z"/>
<g>
	<path style="fill:#FFB833;" d="M256,289.391V512h222.609C478.609,389.057,378.943,289.391,256,289.391z"/>
	<polygon style="fill:#FFB833;" points="33.391,0 33.391,222.609 256,0 	"/>
</g>
<polygon style="fill:#FF832F;" points="256,0 478.609,222.609 478.609,0 "/>
<path style="fill:#FFD485;" d="M33.391,222.609H256l22.261-111.304L256,0C133.057,0,33.391,99.665,33.391,222.609z"/>
<path style="fill:#FFB833;" d="M256,0v222.609h222.609C478.609,99.665,378.943,0,256,0z"/>
<g>
	<circle style="fill:#FF832F;" cx="350.609" cy="445.217" r="16.696"/>
	<circle style="fill:#FF832F;" cx="306.087" cy="378.435" r="16.696"/>
</g>
<circle style="fill:#FFB833;" cx="205.913" cy="89.043" r="16.696"/>
<g>
</g>
<g>
</g>
<g>
</g>
<g>
</g>
<g>
</g>
<g>
</g>
<g>
</g>
<g>
</g>
<g>
</g>
<g>
</g>
<g>
</g>
<g>
</g>
<g>
</g>
<g>
</g>
<g>
</g>
</svg>
