<?xml version="1.0" encoding="iso-8859-1"?>
<!-- Generator: Adobe Illustrator 19.0.0, SVG Export Plug-In . SVG Version: 6.00 Build 0)  -->
<svg version="1.1" id="Layer_1" xmlns="http://www.w3.org/2000/svg" xmlns:xlink="http://www.w3.org/1999/xlink" x="0px" y="0px"
	 viewBox="0 0 512.011 512.011" style="enable-background:new 0 0 512.011 512.011;" xml:space="preserve">
<g>
	
		<rect x="453.335" y="-1.207" transform="matrix(-0.7071 -0.7071 0.7071 -0.7071 771.8309 404.3763)" style="fill:#FF832F;" width="32.658" height="87.088"/>
	<path style="fill:#FF832F;" d="M225.404,332.8l13.985-13.985l-8.467-39.258L103.16,407.32l81.595,81.595
		C169.507,435.183,183.105,375.099,225.404,332.8z"/>
</g>
<g>
	<path style="fill:#FFB833;" d="M193.203,272.629l-13.985,13.985c-42.299,42.299-102.383,55.897-156.115,40.65l80.056,80.056
		l127.763-127.763L193.203,272.629z"/>
	<polygon style="fill:#FFB833;" points="477.372,80.832 431.185,34.647 384.999,80.832 392.697,119.321 431.185,127.019 	"/>
</g>
<polygon style="fill:#FF1A26;" points="384.999,80.832 193.203,272.629 216.297,295.721 319.892,207.521 408.092,103.925 "/>
<rect x="188.122" y="195.047" transform="matrix(-0.7071 0.7071 -0.7071 -0.7071 702.1236 131.9224)" style="fill:#C0141C;" width="271.236" height="32.658"/>
<polygon style="fill:#FF832F;" points="23.103,304.171 0.01,327.264 91.613,418.866 110.857,415.017 114.705,395.774 "/>
<rect x="133.393" y="388.034" transform="matrix(-0.7071 0.7071 -0.7071 -0.7071 576.5442 668.9767)" style="fill:#FF4F2A;" width="32.658" height="131.721"/>
<g>
</g>
<g>
</g>
<g>
</g>
<g>
</g>
<g>
</g>
<g>
</g>
<g>
</g>
<g>
</g>
<g>
</g>
<g>
</g>
<g>
</g>
<g>
</g>
<g>
</g>
<g>
</g>
<g>
</g>
</svg>
