<?xml version="1.0" encoding="iso-8859-1"?>
<!-- Generator: Adobe Illustrator 19.0.0, SVG Export Plug-In . SVG Version: 6.00 Build 0)  -->
<svg version="1.1" id="Layer_1" xmlns="http://www.w3.org/2000/svg" xmlns:xlink="http://www.w3.org/1999/xlink" x="0px" y="0px"
	 viewBox="0 0 512 512" style="enable-background:new 0 0 512 512;" xml:space="preserve">
<polygon style="fill:#403A3A;" points="489.739,144.696 489.739,400.696 378.435,400.696 400.696,66.783 "/>
<polygon style="fill:#605757;" points="111.304,66.783 133.565,400.696 22.261,400.696 22.261,144.696 "/>
<path style="fill:#403A3A;" d="M311.652,0h17.809v89.043H244.87L256,55.652C256,25.043,281.043,0,311.652,0z"/>
<g>
	<path style="fill:#605757;" d="M200.348,0h-17.809v89.043H256V55.652C256,25.043,230.957,0,200.348,0z"/>
	<polygon style="fill:#605757;" points="400.696,400.696 400.696,512 256,512 256,66.783 400.696,66.783 	"/>
</g>
<polygon style="fill:#807374;" points="256,66.783 256,512 111.304,512 111.304,400.696 111.304,66.783 "/>
<rect x="239.304" y="66.783" style="fill:#403A3A;" width="33.391" height="445.217"/>
<polygon style="fill:#FFB833;" points="322.783,306.087 322.783,339.478 256,339.478 244.87,322.783 256,306.087 "/>
<rect x="189.217" y="306.087" style="fill:#FFD485;" width="66.783" height="33.391"/>
<polygon style="fill:#FFB833;" points="322.783,172.522 322.783,205.913 256,205.913 244.87,189.217 256,172.522 "/>
<rect x="189.217" y="172.522" style="fill:#FFD485;" width="66.783" height="33.391"/>
<polygon style="fill:#FFB833;" points="322.783,239.304 322.783,272.696 256,272.696 244.87,256 256,239.304 "/>
<rect x="189.217" y="239.304" style="fill:#FFD485;" width="66.783" height="33.391"/>
<g>
</g>
<g>
</g>
<g>
</g>
<g>
</g>
<g>
</g>
<g>
</g>
<g>
</g>
<g>
</g>
<g>
</g>
<g>
</g>
<g>
</g>
<g>
</g>
<g>
</g>
<g>
</g>
<g>
</g>
</svg>
