<?xml version="1.0" encoding="iso-8859-1"?>
<!-- Generator: Adobe Illustrator 19.0.0, SVG Export Plug-In . SVG Version: 6.00 Build 0)  -->
<svg version="1.1" id="Layer_1" xmlns="http://www.w3.org/2000/svg" xmlns:xlink="http://www.w3.org/1999/xlink" x="0px" y="0px"
	 viewBox="0 0 512 512" style="enable-background:new 0 0 512 512;" xml:space="preserve">
<rect x="256" y="180.87" style="fill:#403A3A;" width="33.391" height="66.783"/>
<g>
	<rect x="222.609" y="164.174" style="fill:#605757;" width="100.174" height="33.391"/>
	<path style="fill:#605757;" d="M209.076,2.783c-57.295,0-102.499,18.611-127.285,52.405
		c-21.723,29.618-26.378,69.134-13.106,111.27c13.124,41.66,25.52,81.015,27.291,126.208v127.508h33.391v-127.83l-0.012-0.634
		c-1.897-49.808-15.584-93.262-28.821-135.285c-10.139-32.187-7.309-60.365,8.183-81.488c18.333-24.997,53.975-38.763,100.36-38.763
		h63.619l11.13-16.696l-11.13-16.696H209.076z"/>
</g>
<path style="fill:#403A3A;" d="M463.6,55.189C438.814,21.395,393.61,2.783,336.315,2.783h-63.619v33.391h63.619
	c46.385,0,82.027,13.766,100.361,38.763c15.491,21.123,18.322,49.301,8.183,81.488c-13.237,42.023-26.925,85.477-28.821,135.285
	l-0.012,0.317v128.147h33.391V292.665c1.771-45.193,14.168-84.548,27.291-126.208C489.978,124.322,485.325,84.807,463.6,55.189z"/>
<path style="fill:#C0141C;" d="M512,470.261c0-132.164-107.14-239.304-239.304-239.304l-22.261,139.13l22.261,139.13H512V470.261z"
	/>
<path style="fill:#FF1A26;" d="M272.696,230.957c-81.811,0-154.02,41.062-197.177,103.692l-49.962-20.695L0,375.652l45.626,18.898
	c-7.929,23.796-12.235,49.25-12.235,75.71v38.957h239.304V297.739c41.096,0,78.468-15.917,106.31-41.912
	C346.977,239.918,310.885,230.957,272.696,230.957z"/>
<path style="fill:#FF4851;" d="M272.696,230.957c-38.19,0-74.281,8.961-106.31,24.871c27.842,25.995,65.214,41.912,106.31,41.912"/>
<g>
</g>
<g>
</g>
<g>
</g>
<g>
</g>
<g>
</g>
<g>
</g>
<g>
</g>
<g>
</g>
<g>
</g>
<g>
</g>
<g>
</g>
<g>
</g>
<g>
</g>
<g>
</g>
<g>
</g>
</svg>
