<?xml version="1.0" encoding="iso-8859-1"?>
<!-- Generator: Adobe Illustrator 19.0.0, SVG Export Plug-In . SVG Version: 6.00 Build 0)  -->
<svg version="1.1" id="Layer_1" xmlns="http://www.w3.org/2000/svg" xmlns:xlink="http://www.w3.org/1999/xlink" x="0px" y="0px"
	 viewBox="0 0 512 512" style="enable-background:new 0 0 512 512;" xml:space="preserve">
<path style="fill:#FFB833;" d="M289.503,33.391v55.652H244.87L256,0c0.033,0,0.078,0,0.111,0
	C274.554,0,289.503,14.948,289.503,33.391z"/>
<path style="fill:#FFD485;" d="M256,0v89.043h-33.28V33.391C222.72,14.982,237.613,0.056,256,0z"/>
<polygon style="fill:#4DDCD3;" points="384.111,256 384.111,322.783 244.87,333.913 256,256 "/>
<polygon style="fill:#99EBE6;" points="256,256 256,333.913 128.111,322.783 128.111,256 "/>
<polygon style="fill:#605757;" points="256,77.913 244.87,155.826 306.198,144.696 306.198,77.913 "/>
<polygon style="fill:#807374;" points="206.024,77.913 206.024,144.696 256,155.826 256,77.913 "/>
<polygon style="fill:#C0141C;" points="233.739,389.565 256,450.783 272.696,512 306.087,512 322.783,500.87 339.478,512 
	432.306,512 432.306,389.565 "/>
<g>
	<path style="fill:#00CCC1;" d="M384.111,322.783H256l-11.13,66.783h220.828C434.054,371.812,406.172,349.128,384.111,322.783z"/>
	<path style="fill:#00CCC1;" d="M306.198,144.696H256L244.87,256h172.633C369.174,228.897,329.628,190.253,306.198,144.696z"/>
</g>
<polygon style="fill:#FF1A26;" points="79.928,389.565 79.928,512 172.522,512 189.217,500.87 205.913,512 256,512 256,389.565 "/>
<g>
	<path style="fill:#4DDCD3;" d="M128.111,322.783c-22.049,26.346-49.931,49.03-81.575,66.783H256v-66.783H128.111z"/>
	<path style="fill:#4DDCD3;" d="M206.024,144.696C182.606,190.253,143.059,228.897,94.72,256H256V144.696H206.024z"/>
</g>
<g>
	<rect x="172.522" y="450.783" style="fill:#800D13;" width="33.391" height="61.217"/>
	<rect x="239.304" y="450.783" style="fill:#800D13;" width="33.391" height="61.217"/>
	<rect x="306.087" y="450.783" style="fill:#800D13;" width="33.391" height="61.217"/>
	<polygon style="fill:#800D13;" points="482.393,372.87 482.393,406.261 256,406.261 244.87,389.565 256,372.87 	"/>
	<polygon style="fill:#800D13;" points="434.087,239.304 434.087,272.696 256,272.696 244.87,256 256,239.304 	"/>
</g>
<g>
	<rect x="29.607" y="372.87" style="fill:#C0141C;" width="226.393" height="33.391"/>
	<rect x="77.913" y="239.304" style="fill:#C0141C;" width="178.087" height="33.391"/>
</g>
<g>
</g>
<g>
</g>
<g>
</g>
<g>
</g>
<g>
</g>
<g>
</g>
<g>
</g>
<g>
</g>
<g>
</g>
<g>
</g>
<g>
</g>
<g>
</g>
<g>
</g>
<g>
</g>
<g>
</g>
</svg>
