<?xml version="1.0" encoding="iso-8859-1"?>
<!-- Generator: Adobe Illustrator 19.0.0, SVG Export Plug-In . SVG Version: 6.00 Build 0)  -->
<svg version="1.1" id="Layer_1" xmlns="http://www.w3.org/2000/svg" xmlns:xlink="http://www.w3.org/1999/xlink" x="0px" y="0px"
	 viewBox="0 0 512 512" style="enable-background:new 0 0 512 512;" xml:space="preserve">
<path style="fill:#FF832F;" d="M100.174,256c0-85.923,69.904-155.826,155.826-155.826l22.261-50.087L256,0
	C114.615,0,0,114.615,0,256s114.615,256,256,256l22.261-50.087L256,411.826C170.077,411.826,100.174,341.923,100.174,256z"/>
<path style="fill:#FF4F2A;" d="M256,0v100.174c85.923,0,155.826,69.904,155.826,155.826S341.922,411.826,256,411.826V512
	c141.384,0,256-114.616,256-256S397.384,0,256,0z"/>
<path style="fill:#FFD485;" d="M205.913,306.087V205.913H256l22.261-69.565L256,66.783C151.666,66.783,66.783,151.666,66.783,256
	S151.666,445.217,256,445.217l22.261-69.565L256,306.087H205.913z"/>
<path style="fill:#FFB833;" d="M256,66.783v139.13h50.087v100.174H256v139.13c104.334,0,189.217-84.883,189.217-189.217
	S360.334,66.783,256,66.783z"/>
<g>
</g>
<g>
</g>
<g>
</g>
<g>
</g>
<g>
</g>
<g>
</g>
<g>
</g>
<g>
</g>
<g>
</g>
<g>
</g>
<g>
</g>
<g>
</g>
<g>
</g>
<g>
</g>
<g>
</g>
</svg>
