<?xml version="1.0" encoding="iso-8859-1"?>
<!-- Generator: Adobe Illustrator 19.0.0, SVG Export Plug-In . SVG Version: 6.00 Build 0)  -->
<svg version="1.1" id="Layer_1" xmlns="http://www.w3.org/2000/svg" xmlns:xlink="http://www.w3.org/1999/xlink" x="0px" y="0px"
	 viewBox="0 0 512 512" style="enable-background:new 0 0 512 512;" xml:space="preserve">
<g>
	
		<rect x="88.75" y="12.514" transform="matrix(-0.9965 -0.083 0.083 -0.9965 342.0069 72.6358)" style="fill:#FFB833;" width="167.527" height="33.39"/>
	
		<rect x="155.835" y="-1.682" transform="matrix(-0.0831 -0.9965 0.9965 -0.0831 105.069 260.8371)" style="fill:#FFB833;" width="33.39" height="167.528"/>
</g>
<g>
	
		<rect x="322.79" y="-54.565" transform="matrix(-0.0831 -0.9965 0.9965 -0.0831 338.5989 369.9367)" style="fill:#FF4F2A;" width="33.39" height="167.528"/>
	
		<rect x="255.701" y="65.378" transform="matrix(-0.9965 -0.083 0.083 -0.9965 670.9459 192.0385)" style="fill:#FF4F2A;" width="167.527" height="33.39"/>
</g>
<polygon style="fill:#FF1A26;" points="222.607,111.304 222.607,214.821 289.39,214.82 289.39,111.304 255.999,89.043 "/>
<path style="fill:#FFD485;" d="M89.042,345.043C89.042,437.251,163.791,512,255.999,512l22.261-166.957l-22.261-166.957
	C163.791,178.087,89.042,252.836,89.042,345.043z"/>
<path style="fill:#FFB833;" d="M419.605,311.611L289.39,181.429c-10.79-2.19-21.956-3.342-33.391-3.342V512
	c92.208,0,166.957-74.749,166.957-166.957C422.955,333.594,421.8,322.413,419.605,311.611z"/>
<path style="fill:#FF4F2A;" d="M419.605,311.611c-13.293-65.398-64.811-116.904-130.215-130.182
	C291.177,252.537,348.498,309.86,419.605,311.611z"/>
<g>
	<rect x="200.346" y="395.13" style="fill:#C0141C;" width="111.304" height="33.391"/>
	<rect x="222.607" style="fill:#C0141C;" width="66.783" height="111.304"/>
</g>
<g>
</g>
<g>
</g>
<g>
</g>
<g>
</g>
<g>
</g>
<g>
</g>
<g>
</g>
<g>
</g>
<g>
</g>
<g>
</g>
<g>
</g>
<g>
</g>
<g>
</g>
<g>
</g>
<g>
</g>
</svg>
