<?xml version="1.0" encoding="iso-8859-1"?>
<!-- Generator: Adobe Illustrator 19.0.0, SVG Export Plug-In . SVG Version: 6.00 Build 0)  -->
<svg version="1.1" id="Layer_1" xmlns="http://www.w3.org/2000/svg" xmlns:xlink="http://www.w3.org/1999/xlink" x="0px" y="0px"
	 viewBox="0 0 512 512" style="enable-background:new 0 0 512 512;" xml:space="preserve">
<g>
	<rect x="156.295" y="16.168" style="fill:#605757;" width="32.337" height="75.453"/>
	<rect x="156.295" y="247.916" style="fill:#605757;" width="32.337" height="75.453"/>
	<polygon style="fill:#605757;" points="8.084,0 8.084,32.337 256,32.337 266.779,16.168 256,0 	"/>
	<rect x="323.368" y="16.168" style="fill:#605757;" width="32.337" height="75.453"/>
	<rect x="323.368" y="247.916" style="fill:#605757;" width="32.337" height="75.453"/>
	<rect x="40.421" y="16.168" style="fill:#605757;" width="32.337" height="495.832"/>
</g>
<circle style="fill:#FFB833;" cx="172.463" cy="132.042" r="67.368"/>
<circle style="fill:#FF832F;" cx="339.537" cy="132.042" r="67.368"/>
<polygon style="fill:#605757;" points="8.084,231.747 8.084,264.084 256,264.084 266.779,247.916 256,231.747 "/>
<circle style="fill:#FFB833;" cx="172.463" cy="363.789" r="67.368"/>
<circle style="fill:#FF832F;" cx="339.537" cy="363.789" r="67.368"/>
<g>
	<polyline style="fill:#403A3A;" points="256,0 503.916,0 503.916,32.337 256,32.337 	"/>
	<rect x="439.242" y="16.168" style="fill:#403A3A;" width="32.337" height="495.832"/>
	<polyline style="fill:#403A3A;" points="256,231.747 503.916,231.747 503.916,264.084 256,264.084 	"/>
</g>
<g>
</g>
<g>
</g>
<g>
</g>
<g>
</g>
<g>
</g>
<g>
</g>
<g>
</g>
<g>
</g>
<g>
</g>
<g>
</g>
<g>
</g>
<g>
</g>
<g>
</g>
<g>
</g>
<g>
</g>
</svg>
