<svg height="512pt" viewBox="0 0 512 512" width="512pt" xmlns="http://www.w3.org/2000/svg"><path d="m512 256c0 141.386719-114.613281 256-256 256s-256-114.613281-256-256 114.613281-256 256-256 256 114.613281 256 256zm0 0" fill="#edf6ff"/><path d="m256.027344 0v512c141.371094-.015625 255.972656-114.625 255.972656-256s-114.601562-255.984375-255.972656-256zm0 0" fill="#d5e9ff"/><path d="m256 256c70.691406 0 128-57.308594 128-128 0-70.695312-57.308594-128-128-128 141.382812 0 256 114.613281 256 256 0 141.382812-114.617188 256-256 256-70.691406 0-128-57.308594-128-128 0-70.695312 57.308594-128 128-128zm0 0" fill="#00347b"/><path d="m256 175.132812c-25.988281 0-47.132812-21.144531-47.132812-47.132812s21.144531-47.132812 47.132812-47.132812 47.132812 21.144531 47.132812 47.132812-21.144531 47.132812-47.132812 47.132812zm0 0" fill="#00347b"/><path d="m512 256c0 141.378906-114.621094 256-256 256v-256c70.691406 0 128-57.308594 128-128 0-70.140625-56.421875-127.101562-126.351562-127.9882812 140.621093.8789062 254.351562 115.1484372 254.351562 255.9882812zm0 0" fill="#001737"/><path d="m256 80.871094v94.257812c25.988281 0 47.128906-21.140625 47.128906-47.128906s-21.140625-47.128906-47.128906-47.128906zm0 0" fill="#00347b"/><path d="m256 431.136719c-25.988281 0-47.132812-21.144531-47.132812-47.132813 0-25.992187 21.144531-47.136718 47.132812-47.136718s47.132812 21.144531 47.132812 47.136718c0 25.988282-21.144531 47.132813-47.132812 47.132813zm0 0" fill="#edf6ff"/><path d="m256 336.871094v94.261718c25.988281 0 47.128906-21.140624 47.128906-47.128906 0-25.992187-21.140625-47.132812-47.128906-47.132812zm0 0" fill="#d5e9ff"/></svg>