<svg height="512pt" viewBox="0 0 512 512" width="512pt" xmlns="http://www.w3.org/2000/svg"><path d="m256 0c-141.160156 0-256 114.839844-256 256s114.839844 256 256 256 256-114.839844 256-256-114.839844-256-256-256zm49.269531 305.269531h-98.539062v-98.539062h98.539062zm0 0" fill="#fff36e"/><path d="m512 256c0 141.160156-114.839844 256-256 256v-206.730469h49.269531v-98.539062h-49.269531v-206.730469c141.160156 0 256 114.839844 256 256zm0 0" fill="#ffcc01"/><path d="m256 64.269531c-105.71875 0-191.730469 86.011719-191.730469 191.730469s86.011719 191.730469 191.730469 191.730469 191.730469-86.011719 191.730469-191.730469-86.011719-191.730469-191.730469-191.730469zm49.269531 241h-98.539062v-98.539062h98.539062zm0 0" fill="#fffac5"/><path d="m447.730469 256c0 105.71875-86.011719 191.730469-191.730469 191.730469v-142.460938h49.269531v-98.539062h-49.269531v-142.460938c105.71875 0 191.730469 86.011719 191.730469 191.730469zm0 0" fill="#fff36e"/><path d="m320.265625 335.265625h-128.53125c-8.285156 0-15-6.714844-15-15v-128.53125c0-8.285156 6.714844-15 15-15h128.53125c8.285156 0 15 6.714844 15 15v128.53125c0 8.285156-6.714844 15-15 15zm-113.53125-30h98.53125v-98.53125h-98.53125zm0 0" fill="#ffcc01"/><path d="m320.265625 176.734375h-64.265625v29.996094h49.269531v98.539062h-49.269531v29.996094h64.265625c8.285156 0 15-6.714844 15-15v-128.53125c0-8.285156-6.714844-15-15-15zm0 0" fill="#e19600"/></svg>