<svg height="512pt" viewBox="0 0 512 512" width="512pt" xmlns="http://www.w3.org/2000/svg"><path d="m256 9.667969c-135.832031 0-246.332031 110.503906-246.332031 246.332031s110.503906 246.332031 246.324219 246.332031h.007812.011719c135.820312-.007812 246.324219-110.503906 246.324219-246.332031s-110.503907-246.332031-246.335938-246.332031zm0 401.332031c-85.464844 0-155-69.535156-155-155s69.535156-155 155-155 155 69.535156 155 155-69.535156 155-155 155zm0 0" fill="#edf6ff"/><path d="m366.679688 256c0 61.523438-49.875 111.398438-111.398438 111.398438s-111.398438-49.875-111.398438-111.398438 49.875-111.398438 111.398438-111.398438 111.398438 49.875 111.398438 111.398438zm0 0" fill="#edf6ff"/><path d="m255.292969 144.601562v222.796876c61.519531-.003907 111.390625-49.878907 111.390625-111.398438s-49.871094-111.394531-111.390625-111.398438zm0 0" fill="#d5e9ff"/><path d="m255.28125 256c30.761719 0 55.699219-24.9375 55.699219-55.699219s-24.9375-55.703125-55.699219-55.703125c61.523438 0 111.398438 49.878906 111.398438 111.402344s-49.875 111.398438-111.398438 111.398438c-30.761719 0-55.699219-24.9375-55.699219-55.699219s24.9375-55.699219 55.699219-55.699219zm0 0" fill="#00347b"/><path d="m366.679688 256c0 61.523438-49.875 111.398438-111.398438 111.398438v-111.398438c30.761719 0 55.699219-24.9375 55.699219-55.699219 0-30.523437-24.550781-55.308593-54.980469-55.695312 61.191406.382812 110.679688 50.105469 110.679688 111.394531zm0 0" fill="#001737"/><path d="m255.292969 215.300781c-8.269531 0-15-6.730469-15-15 0-8.273437 6.730469-15 15-15 8.273437 0 15 6.726563 15 15 0 8.269531-6.726563 15-15 15zm0 0" fill="#00347b"/><path d="m255.292969 185.300781v30c8.273437 0 15-6.730469 15-15 0-8.273437-6.726563-15-15-15zm0 0" fill="#001737"/><path d="m255.292969 326.699219c-8.269531 0-15-6.726563-15-15 0-8.269531 6.730469-15 15-15 8.273437 0 15 6.730469 15 15 0 8.273437-6.726563 15-15 15zm0 0" fill="#edf6ff"/><path d="m255.292969 296.699219v30c8.273437 0 15-6.726563 15-15 0-8.269531-6.726563-15-15-15zm0 0" fill="#d5e9ff"/><path d="m256 0c-141.160156 0-256 114.839844-256 256s114.839844 256 256 256 256-114.839844 256-256-114.839844-256-256-256zm-15 426.835938v54.652343c-30.246094-1.992187-58.882812-9.957031-84.742188-22.726562l27.320313-47.324219c17.714844 8.285156 37.0625 13.628906 57.421875 15.398438zm30 0c20.359375-1.769532 39.707031-7.113282 57.421875-15.398438l27.320313 47.324219c-25.859376 12.769531-54.496094 20.734375-84.742188 22.726562zm-15-29.335938c-78.023438 0-141.5-63.476562-141.5-141.5s63.476562-141.5 141.5-141.5 141.5 63.476562 141.5 141.5-63.476562 141.5-141.5 141.5zm-170.835938-156.5h-54.652343c1.992187-30.246094 9.957031-58.882812 22.726562-84.742188l47.324219 27.324219c-8.285156 17.710938-13.628906 37.058594-15.398438 57.417969zm0 30c1.769532 20.359375 7.113282 39.707031 15.398438 57.417969l-47.324219 27.324219c-12.769531-25.859376-20.734375-54.496094-22.726562-84.742188zm185.835938-185.835938v-54.652343c30.246094 1.992187 58.882812 9.957031 84.742188 22.730469l-27.320313 47.320312c-17.714844-8.285156-37.0625-13.628906-57.421875-15.398438zm-30 0c-20.359375 1.773438-39.707031 7.117188-57.421875 15.398438l-27.320313-47.320312c25.859376-12.773438 54.496094-20.738282 84.742188-22.730469zm185.835938 185.835938h54.652343c-1.992187 30.246094-9.957031 58.882812-22.726562 84.742188l-47.324219-27.320313c8.285156-17.714844 13.628906-37.0625 15.398438-57.421875zm0-30c-1.773438-20.359375-7.117188-39.707031-15.402344-57.421875l47.324218-27.320313c12.773438 25.859376 20.738282 54.496094 22.730469 84.742188zm16.886718-110.703125-47.328125 27.324219c-11.46875-16.316406-25.699219-30.550782-42.015625-42.019532l27.324219-47.324218c24.476563 16.441406 45.578125 37.542968 62.019531 62.019531zm-313.425781-62.019531 27.324219 47.324218c-16.316406 11.46875-30.550782 25.703126-42.019532 42.023438l-47.328124-27.328125c16.445312-24.476563 37.546874-45.578125 62.023437-62.019531zm-62.023437 313.425781 47.328124-27.324219c11.46875 16.316406 25.703126 30.550782 42.019532 42.019532l-27.324219 47.328124c-24.476563-16.445312-45.578125-37.546874-62.023437-62.023437zm313.429687 62.023437-27.324219-47.328124c16.316406-11.46875 30.550782-25.703126 42.019532-42.019532l47.328124 27.324219c-16.445312 24.476563-37.546874 45.578125-62.023437 62.023437zm0 0" fill="#00eccf"/><path d="m256 9.667969c-.238281 0-.476562.007812-.71875.007812v91.332031c.242188 0 .480469-.007812.71875-.007812 85.464844 0 155 69.535156 155 155s-69.535156 155-155 155c-.238281 0-.476562-.007812-.71875-.007812v91.332031c.238281 0 .472656.007812.707031.007812h.011719.011719c135.820312-.007812 246.324219-110.503906 246.324219-246.332031s-110.503907-246.332031-246.335938-246.332031zm0 0" fill="#d5e9ff"/><path d="m256 0c-.238281 0-.476562.0078125-.71875.0078125v114.4999995c.242188 0 .480469-.007812.71875-.007812 78.023438 0 141.5 63.476562 141.5 141.5s-63.476562 141.5-141.5 141.5c-.238281 0-.476562-.007812-.71875-.007812v114.5c.242188 0 .480469.007812.71875.007812 141.160156 0 256-114.839844 256-256s-114.839844-256-256-256zm225.488281 241h-54.652343c-1.773438-20.359375-7.117188-39.707031-15.402344-57.421875l47.324218-27.320313c12.773438 25.859376 20.738282 54.496094 22.730469 84.742188zm-210.488281-155.835938v-54.652343c30.246094 1.992187 58.882812 9.957031 84.742188 22.730469l-27.320313 47.320312c-17.714844-8.285156-37.0625-13.628906-57.421875-15.398438zm125.398438 72.457032c-11.46875-16.316406-25.703126-30.550782-42.019532-42.019532l27.324219-47.324218c24.476563 16.441406 45.578125 37.542968 62.019531 62.019531zm-125.398438 323.867187v-54.652343c20.359375-1.769532 39.707031-7.113282 57.421875-15.398438l27.320313 47.324219c-25.859376 12.769531-54.496094 20.734375-84.742188 22.726562zm110.703125-37.761719-27.324219-47.328124c16.316406-11.46875 30.550782-25.703126 42.019532-42.019532l47.328124 27.324219c-16.445312 24.476563-37.546874 45.578125-62.023437 62.023437zm77.058594-87.984374-47.324219-27.320313c8.285156-17.710937 13.628906-37.0625 15.398438-57.421875h54.652343c-1.992187 30.246094-9.957031 58.882812-22.726562 84.742188zm0 0" fill="#00cab1"/></svg>