<svg height="512pt" viewBox="0 0 512 512" width="512pt" xmlns="http://www.w3.org/2000/svg"><path d="m451.527344 142.667969c-19.757813-34-48.1875-62.425781-82.203125-82.207031-7.121094-4.140626-9.570313-13.246094-5.488281-20.398438 14.097656-24.710938 40.5-40.0625 68.898437-40.0625 43.707031 0 79.265625 35.558594 79.265625 79.265625 0 28.410156-15.355469 54.808594-40.074219 68.894531-8.1875 4.667969-16.882812.554688-20.398437-5.492187zm0 0" fill="#001737"/><path d="m60.472656 142.667969c19.757813-34 48.1875-62.425781 82.203125-82.207031 7.121094-4.140626 9.570313-13.246094 5.488281-20.398438-14.097656-24.710938-40.5-40.0625-68.898437-40.0625-43.707031 0-79.265625 35.558594-79.265625 79.265625 0 28.410156 15.355469 54.808594 40.074219 68.894531 8.1875 4.667969 16.882812.554688 20.398437-5.492187zm0 0" fill="#00347b"/><path d="m256 512c-141.15625 0-256-114.839844-256-256 0-141.15625 114.84375-255.99609375 256-255.99609375s256 114.83984375 256 255.99999975c0 141.15625-114.84375 255.996094-256 255.996094zm0 0" fill="#edf6ff"/><path d="m512 256c0-141.15625-114.84375-255.99609375-256-255.99609375v511.99609375c141.15625 0 256-114.839844 256-256zm0 0" fill="#d5e9ff"/><path d="m442.019531 216.609375s-.003906 0-.003906-.003906c-4.246094-5.664063-7.933594-10.578125-10.347656-13.800781v-11.070313c0-43.707031-35.558594-79.265625-79.269531-79.265625-43.707032 0-79.265626 35.558594-79.265626 79.265625v.476563c0 15.070312 2.726563 57.007812 43.476563 90.976562 10.347656 8.625 21.355469 17.796875 30.988281 25.832031 21.289063 17.730469 51.5 20 75.164063 5.800781.035156-.019531.066406-.042968.101562-.0625 34.234375-20.589843 43.042969-66.3125 19.15625-98.148437zm-89.617187 5.96875c-8.28125 0-15-6.722656-15-15 0-8.28125 6.71875-15 15-15 8.277344 0 15 6.71875 15 15 0 8.277344-6.722656 15-15 15zm0 0" fill="#001737"/><path d="m159.601562 112.46875c-43.710937 0-79.269531 35.558594-79.269531 79.265625v11.070313c-2.414062 3.222656-6.101562 8.136718-10.347656 13.800781 0 .003906-.003906.003906-.003906.007812-23.886719 31.832031-15.078125 77.554688 19.152343 98.144531.035157.019532.070313.042969.105469.0625 23.660157 14.199219 53.871094 11.929688 75.164063-5.800781 9.632812-8.035156 20.636718-17.207031 30.988281-25.832031 40.75-33.96875 43.472656-75.902344 43.472656-90.976562v-.476563c.003907-43.707031-35.554687-79.265625-79.261719-79.265625zm-.003906 110.109375c-8.277344 0-15-6.722656-15-15 0-8.28125 6.722656-15 15-15 8.28125 0 15 6.71875 15 15 0 8.277344-6.71875 15-15 15zm0 0" fill="#00347b"/><path d="m288.132812 417.734375h-17.132812v-29.199219c0-8.285156-6.714844-15-15-15s-15 6.714844-15 15v29.199219h-17.132812c-8.285157 0-15 6.714844-15 15s6.714843 15 15 15h64.265624c8.285157 0 15-6.714844 15-15s-6.714843-15-15-15zm0 0" fill="#0051bd"/><path d="m288.132812 447.734375c8.285157 0 15-6.714844 15-15s-6.714843-15-15-15h-17.132812v-29.199219c0-8.285156-6.714844-15-15-15v74.199219zm0 0" fill="#00347b"/><path d="m217.96875 383.78125-12.011719-12.007812c-4.171875-4.175782-11.1875-11.933594-17.128906-23.769532-9.796875-19.625 4.46875-42.734375 26.429687-42.734375h81.480469c21.828125 0 36.050781 22.808594 26.609375 42.359375-1.253906 2.695313-6.753906 13.574219-17.296875 24.136719l-12.019531 12.015625c-21.058594 21.039062-55.0625 21-76.0625 0zm0 0" fill="#00347b"/><path d="m296.738281 305.269531h-40.738281v94.277344c13.75 0 27.507812-5.25 38.03125-15.765625l12.019531-12.015625c10.542969-10.5625 16.046875-21.441406 17.300781-24.136719 9.4375-19.550781-4.785156-42.359375-26.613281-42.359375zm0 0" fill="#001737"/></svg>