<svg height="512pt" viewBox="0 0 512 512" width="512pt" xmlns="http://www.w3.org/2000/svg"><path d="m256 0c-141.160156 0-256 114.839844-256 256s114.839844 256 256 256 256-114.839844 256-256-114.839844-256-256-256zm0 0" fill="#fff36e"/><path d="m512 256c0-141.160156-114.839844-256-256-256v512c141.160156 0 256-114.839844 256-256zm0 0" fill="#ffcc01"/><path d="m256 64.269531c-105.71875 0-191.730469 86.011719-191.730469 191.730469s86.011719 191.730469 191.730469 191.730469 191.730469-86.011719 191.730469-191.730469-86.011719-191.730469-191.730469-191.730469zm0 0" fill="#fffac5"/><path d="m447.730469 256c0-105.71875-86.011719-191.730469-191.730469-191.730469v383.460938c105.71875 0 191.730469-86.011719 191.730469-191.730469zm0 0" fill="#fff36e"/><path d="m328.585938 147.121094c-6.894532-4.59375-16.207032-2.734375-20.800782 4.160156l-51.785156 77.675781-51.785156-77.675781c-4.597656-6.894531-13.910156-8.753906-20.800782-4.164062-6.894531 4.597656-8.757812 13.910156-4.160156 20.804687l59.429688 89.144531h-38.917969c-8.28125 0-15 6.714844-15 15s6.71875 15 15 15h41.234375v18.199219h-41.234375c-8.28125 0-15 6.714844-15 15s6.71875 15 15 15h41.234375v33.199219c0 8.285156 6.714844 15 15 15s15-6.714844 15-15v-33.199219h41.234375c8.28125 0 15-6.714844 15-15s-6.71875-15-15-15h-41.234375v-18.199219h41.234375c8.28125 0 15-6.714844 15-15s-6.71875-15-15-15h-38.917969l59.429688-89.144531c4.597656-6.894531 2.734375-16.207031-4.160156-20.800781zm0 0" fill="#ffcc01"/><path d="m271 368.464844v-33.199219h41.234375c8.28125 0 15-6.714844 15-15s-6.71875-15-15-15h-41.234375v-18.199219h41.234375c8.28125 0 15-6.714844 15-15s-6.71875-15-15-15h-38.917969l59.429688-89.144531c4.597656-6.894531 2.734375-16.207031-4.160156-20.804687-6.894532-4.59375-16.207032-2.730469-20.800782 4.164062l-51.785156 77.675781v154.507813c8.285156 0 15-6.714844 15-15zm0 0" fill="#e19600"/></svg>