<svg height="512pt" viewBox="0 0 512 512" width="512pt" xmlns="http://www.w3.org/2000/svg"><path d="m256 0c-83.691406 0-151.519531 67.839844-151.519531 151.519531 0 83.691407 67.828125 151.53125 151.519531 151.53125 83.679688 0 151.519531-67.839843 151.519531-151.53125 0-83.679687-67.839843-151.519531-151.519531-151.519531zm0 186.53125-35.011719-35.011719 35.011719-35 35 35zm0 0" fill="#ffcc01"/><path d="m256 0c-.003906 0-.003906 0-.003906 0v116.523438l.003906-.003907 35 35-35 35.011719-.003906-.007812v116.527343h.003906c83.679688 0 151.519531-67.839843 151.519531-151.53125 0-83.679687-67.839843-151.519531-151.519531-151.519531zm0 0" fill="#e19600"/><path d="m256 30c-67.121094 0-121.519531 54.410156-121.519531 121.519531 0 67.121094 54.398437 121.53125 121.519531 121.53125 67.109375 0 121.519531-54.410156 121.519531-121.53125 0-67.109375-54.410156-121.519531-121.519531-121.519531zm0 156.53125-35.011719-35.011719 35.011719-35 35 35zm0 0" fill="#fff36e"/><path d="m256 30c-.003906 0-.003906 0-.003906 0v86.523438l.003906-.003907 35 35-35 35.011719-.003906-.007812v86.527343h.003906c67.109375 0 121.519531-54.410156 121.519531-121.53125 0-67.109375-54.410156-121.519531-121.519531-121.519531zm0 0" fill="#ffcc01"/><path d="m245.390625 218.355469-56.21875-56.226563c-5.859375-5.859375-5.859375-15.355468 0-21.214844l56.21875-56.214843c5.859375-5.855469 15.355469-5.859375 21.214844 0l56.21875 56.214843c5.855469 5.859376 5.855469 15.355469 0 21.214844l-56.21875 56.226563c-5.859375 5.859375-15.363281 5.851562-21.214844 0zm-24.398437-66.832031 35.003906 35.011718 35.007812-35.011718-35.007812-35.003907zm0 0" fill="#ffcc01"/><path d="m266.605469 84.699219c-2.929688-2.929688-6.769531-4.394531-10.609375-4.394531v36.21875-.003907l35.007812 35.003907-35.007812 35.011718v-.003906 36.214844c3.839844 0 7.679687-1.464844 10.609375-4.390625l56.21875-56.226563c5.859375-5.859375 5.855469-15.355468 0-21.214844zm0 0" fill="#e19600"/><path d="m360.480469 208.949219c-83.691407 0-151.519531 67.839843-151.519531 151.519531 0 83.691406 67.828124 151.53125 151.519531 151.53125 83.679687 0 151.519531-67.839844 151.519531-151.53125 0-83.679688-67.839844-151.519531-151.519531-151.519531zm0 186.53125-35.011719-35.011719 35.011719-35 35 35zm0 0" fill="#fff36e"/><path d="m360.480469 208.949219c-.003907 0-.003907 0-.003907 0v116.527343l.003907-.007812 35 35-35 35.011719-.003907-.003907v116.523438h.003907c83.679687 0 151.519531-67.839844 151.519531-151.53125 0-83.679688-67.839844-151.519531-151.519531-151.519531zm0 0" fill="#ffcc01"/><path d="m360.480469 238.949219c-67.121094 0-121.519531 54.410156-121.519531 121.519531 0 67.121094 54.398437 121.53125 121.519531 121.53125 67.109375 0 121.519531-54.410156 121.519531-121.53125 0-67.109375-54.410156-121.519531-121.519531-121.519531zm0 156.53125-35.011719-35.011719 35.011719-35 35 35zm0 0" fill="#fffac5"/><path d="m360.480469 238.949219c-.003907 0-.003907 0-.003907 0v86.527343l.003907-.007812 35 35-35 35.011719-.003907-.003907v86.523438h.003907c67.109375 0 121.519531-54.410156 121.519531-121.53125 0-67.109375-54.410156-121.519531-121.519531-121.519531zm0 0" fill="#fff36e"/><path d="m349.871094 427.304688-56.21875-56.226563c-5.859375-5.855469-5.859375-15.355469 0-21.210937l56.21875-56.21875c5.859375-5.855469 15.355468-5.859376 21.214844 0l56.21875 56.21875c5.855468 5.855468 5.855468 15.355468 0 21.210937l-56.21875 56.226563c-5.859376 5.859374-15.363282 5.851562-21.214844 0zm-24.398438-66.832032 35.003906 35.011719 35.007813-35.011719-35.007813-35.003906zm0 0" fill="#fff36e"/><path d="m371.085938 293.648438c-2.933594-2.929688-6.773438-4.394532-10.609376-4.390626v36.214844-.003906l35.007813 35.003906-35.007813 35.011719v-.003906 36.214843c3.839844 0 7.679688-1.460937 10.609376-4.390624l56.21875-56.226563c5.855468-5.855469 5.855468-15.355469 0-21.210937zm0 0" fill="#ffcc01"/><path d="m151.519531 208.949219c-83.691406 0-151.519531 67.839843-151.519531 151.519531 0 83.691406 67.828125 151.53125 151.519531 151.53125 83.679688 0 151.519531-67.839844 151.519531-151.53125 0-83.679688-67.839843-151.519531-151.519531-151.519531zm0 186.53125-35.007812-35.011719 35.007812-35 35 35zm0 0" fill="#fff36e"/><path d="m151.519531 208.949219h-.003906v116.527343l.003906-.007812 35 35-35 35.011719-.003906-.003907v116.523438h.003906c83.679688 0 151.519531-67.839844 151.519531-151.53125 0-83.679688-67.839843-151.519531-151.519531-151.519531zm0 0" fill="#ffcc01"/><path d="m151.519531 238.949219c-67.121093 0-121.519531 54.410156-121.519531 121.519531 0 67.121094 54.398438 121.53125 121.519531 121.53125 67.109375 0 121.519531-54.410156 121.519531-121.53125 0-67.109375-54.410156-121.519531-121.519531-121.519531zm0 156.53125-35.007812-35.011719 35.007812-35 35 35zm0 0" fill="#fffac5"/><path d="m151.519531 238.949219h-.003906v86.527343l.003906-.007812 35 35-35 35.011719-.003906-.003907v86.523438h.003906c67.109375 0 121.519531-54.410156 121.519531-121.53125 0-67.109375-54.410156-121.519531-121.519531-121.519531zm0 0" fill="#fff36e"/><path d="m140.910156 427.304688-56.21875-56.226563c-5.859375-5.855469-5.855468-15.355469 0-21.210937l56.21875-56.21875c5.859375-5.855469 15.355469-5.859376 21.214844 0l56.21875 56.21875c5.855469 5.855468 5.855469 15.355468 0 21.210937l-56.21875 56.226563c-5.859375 5.859374-15.363281 5.851562-21.214844 0zm-24.398437-66.832032 35.007812 35.011719 35.003907-35.011719-35.003907-35.003906zm0 0" fill="#fff36e"/><path d="m162.125 293.648438c-2.929688-2.929688-6.769531-4.394532-10.609375-4.390626v36.214844l.003906-.003906 35.003907 35.003906-35.003907 35.011719-.003906-.003906v36.214843c3.839844 0 7.679687-1.460937 10.609375-4.390624l56.21875-56.226563c5.859375-5.855469 5.855469-15.355469 0-21.210937zm0 0" fill="#ffcc01"/></svg>