<svg height="512pt" viewBox="0 0 512 512" width="512pt" xmlns="http://www.w3.org/2000/svg"><path d="m353.46875 321.335938v-32.136719c0-61.523438 49.769531-111.398438 111.398438-111.398438h32.132812c8.285156 0 15 6.714844 15 15v32.132813c0 61.515625-49.765625 111.402344-111.398438 111.402344h-32.132812c-8.285156 0-15-6.71875-15-15zm0 0" fill="#009784"/><path d="m143.53125 175.664062h-32.132812c-61.523438 0-111.398438-49.769531-111.398438-111.398437v-32.132813c0-8.285156 6.714844-15 15-15h32.132812c61.515626 0 111.398438 49.765626 111.398438 111.398438v32.132812c0 8.285157-6.714844 15-15 15zm0 0" fill="#00cab1"/><path d="m131.484375 33.976562c3.375 20.207032 5.082031 40.851563 5.082031 61.355469 0 20.507813-1.707031 41.152344-5.082031 61.359375-1.507813 9.058594-2.75 16.519532-2.75 16.519532-.136719.828124-.179687 1.644531-.179687 2.457031h110.292968c-.003906-.816407-.046875-1.636719-.1875-2.472657l-2.753906-16.5c-3.367188-20.226562-5.074219-40.871093-5.074219-61.359374 0-20.492188 1.707031-41.136719 5.074219-61.359376l2.753906-16.503906c1.527344-9.132812-5.519531-17.472656-14.792968-17.472656h-80.332032c-9.253906 0-16.316406 8.316406-14.796875 17.457031-.003906 0 1.238281 7.460938 2.746094 16.519531zm0 0" fill="#00eccf"/><path d="m238.660156 17.46875c1.527344-9.128906-5.519531-17.46875-14.792968-17.46875h-40.167969v175.664062h55.148437c0-.8125-.046875-1.636718-.1875-2.46875l-2.753906-16.5c-3.367188-20.226562-5.074219-40.871093-5.074219-61.363281 0-20.488281 1.707031-41.132812 5.074219-61.355469zm0 0" fill="#00cab1"/><path d="m238.660156 178.136719c.140625-.832031.1875-1.65625.1875-2.472657h-110.292968s-.109376.710938.183593 2.460938c0 0 1.238281 7.460938 2.75 16.519531 3.371094 20.207031 5.078125 40.851563 5.078125 61.355469 0 20.507812-1.707031 41.152344-5.078125 61.359375-1.511719 9.058594-2.75 16.519531-2.75 16.519531-.140625.828125-.183593 1.644532-.183593 2.457032h110.292968c0-.816407-.046875-1.636719-.1875-2.472657l-2.753906-16.5c-3.367188-20.226562-5.074219-40.871093-5.074219-61.359375 0-20.492187 1.707031-41.136718 5.074219-61.359375zm0 0" fill="#00cab1"/><path d="m238.660156 333.863281-2.753906-16.5c-3.367188-20.226562-5.074219-40.871093-5.074219-61.363281 0-20.488281 1.707031-41.132812 5.074219-61.355469l2.753906-16.503906c.140625-.835937.1875-1.660156.1875-2.472656h-55.148437v160.667969h55.148437c0-.816407-.046875-1.640626-.1875-2.472657zm0 0" fill="#009784"/><path d="m131.484375 478.023438c3.375-20.207032 5.082031-40.851563 5.082031-61.355469 0-20.507813-1.707031-41.152344-5.082031-61.359375-1.507813-9.058594-2.75-16.519532-2.75-16.519532-.136719-.828124-.179687-1.644531-.179687-2.457031h110.292968c-.003906.816407-.046875 1.636719-.1875 2.472657l-2.753906 16.5c-3.367188 20.226562-5.074219 40.871093-5.074219 61.359374 0 20.492188 1.707031 41.136719 5.074219 61.359376l2.753906 16.503906c1.523438 9.132812-5.523437 17.46875-14.792968 17.46875h-80.335938c-9.25 0-16.3125-8.3125-14.796875-17.457032 0 .003907 1.242187-7.457031 2.75-16.515624zm0 0" fill="#00eccf"/><path d="m235.90625 478.023438c-3.367188-20.222657-5.074219-40.867188-5.074219-61.355469 0-20.492188 1.707031-41.136719 5.074219-61.363281l2.753906-16.5c.140625-.835938.1875-1.65625.1875-2.46875h-55.148437v175.664062h40.167969c9.273437 0 16.320312-8.339844 14.792968-17.46875zm0 0" fill="#00cab1"/><path d="m223.847656 321.335938h-80.3125c-8.285156 0-15 6.714843-15 15 0 8.28125 6.714844 15 15 15h80.3125c8.285156 0 15-6.71875 15-15 0-8.285157-6.714844-15-15-15zm0 0" fill="#b9fff5"/><path d="m223.847656 160.664062h-80.3125c-8.285156 0-15 6.71875-15 15 0 8.285157 6.714844 15 15 15h80.3125c8.285156 0 15-6.714843 15-15 0-8.28125-6.714844-15-15-15zm0 0" fill="#b9fff5"/><path d="m183.699219 190.664062h40.148437c8.285156 0 15-6.714843 15-15 0-8.28125-6.714844-15-15-15h-40.148437zm0 0" fill="#00eccf"/><path d="m183.699219 351.335938h40.148437c8.285156 0 15-6.71875 15-15 0-8.285157-6.714844-15-15-15h-40.148437zm0 0" fill="#00eccf"/><path d="m276.082031 33.976562c3.371094 20.207032 5.082031 40.851563 5.082031 61.355469 0 20.507813-1.710937 41.152344-5.082031 61.359375-1.511719 9.058594-2.75 16.519532-2.75 16.519532-.136719.828124-.183593 1.644531-.183593 2.457031h110.292968c0-.816407-.046875-1.636719-.183594-2.472657l-2.753906-16.5c-3.367187-20.226562-5.074218-40.871093-5.074218-61.359374 0-20.492188 1.707031-41.136719 5.074218-61.359376l2.753906-16.503906c1.523438-9.132812-5.523437-17.472656-14.792968-17.472656h-80.335938c-9.25 0-16.316406 8.316406-14.796875 17.457031 0 0 1.238281 7.460938 2.75 16.519531zm0 0" fill="#00cab1"/><path d="m383.257812 17.46875c1.523438-9.128906-5.523437-17.46875-14.792968-17.46875h-40.167969v175.664062h55.144531c0-.8125-.042968-1.636718-.183594-2.46875l-2.753906-16.5c-3.367187-20.226562-5.074218-40.871093-5.074218-61.363281 0-20.488281 1.707031-41.132812 5.074218-61.355469zm0 0" fill="#009784"/><path d="m383.257812 178.136719c.140626-.832031.183594-1.65625.183594-2.472657h-110.292968s-.105469.710938.183593 2.460938c0 0 1.238281 7.460938 2.75 16.519531 3.371094 20.207031 5.082031 40.851563 5.082031 61.355469 0 20.507812-1.710937 41.152344-5.082031 61.359375-1.511719 9.058594-2.75 16.519531-2.75 16.519531-.136719.828125-.179687 1.644532-.183593 2.457032h110.292968c0-.816407-.042968-1.636719-.183594-2.472657l-2.753906-16.5c-3.367187-20.226562-5.074218-40.871093-5.074218-61.359375 0-20.492187 1.707031-41.136718 5.074218-61.359375zm0 0" fill="#00eccf"/><path d="m383.257812 333.863281-2.753906-16.5c-3.367187-20.226562-5.074218-40.871093-5.074218-61.363281 0-20.488281 1.707031-41.132812 5.074218-61.355469l2.753906-16.503906c.140626-.835937.183594-1.660156.183594-2.472656h-55.144531v160.667969h55.144531c0-.816407-.042968-1.640626-.183594-2.472657zm0 0" fill="#00cab1"/><path d="m276.082031 478.023438c3.371094-20.207032 5.082031-40.851563 5.082031-61.355469 0-20.507813-1.710937-41.152344-5.082031-61.359375-1.511719-9.058594-2.75-16.519532-2.75-16.519532-.136719-.828124-.183593-1.644531-.183593-2.457031h110.292968c0 .816407-.046875 1.636719-.183594 2.472657l-2.753906 16.5c-3.367187 20.226562-5.074218 40.871093-5.074218 61.359374 0 20.492188 1.707031 41.136719 5.074218 61.359376l2.753906 16.503906c1.523438 9.132812-5.523437 17.46875-14.796874 17.46875h-80.332032c-9.25 0-16.316406-8.3125-14.796875-17.457032 0 .003907 1.238281-7.457031 2.75-16.515624zm0 0" fill="#00cab1"/><path d="m380.503906 478.023438c-3.367187-20.222657-5.074218-40.867188-5.074218-61.355469 0-20.492188 1.707031-41.136719 5.074218-61.363281l2.753906-16.5c.140626-.835938.183594-1.65625.183594-2.46875h-55.144531v175.664062h40.167969c9.269531 0 16.316406-8.339844 14.792968-17.46875zm0 0" fill="#009784"/><path d="m368.441406 321.335938h-80.3125c-8.28125 0-15 6.714843-15 15 0 8.28125 6.71875 15 15 15h80.3125c8.285156 0 15-6.71875 15-15 0-8.285157-6.714844-15-15-15zm0 0" fill="#b9fff5"/><path d="m368.441406 160.664062h-80.3125c-8.28125 0-15 6.71875-15 15 0 8.285157 6.71875 15 15 15h80.3125c8.285156 0 15-6.714843 15-15 0-8.28125-6.714844-15-15-15zm0 0" fill="#b9fff5"/><g fill="#00eccf"><path d="m328.296875 190.664062h40.144531c8.285156 0 15-6.714843 15-15 0-8.28125-6.714844-15-15-15h-40.144531zm0 0"/><path d="m328.296875 351.335938h40.144531c8.285156 0 15-6.71875 15-15 0-8.285157-6.714844-15-15-15h-40.144531zm0 0"/></g></svg>