<svg height="512pt" viewBox="0 -56 512 511" width="512pt" xmlns="http://www.w3.org/2000/svg"><path d="m153.09375 174.453125c-19.152344-12.519531-40.117188-21.453125-62.3125-26.558594-8.167969-1.878906-13.214844-10.09375-11.195312-18.230469l17.253906-69.574218c2-8.070313 10.175781-12.953125 18.199218-10.941406l81.621094 20.421874c10.070313 2.515626 14.585938 14.277344 8.824219 22.890626-14.679687 21.945312-24.585937 46.234374-29.4375 72.191406-1.964844 10.507812-14.015625 15.644531-22.953125 9.800781zm0 0" fill="#c7001c"/><path d="m358.902344 174.453125c19.152344-12.519531 40.117187-21.453125 62.3125-26.558594 8.167968-1.878906 13.214844-10.09375 11.199218-18.230469l-17.257812-69.574218c-2-8.070313-10.175781-12.953125-18.199219-10.941406l-81.617187 20.421874c-10.074219 2.515626-14.589844 14.277344-8.828125 22.890626 14.683593 21.945312 24.585937 46.234374 29.4375 72.191406 1.964843 10.507812 14.015625 15.644531 22.953125 9.800781zm0 0" fill="#a50017"/><path d="m255.996094 351.832031c-8.28125 0-15-6.714843-15-15 0-65.679687-32.859375-126.382812-87.90625-162.378906-5.066406-3.316406-7.644532-9.355469-6.535156-15.308594 8.328124-44.578125 29.683593-85.097656 61.761718-117.179687l37.074219-37.070313c5.859375-5.859375 15.359375-5.859375 21.214844 0l37.074219 37.070313c32.066406 32.070312 53.425781 72.589844 61.757812 117.175781 1.113281 5.957031-1.460938 11.996094-6.53125 15.3125-55.046875 35.996094-87.910156 96.699219-87.910156 162.378906 0 8.285157-6.714844 15-15 15zm0 0" fill="#ff415b"/><path d="m303.679688 41.964844-37.074219-37.070313c-2.929688-2.929687-6.765625-4.394531-10.605469-4.394531v351.332031c8.28125 0 14.996094-6.714843 14.996094-15 0-65.679687 32.863281-126.382812 87.910156-162.378906 5.070312-3.316406 7.644531-9.355469 6.53125-15.3125-8.332031-44.585937-29.691406-85.105469-61.757812-117.175781zm0 0" fill="#c7001c"/><path d="m497 112.964844h-17.132812c-123.65625 0-223.867188 100.058594-223.867188 223.867187 0-123.808593-100.210938-223.867187-223.867188-223.867187h-17.132812c-8.285156 0-15 6.714844-15 15v48.199218c0 123.8125 100.207031 223.867188 223.867188 223.867188h64.265624c123.664063 0 223.867188-100.054688 223.867188-223.867188v-48.199218c0-8.285156-6.714844-15-15-15zm0 0" fill="#ff8d9d"/><path d="m288.132812 400.03125c123.660157 0 223.867188-100.054688 223.867188-223.867188v-48.199218c0-8.285156-6.714844-15-15-15h-17.132812c-123.65625 0-223.867188 100.058594-223.867188 223.867187v63.199219zm0 0" fill="#ff415b"/></svg>