<svg height="512pt" viewBox="-67 0 512 512" width="512pt" xmlns="http://www.w3.org/2000/svg"><path d="m188.96875 512c-24.996094 0-47.324219-14.921875-56.886719-38.011719-9.570312-23.09375-4.328125-49.4375 13.355469-67.109375l193.613281-193.625c11.863281-11.855468 11.878907-31.171875.003907-43.035156-.082032-.082031-.164063-.164062-.246094-.25-11.886719-11.628906-31.019532-11.554688-42.8125.234375l-192.804688 192.8125c-23.566406 23.554687-61.90625 23.550781-85.46875.003906-.113281-.113281-.222656-.226562-.328125-.339843-23.261719-23.582032-23.230469-61.617188.320313-85.148438l193.625-193.625c9.0625-9.0625 11.746094-22.570312 6.84375-34.417969-4.90625-11.835937-16.363282-19.488281-29.175782-19.488281-8.285156 0-15-6.714844-15-15s6.714844-15 15-15c24.988282 0 47.316407 14.917969 56.890626 38.007812 9.5625 23.101563 4.324218 49.441407-13.347657 67.113282l-193.625 193.625c-11.910156 11.902344-11.871093 31.179687-.007812 43.035156.085937.082031.167969.167969.246093.25 11.890626 11.632812 31.027344 11.554688 42.816407-.230469l192.804687-192.816406c23.566406-23.554687 61.90625-23.550781 85.46875-.003906.109375.109375.214844.21875.320313.332031 0 0 .003906.003906.007812.007812 23.273438 23.597657 23.238281 61.613282-.324219 85.148438l-193.609374 193.625c-9.070313 9.0625-11.757813 22.566406-6.847657 34.410156 4.902344 11.847656 16.351563 19.496094 29.167969 19.496094 8.28125 0 15 6.714844 15 15s-6.71875 15-15 15zm0 0" fill="#a50017"/><path d="m188.96875 482c-12.816406 0-24.265625-7.648438-29.167969-19.492188-4.910156-11.84375-2.222656-25.351562 6.847657-34.414062l22.320312-22.402344-21.140625-21.140625-22.390625 22.328125c-17.683594 17.671875-22.925781 44.015625-13.355469 67.109375 9.5625 23.089844 31.890625 38.011719 56.886719 38.011719 8.28125 0 15-6.714844 15-15s-6.71875-15-15-15zm0 0" fill="#c7001c"/><path d="m189.046875 512c24.996094 0 47.324219-14.921875 56.886719-38.011719 9.570312-23.09375 4.328125-49.4375-13.355469-67.109375 0 0-170.863281-170.871094-193.613281-193.625-11.863282-11.855468-11.878906-31.171875-.007813-43.035156.085938-.082031.167969-.164062.25-.25 11.882813-11.628906 31.019531-11.554688 42.8125.234375l192.804688 192.8125c23.566406 23.554687 61.90625 23.554687 85.46875.003906.113281-.113281.222656-.226562.328125-.339843 23.261718-23.578126 23.230468-61.617188-.324219-85.148438-32.476563-32.484375-193.621094-193.625-193.621094-193.625-9.0625-9.0625-11.746093-22.570312-6.84375-34.417969 4.90625-11.835937 16.363281-19.488281 29.175781-19.488281v-30c-24.988281 0-47.316406 14.917969-56.890624 38.007812-9.5625 23.101563-4.324219 49.441407 13.347656 67.113282 0 0 161.140625 161.136718 193.625 193.625 11.910156 11.902344 11.871094 31.179687.003906 43.035156-.082031.082031-.164062.167969-.242188.253906-11.890624 11.628906-31.027343 11.550782-42.816406-.234375l-192.804687-192.816406c-23.566407-23.554687-61.90625-23.550781-85.46875-.003906-.109375.109375-.214844.21875-.320313.332031 0 0-.003906.003906-.007812.007812-23.273438 23.597657-23.238282 61.613282.320312 85.148438 22.746094 22.75 193.613282 193.625 193.613282 193.625 9.070312 9.0625 11.757812 22.566406 6.847656 34.410156-4.902344 11.847656-16.351563 19.496094-29.167969 19.496094zm0 0" fill="#ff415b"/><path d="m188.96875 106.199219v42.425781c50.175781 50.171875 128.539062 128.539062 150.121094 150.121094 11.910156 11.902344 11.871094 31.179687.003906 43.035156-.082031.082031-.164062.167969-.242188.253906-11.890624 11.628906-31.027343 11.550782-42.816406-.234375l-107.066406-107.074219v42.425782l85.855469 85.863281c23.566406 23.554687 61.90625 23.550781 85.46875.003906.113281-.113281.222656-.226562.328125-.339843 23.261718-23.582032 23.230468-61.617188-.324219-85.148438-24.960937-24.96875-125.941406-125.945312-171.328125-171.332031zm0 0" fill="#c7001c"/><path d="m189.046875 482v30c24.996094 0 47.324219-14.921875 56.886719-38.011719 9.570312-23.09375 4.328125-49.4375-13.355469-67.109375 0 0-18.25-18.25-43.609375-43.617187v42.429687c13.710938 13.714844 22.398438 22.402344 22.398438 22.402344 9.070312 9.0625 11.757812 22.566406 6.847656 34.410156-4.902344 11.847656-16.351563 19.496094-29.167969 19.496094zm0 0" fill="#c7001c"/><path d="m360.257812 234.46875c23.5625-23.535156 23.597657-61.550781.324219-85.148438-.003906-.003906-.007812-.003906-.007812-.007812-.105469-.113281-.210938-.222656-.320313-.332031-23.5625-23.546875-61.902344-23.550781-85.46875.003906l-85.761718 85.765625 21.175781 21.25 85.796875-85.800781c11.792968-11.785157 30.925781-11.859375 42.8125-.230469.082031.082031.164062.167969.246094.25 11.871093 11.863281 11.859374 31.179688-.003907 43.035156l-21.515625 21.511719 21.195313 21.234375zm0 0" fill="#a50017"/><path d="m167.777344 256-85.796875 85.800781c-11.789063 11.785157-30.925781 11.863281-42.8125.230469-.082031-.082031-.164063-.167969-.246094-.25-11.867187-11.855469-11.90625-31.132812.003906-43.035156l21.554688-21.550782-21.214844-21.214843-21.550781 21.550781c-23.550782 23.53125-23.582032 61.566406-.320313 85.148438.105469.113281.214844.226562.328125.335937 23.5625 23.550781 61.902344 23.554687 85.46875 0l85.777344-85.863281zm0 0" fill="#c7001c"/><path d="m60.476562 234.769531 21.214844 21.210938 107.277344-107.359375-21.175781-21.171875zm0 0" fill="#c7001c"/><path d="m189.046875 363.339844 21.214844 21.210937 107.277343-107.355469-21.171874-21.175781zm0 0" fill="#a50017"/></svg>