<svg height="512pt" viewBox="0 -7 512.00018 512" width="512pt" xmlns="http://www.w3.org/2000/svg"><path d="m165.679688 497.691406c-23.390626 0-45.746094-7.113281-64.640626-20.835937-46.871093-34.050781-58.738281-99.605469-30.351562-153.046875-56.207031-27.359375-82.796875-88.21875-65.421875-141.667969 17.898437-55.085937 76.605469-86.625 136.214844-76.152344 8.453125-59.921875 56.59375-105.988281 114.535156-105.988281 57.9375 0 106.078125 46.0625 114.527344 105.992188 59.617187-10.476563 118.3125 21.0625 136.21875 76.148437 17.113281 52.640625-8.484375 113.953125-65.425781 141.667969 28.382812 53.441406 16.515624 118.996094-30.351563 153.046875-19.328125 14.039062-41.925781 20.761719-64.746094 20.761719-32.515625.003906-65.496093-13.640626-90.214843-39.203126-4.179688 4.335938-36.835938 39.273438-90.34375 39.277344zm0 0" fill="#ff8d9d"/><path d="m506.757812 182.140625c-17.902343-55.089844-76.59375-86.628906-136.21875-76.152344-8.441406-59.929687-56.582031-105.988281-114.523437-105.988281h-.042969v458.46875c.023438-.019531.042969-.039062.050782-.046875 24.714843 25.558594 57.695312 39.199219 90.210937 39.199219 22.824219 0 45.421875-6.730469 64.753906-20.769532 46.859375-34.042968 58.734375-99.601562 30.347657-153.042968 56.941406-27.71875 82.539062-89.027344 65.421874-141.667969zm0 0" fill="#ff415b"/><path d="m33.804688 191.410156c-15.765626 48.496094 17.859374 96.046875 63.667968 110.925782 9.6875 3.144531 13.488282 14.847656 7.503906 23.082031-30.742187 42.300781-24.59375 99.347656 13.699219 127.167969 40.984375 29.765624 96.648438 13.015624 125.199219-26.277344 5.988281-8.238282 18.292969-8.234375 24.277344 0 30.734375 42.300781 86.898437 54.089844 125.195312 26.277344 38.292969-27.820313 44.4375-84.867188 13.699219-127.164063-5.992187-8.242187-2.183594-19.941406 7.5-23.085937 48.394531-15.714844 78.703125-64.703126 63.679687-110.921876-14.628906-45.003906-66.996093-68.476562-116.738281-52.324218-9.707031 3.148437-19.636719-4.105469-19.636719-14.265625 0-52.285157-38.507812-94.824219-85.835937-94.824219-47.335937 0-85.84375 42.539062-85.84375 94.824219 0 10.183593-9.957031 17.410156-19.640625 14.265625-51.804688-16.824219-102.714844 9.183594-116.726562 52.320312zm0 0" fill="#ff415b"/><path d="m407.046875 325.421875c30.738281 42.296875 24.597656 99.347656-13.703125 127.160156-38.296875 27.816407-94.460938 16.027344-125.1875-26.273437-3-4.128906-7.589844-6.1875-12.183594-6.179688v-390.128906h.039063c47.332031 0 85.839843 42.539062 85.839843 94.820312 0 10.160157 9.933594 17.417969 19.636719 14.269532 49.738281-16.160156 102.109375 7.320312 116.734375 52.320312 15.023438 46.21875-15.28125 95.210938-63.675781 110.929688-9.679687 3.140625-13.492187 14.839844-7.5 23.082031zm0 0" fill="#c7001c"/><path d="m255.996094 341.722656c-17.207032 12.410156-40.359375 13.511719-57.515625 1.050782-21.273438-15.453126-21.519531-40.4375-16.792969-55.050782-17.121094-12.523437-25.324219-34.195312-18.777344-54.367187 8.140625-25.03125 31.851563-32.957031 47.179688-32.976563 6.625-20.148437 24.710937-34.644531 45.921875-34.644531 21.210937 0 39.292969 14.496094 45.917969 34.644531 15.253906.019532 39.046874 7.941406 47.175781 32.976563 8.128906 24.996093-6.363281 45.355469-18.777344 54.398437 6.488281 20.195313.378906 42.554688-16.78125 55.019532-17.8125 12.941406-41 10.9375-57.550781-1.050782zm0 0" fill="#ff8d9d"/><path d="m349.105469 233.359375c-8.121094-25.039063-31.917969-32.960937-47.171875-32.980469-6.632813-20.148437-24.703125-34.648437-45.921875-34.648437h-.039063v176c.011719 0 .011719-.011719.019532-.011719 16.554687 11.992188 39.742187 13.992188 57.554687 1.050781 17.164063-12.460937 23.273437-34.820312 16.785156-55.019531 12.410157-9.039062 26.90625-29.398438 18.773438-54.390625zm0 0" fill="#ff415b"/><path d="m191.449219 242.625c-3.167969 9.753906 3.476562 20.691406 14.808593 24.371094 9.691407 3.148437 13.492188 14.851562 7.503907 23.085937-6.503907 8.945313-6.457031 22.019531 2.355469 28.417969 8.300781 6.027344 20.753906 3.089844 27.761718-6.550781 5.988282-8.234375 18.289063-8.230469 24.273438.003906 6.792968 9.347656 19.277344 12.707031 27.761718 6.546875 8.300782-6.03125 9.355469-18.78125 2.351563-28.425781-5.988281-8.238281-2.179687-19.933594 7.503906-23.078125 10.746094-3.488282 18.109375-14.199219 14.800781-24.371094-3.445312-10.609375-16.066406-14.347656-26.304687-11.019531-9.707031 3.152343-19.644531-4.105469-19.644531-14.265625 0-11.914063-8.347656-21.609375-18.609375-21.609375s-18.613281 9.695312-18.613281 21.609375c0 10.179687-9.960938 17.417968-19.644532 14.261718-9.117187-2.960937-22.589844-.390624-26.304687 11.023438zm0 0" fill="#c7001c"/><path d="m305.765625 267c-9.683594 3.140625-13.484375 14.839844-7.503906 23.082031 7.003906 9.636719 5.953125 22.386719-2.347657 28.417969-8.484374 6.160156-20.964843 2.800781-27.757812-6.539062-3-4.128907-7.589844-6.191407-12.183594-6.191407v-110.039062h.042969c10.261719 0 18.601563 9.699219 18.601563 21.609375 0 10.160156 9.941406 17.421875 19.644531 14.269531 10.242187-3.328125 22.867187.410156 26.308593 11.019531 3.308594 10.171875-4.054687 20.882813-14.804687 24.371094zm0 0" fill="#a50017"/></svg>