<svg height="512pt" viewBox="0 -24 512 511" width="512pt" xmlns="http://www.w3.org/2000/svg"><path d="m497 464.300781h-208.867188c-8.285156 0-15-6.714843-15-15v-321.332031c0-8.285156 6.714844-15 15-15h208.867188c8.285156 0 15 6.714844 15 15v321.332031c0 8.285157-6.714844 15-15 15zm0 0" fill="#a50017"/><path d="m288.128906 464.300781c-1.929687 0-3.878906-.375-5.734375-1.144531-5.605469-2.320312-9.261719-7.789062-9.261719-13.855469v-96.402343c0-8.28125 6.714844-15 15-15h96.398438c6.070312 0 11.539062 3.65625 13.859375 9.261718 2.320313 5.605469 1.039063 12.058594-3.25 16.347656l-96.402344 96.398438c-2.867187 2.871094-6.703125 4.394531-10.609375 4.394531zm0 0" fill="#ff415b"/><path d="m384.53125 367.898438h-369.53125c-8.285156 0-15-6.714844-15-15v-337.398438c0-8.285156 6.714844-15 15-15h369.53125c8.285156 0 15 6.714844 15 15v337.398438c.003906 8.285156-6.714844 15-15 15zm0 0" fill="#ff415b"/><path d="m384.53125.5h-184.765625v367.398438h184.769531c8.28125 0 15-6.714844 15-15v-337.398438c0-8.285156-6.71875-15-15.003906-15zm0 0" fill="#c7001c"/><g fill="#fff36e"><path d="m208.867188 63.699219c0 8.285156-6.71875 15-15 15-8.285157 0-15-6.714844-15-15 0-8.285157 6.714843-15 15-15 8.28125 0 15 6.714843 15 15zm0 0" fill-rule="evenodd"/><path d="m241 119.933594c0 8.285156-6.714844 15-15 15s-15-6.714844-15-15 6.714844-15 15-15 15 6.714844 15 15zm0 0" fill-rule="evenodd"/><path d="m241 187.589844c0 8.285156-6.714844 15-15 15s-15-6.714844-15-15 6.714844-15 15-15 15 6.714844 15 15zm0 0" fill-rule="evenodd"/><path d="m208.867188 240.433594c0 8.285156-6.71875 15-15 15-8.285157 0-15-6.714844-15-15s6.714843-15 15-15c8.28125 0 15 6.714844 15 15zm0 0" fill-rule="evenodd"/><path d="m52.6875 195.085938.945312-26.21875-16.175781-20.652344c-6.558593-8.375-2.542969-20.75 7.691407-23.671875l25.226562-7.207031 14.648438-21.761719c6.03125-8.960938 19.03125-8.707031 24.890624 0l14.636719 21.761719 25.234375 7.203124c10.226563 2.921876 14.253906 15.296876 7.6875 23.675782l-16.179687 20.652344.949219 26.214843c.386718 10.628907-10.136719 18.285157-20.136719 14.632813l-24.640625-9.003906-24.636719 9.003906c-9.996094 3.648437-20.519531-4.019532-20.140625-14.628906zm0 0"/></g></svg>