<svg height="512pt" viewBox="-24 0 512 512" width="512pt" xmlns="http://www.w3.org/2000/svg"><path d="m192.027344 430.941406s-128.488282-85.78125-128.503906-85.792968l-.027344-.019532v.003906c-2.382813-1.597656-5.246094-2.527343-8.328125-2.527343-8.285157 0-15 6.714843-15 15v91.199219c0 3.976562 1.578125 7.792968 4.394531 10.605468 33.917969 33.914063 79.003906 52.589844 126.960938 52.589844h12.175781c8.285156 0 15-6.714844 15-15v-53.585938c0-5.199218-2.648438-9.78125-6.671875-12.472656zm0 0" fill="#ff415b"/><path d="m271.773438 430.941406s128.484374-85.78125 128.503906-85.792968l.027344-.019532v.003906c2.382812-1.597656 5.246093-2.527343 8.328124-2.527343 8.285157 0 15 6.714843 15 15v91.199219c0 3.976562-1.582031 7.792968-4.394531 10.605468-33.917969 33.914063-79.003906 52.589844-126.960937 52.589844h-12.175782c-8.285156 0-15-6.714844-15-15v-53.585938c0-5.199218 2.648438-9.78125 6.671876-12.472656zm0 0" fill="#c7001c"/><path d="m463.800781 231.898438c0 128.078124-103.824219 231.902343-231.902343 231.902343-128.074219 0-231.898438-103.824219-231.898438-231.902343 0-128.074219 103.824219-231.898438 231.898438-231.898438 128.078124 0 231.902343 103.824219 231.902343 231.898438zm0 0" fill="#fff36e"/><path d="m463.800781 231.902344c0 128.070312-103.828125 231.898437-231.902343 231.898437v-463.800781c128.074218 0 231.902343 103.820312 231.902343 231.902344zm0 0" fill="#ffcc01"/><path d="m407.566406 231.898438c0 97.019531-78.648437 175.667968-175.667968 175.667968-97.015626 0-175.664063-78.648437-175.664063-175.667968 0-97.015626 78.648437-175.664063 175.664063-175.664063 97.019531 0 175.667968 78.648437 175.667968 175.664063zm0 0" fill="#ff415b"/><path d="m407.570312 231.902344c0 97.019531-78.648437 175.660156-175.667968 175.660156v-351.332031c97.019531 0 175.667968 78.648437 175.667968 175.671875zm0 0" fill="#c7001c"/><path d="m256.539062 218.238281-24.640624-9.003906-24.636719 9.003906c-9.988281 3.652344-20.523438-3.992187-20.140625-14.628906l.945312-26.21875-16.175781-20.65625c-6.554687-8.371094-2.542969-20.75 7.691406-23.671875l25.226563-7.199219 14.644531-21.769531c5.867187-8.714844 18.871094-8.953125 24.894531.003906l14.636719 21.765625 25.234375 7.199219c10.226562 2.921875 14.253906 15.296875 7.6875 23.675781l-16.179688 20.652344.953126 26.214844c.382812 10.644531-10.175782 18.277343-20.140626 14.632812zm0 0" fill="#fffac5"/><path d="m231.898438 487.902344c-34.847657 0-63.199219-28.351563-63.199219-63.203125 0-34.847657 28.351562-63.199219 63.199219-63.199219 34.851562 0 63.203124 28.351562 63.203124 63.199219 0 34.851562-28.351562 63.203125-63.203124 63.203125zm0 0" fill="#fffac5"/><path d="m391.546875 305.265625h-80.378906v-33.199219c0-8.285156-6.71875-15-15-15h-128.535157c-8.28125 0-15 6.714844-15 15v33.199219h-80.378906c4.886719 10.617187 10.800782 20.65625 17.613282 30h284.066406c6.8125-9.34375 12.726562-19.382813 17.613281-30zm0 0" fill="#fffac5"/><g fill="#fff36e"><path d="m284.222656 133.058594-25.242187-7.199219-14.628907-21.757813c-3-4.460937-7.730468-6.640624-12.449218-6.632812v111.761719l24.636718 9.007812c9.960938 3.640625 20.523438-3.988281 20.140626-14.628906l-.949219-26.21875 16.179687-20.652344c6.5625-8.378906 2.53125-20.757812-7.6875-23.679687zm0 0"/><path d="m231.898438 361.5v126.402344c34.851562 0 63.203124-28.351563 63.203124-63.203125 0-34.847657-28.351562-63.199219-63.203124-63.199219zm0 0"/><path d="m391.550781 305.269531c-4.890625 10.613281-10.800781 20.652344-17.621093 30h-142.027344v-78.199219h64.269531c8.277344 0 15 6.710938 15 15v33.199219zm0 0"/></g></svg>