<svg height="512pt" viewBox="0 -56 512.10469 512" width="512pt" xmlns="http://www.w3.org/2000/svg"><path d="m195.300781 392.902344c-4.597656-6.898438-2.699219-16.199219 4.203125-20.800782l48.199219-32.097656c5-3.402344 11.597656-3.402344 16.597656 0l48.203125 32.097656c6.898438 4.601563 8.796875 13.902344 4.199219 20.800782-4.601563 6.898437-13.902344 8.800781-20.800781 4.199218l-39.898438-26.597656-39.902344 26.597656c-9 6-17.800781.300782-20.800781-4.199218zm0 0" fill="#fff36e"/><path d="m312.503906 372.101562-48.203125-32.097656c-2.5-1.703125-5.398437-2.5-8.296875-2.5v33l39.898438 26.597656c6.898437 4.601563 16.199218 2.699219 20.800781-4.199218 4.597656-6.800782 2.699219-16.199219-4.199219-20.800782zm0 0" fill="#ffcc01"/><path d="m256.003906 367.503906c-2.402344 0-4.902344-.601562-7.101562-1.800781l-241-128.5c-3.800782-2-6.5-5.601563-7.5-9.800781-1-4.199219-.101563-8.601563 2.300781-12.101563l31.800781-45.097656 6.796875-54.402344c.601563-4.898437 3.601563-9.199219 8-11.5l49.703125-25.5 32-45.199219c2.796875-4 7.398438-6.398437 12.296875-6.398437h56.203125l49.699219-25.5c4.300781-2.199219 9.398437-2.199219 13.699219 0l49.800781 25.5h56.097656c4.902344 0 9.402344 2.398437 12.203125 6.300781l31.898438 45.199219 49.699218 25.5c4.402344 2.300781 7.402344 6.597656 8 11.5l6.800782 54.398437 31.800781 45.101563c2.5 3.5 3.300781 7.898437 2.300781 12.097656-1 4.203125-3.703125 7.703125-7.5 9.800781l-241 128.5c-2.101562 1.300782-4.601562 1.902344-7 1.902344zm0 0" fill="#ff8d9d"/><g fill="#ff415b"><path d="m477.402344 170.203125-6.800782-54.402344c-.597656-4.898437-3.597656-9.199219-8-11.5l-49.597656-25.5-32-45.199219c-2.800781-4-7.402344-6.300781-12.203125-6.300781h-56.097656l-49.800781-25.5c-2.101563-1.097656-4.5-1.699219-6.800782-1.699219v367.402344c2.402344 0 4.902344-.601562 7.101563-1.800781l241-128.5c3.800781-2 6.5-5.601563 7.5-9.800781 1-4.199219.097656-8.601563-2.300781-12.101563zm0 0"/><path d="m46.503906 106.300781 209.5 246.300781-156.902344-273.800781-49.699218 25.5c-1.101563.601563-2 1.203125-2.898438 2zm0 0"/><path d="m138.402344 28.101562 117.601562 324.5-56.601562-325.300781h-56.199219c-1.699219 0-3.300781.300781-4.800781.800781zm0 0"/></g><path d="m256.003906 352.601562 56.597656-325.300781-49.800781-25.5c-2.097656-1.097656-4.5-1.699219-6.796875-1.699219zm0 0" fill="#c7001c"/><path d="m413.003906 78.800781-32-45.199219c-1.800781-2.597656-4.5-4.5-7.402344-5.5l-117.597656 324.5zm0 0" fill="#c7001c"/><path d="m477.402344 170.203125-6.800782-54.402344c-.5-3.796875-2.300781-7.199219-5.199218-9.597656l-209.398438 246.398437zm0 0" fill="#c7001c"/><path d="m256.003906 176.800781v193.703125c2.5 0 4.898438-.601562 7.199219-1.800781l113.699219-60.601563c5.5-2.898437 8.601562-8.800781 8-15-6.699219-65.398437-62-116.300781-128.898438-116.300781zm0 0" fill="#fff36e"/><path d="m34.601562 169.703125 166.902344 170.800781-193.601562-103.300781c-3.800782-2-6.5-5.601563-7.5-9.800781-1-4.199219-.101563-8.601563 2.300781-12.101563l31.800781-45.097656zm0 0" fill="#ff415b"/><path d="m256.003906 370.503906c-2.5 0-4.902344-.601562-7.203125-1.800781l-113.699219-60.601563c-5.5-2.898437-8.597656-8.800781-8-15 6.699219-65.5 62.101563-116.300781 128.800782-116.300781 66.898437 0 122.199218 50.800781 128.800781 116.300781.597656 6.199219-2.5 12.101563-8 15l-113.699219 60.601563c-2.101562 1.199219-4.5 1.800781-7 1.800781zm0 0" fill="#fffac5"/></svg>