<svg height="512pt" viewBox="0 0 512 512" width="512pt" xmlns="http://www.w3.org/2000/svg"><path d="m497 449.867188h-33.199219v-370.597657c0-8.285156-6.71875-15-15-15-8.285156 0-15 6.714844-15 15v370.597657h-355.601562v-370.597657c0-8.285156-6.714844-15-15-15-8.28125 0-15 6.714844-15 15v370.597657h-33.199219c-8.28125 0-15 6.714843-15 15 0 8.285156 6.71875 15 15 15h33.199219v17.132812c0 8.285156 6.71875 15 15 15 8.285156 0 15-6.714844 15-15v-17.132812h355.601562v17.132812c0 8.285156 6.714844 15 15 15 8.28125 0 15-6.714844 15-15v-17.132812h33.199219c8.28125 0 15-6.714844 15-15 0-8.285157-6.71875-15-15-15zm0 0" fill="#c7001c"/><path d="m497 449.867188h-33.199219v-370.597657c0-8.285156-6.71875-15-15-15-8.285156 0-15 6.714844-15 15v370.597657h-177.824219v30h177.824219v17.132812c0 8.285156 6.714844 15 15 15 8.28125 0 15-6.714844 15-15v-17.132812h33.199219c8.28125 0 15-6.714844 15-15 0-8.285157-6.71875-15-15-15zm0 0" fill="#a50017"/><path d="m464.867188 0h-417.734376c-26.03125 0-47.132812 21.101562-47.132812 47.132812s21.101562 47.132813 47.132812 47.132813h417.734376c26.03125 0 47.132812-21.101563 47.132812-47.132813s-21.101562-47.132812-47.132812-47.132812zm0 0" fill="#ff415b"/><path d="m464.867188 0h-208.890626v94.265625h208.890626c26.03125 0 47.132812-21.101563 47.132812-47.132813s-21.101562-47.132812-47.132812-47.132812zm0 0" fill="#c7001c"/><path d="m227.128906 161.796875c-3.839844 0-7.679687-1.464844-10.605468-4.394531l-157.402344-157.402344h42.425781l136.1875 136.1875c5.859375 5.859375 5.859375 15.355469 0 21.214844-2.929687 2.929687-6.765625 4.394531-10.605469 4.394531zm0 0" fill="#00347b"/><path d="m284.871094 161.796875c3.839844 0 7.679687-1.464844 10.605468-4.394531l157.402344-157.402344h-42.425781l-136.1875 136.1875c-5.859375 5.859375-5.859375 15.355469 0 21.214844 2.929687 2.929687 6.765625 4.394531 10.605469 4.394531zm0 0" fill="#001737"/><path d="m256 415.597656c-79.144531 0-143.53125-64.386718-143.53125-143.53125 0-79.144531 64.386719-143.53125 143.53125-143.53125s143.53125 64.386719 143.53125 143.53125c0 79.144532-64.386719 143.53125-143.53125 143.53125zm0 0" fill="#fff36e"/><path d="m256 128.53125c-.011719 0-.011719 0-.019531 0v287.070312h.019531c79.140625 0 143.53125-64.390624 143.53125-143.53125 0-79.148437-64.390625-143.539062-143.53125-143.539062zm0 0" fill="#ffcc01"/><path d="m256 320.265625c-26.578125 0-48.199219-21.621094-48.199219-48.199219s21.621094-48.199218 48.199219-48.199218 48.199219 21.621093 48.199219 48.199218-21.621094 48.199219-48.199219 48.199219zm0 0" fill="#ffcc01"/><path d="m256 223.871094c-.011719 0-.011719 0-.019531 0v96.398437h.019531c26.578125 0 48.199219-21.628906 48.199219-48.199219 0-26.582031-21.621094-48.199218-48.199219-48.199218zm0 0" fill="#e19600"/></svg>