<svg height="512pt" viewBox="0 -24 512 511" width="512pt" xmlns="http://www.w3.org/2000/svg"><path d="m384.53125 383.964844h-257.0625c-8.285156 0-15-6.714844-15-15v-273.128906c0-8.285157 6.714844-15 15-15h257.0625c8.285156 0 15 6.714843 15 15v273.128906c0 8.285156-6.714844 15-15 15zm0 0" fill="#ff8d9d"/><path d="m384.53125 80.835938h-128.53125v303.128906h128.53125c8.285156 0 15-6.714844 15-15v-273.128906c0-8.285157-6.714844-15-15-15zm0 0" fill="#ff415b"/><path d="m112.46875 319.699219h287.0625v30h-287.0625zm0 0" fill="#c7001c"/><path d="m112.46875 115.101562h287.0625v30h-287.0625zm0 0" fill="#c7001c"/><path d="m256 319.699219h143.53125v30h-143.53125zm0 0" fill="#a50017"/><path d="m256 115.101562h143.53125v30h-143.53125zm0 0" fill="#a50017"/><path d="m111.398438 94.769531h-80.332032c-8.285156 0-15-6.71875-15-15v-64.269531c0-8.28125 6.714844-15 15-15h80.332032c8.285156 0 15 6.71875 15 15v64.269531c0 8.28125-6.714844 15-15 15zm0 0" fill="#fff36e"/><path d="m111.398438 464.300781h-80.332032c-8.285156 0-15-6.71875-15-15v-64.269531c0-8.285156 6.714844-15 15-15h80.332032c8.285156 0 15 6.714844 15 15v64.269531c0 8.28125-6.714844 15-15 15zm0 0" fill="#fff36e"/><path d="m111.398438.5h-40.160157v94.269531h40.160157c8.289062 0 15-6.71875 15-15v-64.269531c0-8.28125-6.710938-15-15-15zm0 0" fill="#ffcc01"/><path d="m111.398438 370.03125h-40.160157v94.269531h40.160157c8.289062 0 15-6.722656 15-15v-64.269531c0-8.28125-6.710938-15-15-15zm0 0" fill="#ffcc01"/><path d="m127.46875 400.03125h-112.46875c-8.285156 0-15-6.714844-15-15v-305.261719c0-8.285156 6.714844-15 15-15h112.46875c8.28125 0 15 6.714844 15 15v305.261719c0 8.285156-6.71875 15-15 15zm0 0" fill="#c7001c"/><path d="m127.46875 64.769531h-56.230469v335.261719h56.230469c8.28125 0 15-6.714844 15-15v-305.261719c0-8.285156-6.71875-15-15-15zm0 0" fill="#a50017"/><path d="m480.933594 94.769531h-80.332032c-8.285156 0-15-6.71875-15-15v-64.269531c0-8.28125 6.714844-15 15-15h80.332032c8.285156 0 15 6.71875 15 15v64.269531c0 8.28125-6.714844 15-15 15zm0 0" fill="#fff36e"/><path d="m480.933594 464.300781h-80.332032c-8.285156 0-15-6.71875-15-15v-64.269531c0-8.285156 6.714844-15 15-15h80.332032c8.285156 0 15 6.714844 15 15v64.269531c0 8.28125-6.714844 15-15 15zm0 0" fill="#fff36e"/><path d="m480.929688.5h-40.160157v94.269531h40.160157c8.292968 0 15-6.71875 15-15v-64.269531c0-8.28125-6.707032-15-15-15zm0 0" fill="#ffcc01"/><path d="m480.929688 370.03125h-40.160157v94.269531h40.160157c8.292968 0 15-6.722656 15-15v-64.269531c0-8.28125-6.707032-15-15-15zm0 0" fill="#ffcc01"/><path d="m497 400.03125h-112.46875c-8.28125 0-15-6.714844-15-15v-305.261719c0-8.285156 6.71875-15 15-15h112.46875c8.285156 0 15 6.714844 15 15v305.261719c0 8.285156-6.714844 15-15 15zm0 0" fill="#c7001c"/><path d="m497 64.769531h-56.230469v335.261719h56.230469c8.285156 0 15-6.714844 15-15v-305.261719c0-8.285156-6.714844-15-15-15zm0 0" fill="#a50017"/></svg>