<svg height="512pt" viewBox="0 0 512 512.0005" width="512pt" xmlns="http://www.w3.org/2000/svg"><path d="m345.117188 188.78125c-7.242188-4.023438-9.851563-13.152344-5.828126-20.394531l80.332032-144.601563c4.023437-7.238281 13.15625-9.851562 20.394531-5.828125 7.242187 4.023438 9.851563 13.15625 5.828125 20.398438l-80.332031 144.597656c-4.03125 7.253906-13.167969 9.847656-20.394531 5.828125zm0 0" fill="#e19600"/><path d="m299.890625 190.039062c-7.933594-2.382812-12.4375-10.746093-10.058594-18.679687l48.203125-160.664063c2.378906-7.9375 10.738282-12.441406 18.675782-10.058593 7.933593 2.378906 12.4375 10.742187 10.054687 18.679687l-48.199219 160.664063c-2.464844 8.222656-11.023437 12.355469-18.675781 10.058593zm0 0" fill="#e19600"/><path d="m95.324219 271c-3.285157 0-6.597657-1.074219-9.363281-3.289062l-80.332032-64.261719c-6.46875-5.175781-7.515625-14.617188-2.339844-21.085938 5.171876-6.46875 14.613282-7.515625 21.082032-2.339843l80.332031 64.265624c6.46875 5.175782 7.519531 14.613282 2.34375 21.082032-2.960937 3.703125-7.324219 5.628906-11.722656 5.628906zm0 0" fill="#c3deff"/><path d="m416.675781 271c-4.398437 0-8.757812-1.925781-11.722656-5.628906-5.171875-6.46875-4.125-15.910156 2.34375-21.082032l80.332031-64.265624c6.46875-5.175782 15.910156-4.125 21.082032 2.339843 5.175781 6.46875 4.128906 15.910157-2.339844 21.082031l-80.332032 64.265626c-2.765624 2.214843-6.078124 3.289062-9.363281 3.289062zm0 0" fill="#aed3ff"/><path d="m429.621094 248.429688-.179688-.289063c-2.609375-4.238281-7.292968-7.140625-12.769531-7.140625h-321.339844c-5.53125 0-10.261719 2.96875-12.863281 7.289062-1.367188 2.269532-2.136719 4.921876-2.136719 7.710938 0 .960938.097657 1.949219.296875 2.941406l48.203125 241c1.398438 7.007813 7.546875 12.058594 14.699219 12.058594h224.9375c7.152344 0 13.300781-5.050781 14.703125-12.058594l48.199219-241c.199218-.992187.300781-1.972656.300781-2.941406 0-2.730469-.742187-5.320312-2.050781-7.570312zm0 0" fill="#edf6ff"/><path d="m429.441406 248.140625c-2.609375-4.238281-7.292968-7.140625-12.769531-7.140625h-160.671875v271h112.46875c7.152344 0 13.300781-5.050781 14.703125-12.058594l48.199219-241c.199218-.992187.300781-1.972656.300781-2.941406 0-2.730469-.742187-5.320312-2.050781-7.570312zm0 0" fill="#d5e9ff"/><g fill="#046eff"><path d="m304.199219 335.265625h-96.398438c-8.285156 0-15-6.714844-15-15 0-8.28125 6.714844-15 15-15h96.398438c8.285156 0 15 6.71875 15 15 0 8.285156-6.714844 15-15 15zm0 0"/><path d="m288.132812 391.5h-64.265624c-8.285157 0-15-6.714844-15-15s6.714843-15 15-15h64.265624c8.285157 0 15 6.714844 15 15s-6.714843 15-15 15zm0 0"/><path d="m304.199219 447.734375h-96.398438c-8.285156 0-15-6.71875-15-15 0-8.285156 6.714844-15 15-15h96.398438c8.285156 0 15 6.714844 15 15 0 8.28125-6.714844 15-15 15zm0 0"/></g><path d="m319.199219 320.269531c0 8.28125-6.71875 15-15 15h-48.199219v-30h48.199219c8.28125 0 15 6.710938 15 15zm0 0" fill="#0051bd"/><path d="m303.128906 376.5c0 8.28125-6.707031 15-15 15h-32.128906v-30h32.128906c8.292969 0 15 6.71875 15 15zm0 0" fill="#0051bd"/><path d="m319.199219 432.730469c0 8.289062-6.71875 15-15 15h-48.199219v-30h48.199219c8.28125 0 15 6.71875 15 15zm0 0" fill="#0051bd"/><path d="m429.53125 248.289062c-13.699219-22.847656-30.992188-51.667968-38.851562-64.738281-8.449219-14.109375-23.9375-22.878906-40.410157-22.878906h-188.539062c-16.46875 0-31.960938 8.769531-40.410157 22.878906-7.859374 13.070313-25.148437 41.890625-38.851562 64.738281-1.367188 2.269532-2.136719 4.921876-2.136719 7.710938h351.339844c0-2.789062-.773437-5.441406-2.140625-7.710938zm0 0" fill="#d5e9ff"/><path d="m350.269531 160.671875h-94.269531v95.328125h175.671875c0-2.789062-.773437-5.441406-2.140625-7.710938-13.699219-22.847656-30.992188-51.667968-38.851562-64.738281-8.449219-14.109375-23.9375-22.878906-40.410157-22.878906zm0 0" fill="#c3deff"/></svg>