<svg height="511pt" viewBox="-32 0 511 511.99951" width="511pt" xmlns="http://www.w3.org/2000/svg"><path d="m267.59375 166.324219c-7.816406-2.746094-11.925781-11.308594-9.179688-19.125l48.199219-137.167969c2.746094-7.816406 11.308594-11.925781 19.125-9.179688 7.816407 2.746094 11.925781 11.308594 9.179688 19.125l-48.199219 137.167969c-2.621094 7.460938-10.976562 12.042969-19.125 9.179688zm0 0" fill="#e19600"/><path d="m312.128906 189.574219c-6.773437-4.769531-8.398437-14.125-3.628906-20.902344l80.332031-114.101563c4.769531-6.773437 14.125-8.402343 20.902344-3.632812 6.773437 4.769531 8.398437 14.128906 3.628906 20.902344l-80.332031 114.105468c-4.933594 7.003907-14.355469 8.238282-20.902344 3.628907zm0 0" fill="#e19600"/><path d="m386.960938 335.265625h-325.1875c-3.023438 0-5.972657-.910156-8.464844-2.613281-13.78125-9.417969-20.917969-27.773438-17.765625-45.675782 2.082031-11.800781 8.425781-22.253906 17.140625-29.191406-2.214844-10.921875-.355469-23.007812 5.632812-33.382812 5.992188-10.375 15.535156-18.027344 26.097656-21.570313 1.65625-11.015625 7.53125-21.738281 16.699219-29.4375 9.179688-7.699219 20.789063-11.628906 31.902344-11.34375 5.320313-9.789062 14.511719-17.851562 25.769531-21.949219 11.253906-4.097656 23.480469-3.824218 33.851563.25 8.351562-7.378906 19.75-11.816406 31.726562-11.816406 11.980469 0 23.378907 4.4375 31.726563 11.8125 10.371094-4.070312 22.59375-4.34375 33.847656-.246094 11.253906 4.097657 20.445312 12.160157 25.769531 21.949219 11.136719-.289062 22.71875 3.640625 31.898438 11.339844 9.179687 7.703125 15.058593 18.425781 16.710937 29.445313 10.5625 3.542968 20.101563 11.195312 26.089844 21.566406 5.988281 10.375 7.847656 22.460937 5.632812 33.382812 8.710938 6.9375 15.058594 17.386719 17.148438 29.183594 3.152344 17.902344-3.984375 36.253906-17.757812 45.679688-2.496094 1.703124-5.445313 2.617187-8.46875 2.617187zm0 0" fill="#fffac5"/><path d="m396.039062 257.78125c2.214844-10.917969.355469-23.007812-5.632812-33.378906-5.988281-10.375-15.527344-18.023438-26.089844-21.566406-1.652344-11.019532-7.53125-21.746094-16.710937-29.445313-9.175781-7.699219-20.757813-11.628906-31.894531-11.339844-5.328126-9.789062-14.519532-17.855469-25.769532-21.949219-11.253906-4.097656-23.480468-3.824218-33.851562.246094-8.347656-7.375-19.742188-11.8125-31.722656-11.8125v206.730469h162.59375c3.023437 0 5.976562-.910156 8.46875-2.617187 13.773437-9.425782 20.910156-27.777344 17.757812-45.679688-2.085938-11.796875-8.4375-22.246094-17.148438-29.1875zm0 0" fill="#fff36e"/><path d="m256.5 512h-64.285156c-105.710938 0-191.714844-86.003906-191.714844-191.714844 0-8.285156 6.714844-15.019531 15-15.019531h417.730469c8.285156 0 15 6.71875 15 15 0 105.722656-86.007813 191.734375-191.730469 191.734375zm0 0" fill="#0051bd"/><g fill-rule="evenodd"><path d="m144.03125 256c0 8.285156-6.714844 15-15 15-8.28125 0-15-6.714844-15-15s6.71875-15 15-15c8.285156 0 15 6.714844 15 15zm0 0" fill="#fff36e"/><path d="m207.234375 208.867188c0 8.285156-6.71875 15-15 15-8.285156 0-15-6.714844-15-15 0-8.285157 6.714844-15 15-15 8.28125 0 15 6.714843 15 15zm0 0" fill="#fff36e"/><path d="m334.699219 272.066406c0 8.285156-6.714844 15-15 15-8.285157 0-15-6.714844-15-15 0-8.28125 6.714843-15 15-15 8.285156 0 15 6.71875 15 15zm0 0" fill="#ffcc01"/></g><path d="m224.367188 305.265625v206.734375h32.132812c105.722656 0 191.730469-86.011719 191.730469-191.734375 0-8.28125-6.714844-15-15-15zm0 0" fill="#00347b"/></svg>