<svg height="512pt" viewBox="0 0 512 512" width="512pt" xmlns="http://www.w3.org/2000/svg"><path d="m317.800781 222.597656c-8.171875-1.363281-13.691406-9.089844-12.328125-17.261718l32.132813-192.800782c1.359375-8.171875 9.089843-13.6875 17.261719-12.328125 8.171874 1.359375 13.691406 9.089844 12.328124 17.261719l-32.132812 192.796875c-.746094 4.472656-5.917969 14.222656-17.261719 12.332031zm0 0" fill="#e19600"/><path d="m361.757812 205.152344c-7.410156-3.707032-10.414062-12.714844-6.707031-20.125l64.265625-128.535156c3.707032-7.410157 12.71875-10.410157 20.125-6.707032 7.410156 3.703125 10.414063 12.714844 6.707032 20.125l-64.265626 128.53125c-3.710937 7.421875-12.726562 10.410156-20.125 6.710938zm0 0" fill="#e19600"/><path d="m464.867188 303.136719h-128.535157c-8.28125 0-15-6.71875-15-15 0-25.175781-7.238281-49.59375-20.9375-70.621094-4.402343-6.757813-2.671875-15.789063 3.917969-20.441406 18.855469-13.304688 41.039062-20.339844 64.152344-20.339844 61.425781 0 111.402344 49.976563 111.402344 111.402344 0 8.28125-6.71875 15-15 15zm0 0" fill="#ffcc01"/><path d="m445.214844 303.136719c.941406-4.859375 1.449218-9.871094 1.449218-15 0-43.191407-35.007812-78.203125-78.199218-78.203125-23.085938 0-43.832032 10.011718-58.148438 25.925781 6.089844 13.789063 9.730469 28.550781 10.722656 43.710937 4.042969-22.53125 23.730469-39.632812 47.425782-39.632812 26.621094 0 48.199218 21.578125 48.199218 48.199219 0 5.238281-.84375 10.277343-2.390624 15zm0 0" fill="#fff36e"/><path d="m351.328125 288.132812c0 8.289063-6.707031 15-15 15h-289.199219c-8.28125 0-15-6.710937-15-15 0-88 71.601563-159.601562 159.601563-159.601562 88.007812 0 159.597656 71.601562 159.597656 159.601562zm0 0" fill="#fffac5"/><g fill="#fff36e"><path d="m256 142.058594v161.074218h80.328125c8.292969 0 15-6.710937 15-15 0-65.148437-39.238281-121.300781-95.328125-146.074218zm0 0"/><path d="m254.222656 303.132812c1.152344-4.816406 1.777344-9.835937 1.777344-15 0-35.496093-28.773438-64.273437-64.269531-64.273437-35.496094 0-64.269531 28.777344-64.269531 64.273437 0 5.164063.625 10.183594 1.777343 15h31.671875c-2.207031-4.53125-3.449218-9.621093-3.449218-15 0-18.929687 15.34375-34.273437 34.269531-34.273437s34.269531 15.34375 34.269531 34.273437c0 5.378907-1.242188 10.46875-3.453125 15zm0 0"/><path d="m191.730469 161.195312c-70.105469 0-126.9375 56.832032-126.9375 126.9375 0 5.074219.308593 10.078126.886719 15h30.269531c-.761719-4.890624-1.15625-9.898437-1.15625-15 0-53.539062 43.398437-96.9375 96.933593-96.9375 53.539063 0 96.9375 43.398438 96.9375 96.9375 0 5.101563-.398437 10.109376-1.15625 15h30.269532c.578125-4.921874.886718-9.925781.886718-15 0-70.105468-56.828124-126.9375-126.933593-126.9375zm0 0"/></g><path d="m256 178.65625v36.917969c20.035156 17.757812 32.664062 43.679687 32.664062 72.558593 0 5.101563-.394531 10.109376-1.15625 15h30.269532c.582031-4.921874.886718-9.925781.886718-15 0-46.652343-25.167968-87.414062-62.664062-109.476562zm0 0" fill="#ffcc01"/><path d="m288.132812 512h-64.265624c-123.664063 0-223.867188-100.054688-223.867188-223.863281 0-8.285157 6.714844-15 15-15h482c8.285156 0 15 6.714843 15 15 0 123.652343-100.054688 223.863281-223.867188 223.863281zm0 0" fill="#c7001c"/><path d="m512 288.136719c0-8.285157-6.714844-15-15-15h-241v238.863281h32.132812c123.8125 0 223.867188-100.210938 223.867188-223.863281zm0 0" fill="#a50017"/></svg>