<svg height="512pt" viewBox="0 0 512 512" width="512pt" xmlns="http://www.w3.org/2000/svg"><path d="m384.53125 287.066406c-25.996094 0-47.132812-21.136718-47.132812-47.117187v-16.082031c0-8.285157 6.71875-15 15-15h64.265624c8.285157 0 15 6.714843 15 15v16.066406c0 12.585937-4.902343 24.421875-13.808593 33.324218-8.886719 8.902344-20.726563 13.808594-33.324219 13.808594zm0 0" fill="#fff36e"/><path d="m416.664062 208.871094h-32.132812v78.199218c12.601562 0 24.441406-4.910156 33.320312-13.808593 8.910157-8.910157 13.8125-20.742188 13.8125-33.332031v-16.058594c0-8.292969-6.710937-15-15-15zm0 0" fill="#ffcc01"/><path d="m464.867188 367.398438h-160.667969c-8.285157 0-15-6.714844-15-15 0-52.566407 42.769531-95.332032 95.332031-95.332032 52.566406 0 95.335938 42.765625 95.335938 95.332032 0 8.285156-6.71875 15-15 15zm0 0" fill="#fffac5"/><path d="m384.53125 257.070312v110.328126h80.332031c8.289063 0 15-6.71875 15-15 0-52.570313-42.761719-95.328126-95.332031-95.328126zm0 0" fill="#fff36e"/><path d="m127.46875 287.066406c-25.996094 0-47.132812-21.136718-47.132812-47.117187v-16.082031c0-8.285157 6.714843-15 15-15h64.265624c8.285157 0 15 6.714843 15 15v16.066406c0 12.585937-4.90625 24.421875-13.808593 33.324218-8.890625 8.902344-20.726563 13.808594-33.324219 13.808594zm0 0" fill="#fff36e"/><path d="m159.597656 208.871094h-32.128906v78.199218c12.597656 0 24.4375-4.910156 33.320312-13.808593 8.910157-8.910157 13.808594-20.742188 13.808594-33.332031v-16.058594c0-8.292969-6.710937-15-15-15zm0 0" fill="#ffcc01"/><path d="m207.800781 367.398438h-160.664062c-8.285157 0-15-6.714844-15-15 0-52.566407 42.765625-95.332032 95.332031-95.332032s95.332031 42.765625 95.332031 95.332032c0 8.285156-6.714843 15-15 15zm0 0" fill="#fffac5"/><path d="m127.46875 257.070312v110.328126h80.328125c8.292969 0 15-6.71875 15-15 0-52.570313-42.757813-95.328126-95.328125-95.328126zm0 0" fill="#fff36e"/><path d="m256 287.066406c-25.996094 0-47.132812-21.136718-47.132812-47.117187v-16.082031c0-8.285157 6.714843-15 15-15h64.265624c8.285157 0 15 6.714843 15 15v16.066406c0 12.585937-4.902343 24.421875-13.808593 33.324218-8.886719 8.902344-20.726563 13.808594-33.324219 13.808594zm0 0" fill="#fff36e"/><path d="m288.128906 208.871094h-32.128906v78.199218c12.601562 0 24.441406-4.910156 33.320312-13.808593 8.910157-8.910157 13.808594-20.742188 13.808594-33.332031v-16.058594c0-8.292969-6.707031-15-15-15zm0 0" fill="#ffcc01"/><path d="m400.597656 511.996094h-289.199218c-61.425782 0-111.398438-49.972656-111.398438-111.398438 0-8.28125 6.714844-15 15-15h482c8.28125 0 15 6.71875 15 15 0 61.425782-49.976562 111.398438-111.402344 111.398438zm0 0" fill="#00347b"/><path d="m497 385.601562h-241v126.398438h144.601562c61.429688 0 111.398438-49.980469 111.398438-111.398438 0-8.292968-6.71875-15-15-15zm0 0" fill="#001737"/><path d="m247.074219 171.65625c-6.65625-4.929688-8.058594-14.324219-3.128907-20.980469l6.40625-8.652343c10.039063-13.554688 8.15625-32.289063-4.386718-43.574219-24.09375-21.683594-27.714844-57.683594-8.421875-83.730469 3.765625-5.09375 6.414062-8.660156 6.414062-8.660156 4.9375-6.652344 14.335938-8.039063 20.984375-3.101563 6.652344 4.941407 8.039063 14.335938 3.101563 20.984375-.003907.007813-2.640625 3.554688-6.382813 8.621094-10.050781 13.566406-8.167968 32.300781 4.375 43.585938 24.09375 21.683593 27.714844 57.683593 8.421875 83.734374l-6.402343 8.644532c-5.121094 6.917968-14.574219 7.871094-20.980469 3.128906zm0 0" fill="#edf6ff"/><path d="m342.0625 170.46875c-6.003906-5.710938-6.242188-15.207031-.53125-21.207031l5.09375-5.351563c3.765625-3.953125 5.613281-9.332031 5.070312-14.761718-.746093-7.496094-5.214843-11.5-8.21875-13.722657-24.144531-17.179687-27.476562-51.8125-7.035156-73.292969l5.109375-5.359374c5.71875-5.992188 15.214844-6.210938 21.207031-.492188 5.992188 5.71875 6.210938 15.214844.492188 21.207031l-5.082031 5.332031c-5.488281 5.769532-9.335938 19.207032 3.140625 28.476563 24.148437 17.164063 27.503906 51.820313 7.039062 73.304687l-5.078125 5.335938c-3.4375 3.613281-13.171875 8.175781-21.207031.53125zm0 0" fill="#d5e9ff"/><path d="m149.261719 170.46875c-6-5.710938-6.238281-15.207031-.527344-21.207031l5.089844-5.351563c3.769531-3.953125 5.613281-9.332031 5.070312-14.761718-.746093-7.496094-5.210937-11.5-8.214843-13.722657-24.144532-17.179687-27.476563-51.8125-7.039063-73.292969l5.109375-5.359374c5.722656-5.992188 15.214844-6.210938 21.207031-.492188 5.992188 5.71875 6.214844 15.214844.492188 21.207031l-5.082031 5.332031c-5.488282 5.769532-9.332032 19.207032 3.140624 28.476563 24.148438 17.164063 27.503907 51.820313 7.039063 73.304687l-5.078125 5.335938c-3.4375 3.613281-13.171875 8.175781-21.207031.53125zm0 0" fill="#edf6ff"/><path d="m336.332031 367.398438h-160.664062c-8.285157 0-15-6.714844-15-15 0-52.566407 42.765625-95.332032 95.332031-95.332032s95.332031 42.765625 95.332031 95.332032c0 8.285156-6.714843 15-15 15zm0 0" fill="#fffac5"/><path d="m256 257.070312v110.328126h80.328125c8.292969 0 15-6.71875 15-15 .003906-52.570313-42.757813-95.328126-95.328125-95.328126zm0 0" fill="#fff36e"/><path d="m497 415.597656h-482c-8.285156 0-15-6.714844-15-15v-48.199218c0-8.285157 6.714844-15 15-15h482c8.28125 0 15 6.714843 15 15v48.199218c0 8.285156-6.71875 15-15 15zm0 0" fill="#0051bd"/><path d="m497 337.398438h-241v78.203124h241c8.28125 0 15-6.722656 15-15v-48.203124c0-8.277344-6.71875-15-15-15zm0 0" fill="#00347b"/></svg>