<svg height="511pt" viewBox="0 -64 511.99971 511" width="511pt" xmlns="http://www.w3.org/2000/svg"><path d="m408.632812 319.699219h-8.03125c-8.285156 0-15-6.71875-15-15 0-8.285157 6.714844-15 15-15h8.03125c40.453126 0 73.367188-32.914063 73.367188-73.367188v-32.132812c0-11.011719-4.292969-21.367188-12.082031-29.160157-7.671875-7.675781-18.292969-12.074218-29.152344-12.074218-6.730469 0-13.046875 2.617187-17.796875 7.367187-4.753906 4.75-7.367188 11.0625-7.367188 17.785157 0 8.28125-6.71875 15.007812-15 15.007812-8.285156 0-15-6.710938-15-14.992188v-.015624c0-14.742188 5.738282-28.59375 16.15625-39.003907 10.414063-10.410156 24.265626-16.148437 38.992188-16.148437 19.050781 0 36.9375 7.410156 50.382812 20.867187 13.453126 13.453125 20.867188 31.34375 20.867188 50.367188v32.132812c0 56.996094-46.371094 103.367188-103.367188 103.367188zm0 0" fill="#001737"/><path d="m141.089844 190.300781c-.003906 0-37.539063-18.769531-37.539063-18.769531-7.753906-3.871094-13.53125-10.53125-16.273437-18.765625l-9.847656-29.542969c-2.039063-6.125-7.773438-10.257812-14.230469-10.257812h-48.199219c-5.199219 0-10.027344 2.691406-12.761719 7.113281-2.730469 4.421875-2.980469 9.941406-.65625 14.59375 15.753907 31.515625 14.484375 58.671875 14.484375 69.03125 0 64.167969 51.9375 115.992187 115.996094 115.992187 8.28125 0 15-6.714843 15-15v-102.175781c0-7.253906-3.648438-10.96875-5.972656-12.21875zm0 0" fill="#046eff"/><path d="m385.832031 134.289062c-7.5-5.625-14.398437-10.800781-18.941406-14.207031-3.894531-31.136719-30.511719-55.316406-62.691406-55.316406h-80.332031c-32.179688 0-58.796876 24.179687-62.691407 55.316406-4.542969 3.40625-11.441406 8.582031-18.9375 14.207031-28.703125 21.523438-45.839843 55.792969-45.839843 91.683594 0 87.402344 70.722656 157.992188 157.996093 157.992188h19.277344c87.402344 0 157.992187-70.75 157.992187-157.992188v-.007812c0-35.875-17.132812-70.148438-45.832031-91.675782zm0 0" fill="#0051bd"/><path d="m385.832031 134.289062c-7.5-5.625-14.398437-10.800781-18.941406-14.207031-3.894531-31.136719-30.511719-55.316406-62.691406-55.316406h-40.167969v319.199219h9.640625c87.402344 0 157.992187-70.75 157.992187-157.992188v-.007812c0-35.875-17.132812-70.148438-45.832031-91.675782zm0 0" fill="#00347b"/><path d="m366.890625 120.097656c-3.886719-31.144531-30.507813-55.332031-62.691406-55.332031h-80.332031c-32.183594 0-58.804688 24.1875-62.695313 55.332031zm0 0" fill="#00347b"/><path d="m264.03125 64.765625v55.332031h102.859375c-3.886719-31.144531-30.507813-55.332031-62.691406-55.332031zm0 0" fill="#001737"/><path d="m264.03125 64.765625c-17.714844 0-32.132812-14.414063-32.132812-32.132813s14.417968-32.132812 32.132812-32.132812c17.71875 0 32.132812 14.414062 32.132812 32.132812s-14.414062 32.132813-32.132812 32.132813zm0 0" fill="#046eff"/><path d="m296.164062 32.632812c0-17.71875-14.414062-32.132812-32.132812-32.132812v64.265625c17.71875 0 32.132812-14.414063 32.132812-32.132813zm0 0" fill="#0051bd"/></svg>