<svg height="512pt" viewBox="0 0 512 512" width="512pt" xmlns="http://www.w3.org/2000/svg"><path d="m416.664062 512h-321.332031c-8.28125 0-15-6.714844-15-15 0-46.929688 18.273438-91.039062 51.445313-124.21875 21.519531-21.511719 47.972656-36.921875 77.089844-45.011719h94.265624c29.121094 8.089844 55.570313 23.5 77.078126 45.007813 33.179687 33.179687 51.453124 77.289062 51.453124 124.207031 0 8.285156-6.714843 15.015625-15 15.015625zm-192.796874-172.421875h.007812zm0 0" fill="#ff8d9d"/><path d="m303.132812 327.769531h-47.132812v184.230469h160.664062c8.285157 0 15-6.730469 15-15.015625 0-46.917969-18.273437-91.023437-51.453124-124.207031-21.507813-21.507813-47.957032-36.917969-77.078126-45.007813zm0 0" fill="#ff415b"/><path d="m256 463.800781c-3.839844 0-7.679688-1.464843-10.605469-4.394531l-96.398437-96.398438c-5.859375-5.859374-5.859375-15.355468 0-21.214843 5.855468-5.855469 15.351562-5.855469 21.210937 0l96.398438 96.398437c5.859375 5.859375 5.859375 15.355469 0 21.214844-2.929688 2.929688-6.765625 4.394531-10.605469 4.394531zm0 0" fill="#ff415b"/><path d="m171.429688 512 170.363281-170.207031c5.855469-5.855469 15.355469-5.855469 21.210937 0 5.859375 5.859375 5.859375 15.355469 0 21.214843l-148.992187 148.992188zm0 0" fill="#c7001c"/><path d="m340.570312 343.011719-84.570312 84.570312-84.570312-84.570312c11.800781-6.492188 24.351562-11.601563 37.441406-15.242188h94.257812c13.089844 3.640625 25.640625 8.75 37.441406 15.242188zm0 0" fill="#edf6ff"/><path d="m363.007812 363.011719-107.007812 107v-42.511719l85.789062-85.710938c5.859376-5.859374 15.359376-5.859374 21.21875 0 5.851563 5.863282 5.851563 15.363282 0 21.222657zm0 0" fill="#a50017"/><path d="m256 327.769531v99.8125l84.570312-84.570312c-11.800781-6.492188-24.351562-11.601563-37.441406-15.242188zm0 0" fill="#d5e9ff"/><path d="m303.132812 327.769531c0-.023437-.003906-.042969-.003906-.066406v-29.011719c0-10.355468-10.261718-17.597656-20-14.140625-8.730468 3.082031-17.847656 4.652344-27.148437 4.652344-9.261719 0-18.382813-1.570313-27.109375-4.652344-9.722656-3.449219-20 3.765625-20 14.140625v29.011719c0 .023437-.003906.042969-.003906.066406 0 .042969.003906.085938.007812.128907.070312 25.96875 21.140625 47 47.125 47 25.988281 0 47.054688-21.03125 47.128906-47-.003906-.042969.003906-.085938.003906-.128907zm0 0" fill="#f0cfa3"/><path d="m303.128906 298.691406v29.210938c-.070312 25.96875-21.140625 47-47.128906 47v-85.703125c9.289062 0 18.410156-1.566407 27.128906-4.648438 9.742188-3.460937 20 3.78125 20 14.140625zm0 0" fill="#f0b986"/><path d="m256 319.199219c-61.527344 0-111.398438-49.769531-111.398438-111.398438v-16.066406c0-8.28125 6.714844-15 15-15h192.796876c8.285156 0 15 6.71875 15 15v16.066406c0 61.507813-49.765626 111.398438-111.398438 111.398438zm0 0" fill="#ffe2c0"/><path d="m352.398438 176.734375h-96.398438v142.464844c61.632812 0 111.398438-49.890625 111.398438-111.398438v-16.066406c0-8.285156-6.714844-15-15-15zm0 0" fill="#f0cfa3"/><path d="m497 206.734375h-482c-6.484375 0-12.238281-4.171875-14.253906-10.335937-2.019532-6.164063.152344-12.925782 5.382812-16.761719l241-176.734375c5.28125-3.871094 12.460938-3.871094 17.742188 0l241 176.734375c5.226562 3.835937 7.402344 10.597656 5.382812 16.761719-2.015625 6.164062-7.769531 10.335937-14.253906 10.335937zm0 0" fill="#fffac5"/><path d="m505.871094 179.640625-241-176.730469c-2.640625-1.941406-5.75-2.910156-8.871094-2.910156v206.730469h241c6.480469 0 12.242188-4.171875 14.25-10.332031 2.019531-6.160157-.148438-12.929688-5.378906-16.757813zm0 0" fill="#fff36e"/><path d="m384.53125 206.730469h-257.066406c-12.230469 0-19.332032-13.917969-12.128906-23.820313l128.53125-176.734375c2.824218-3.878906 7.332031-6.175781 12.132812-6.175781 4.796875 0 9.308594 2.296875 12.128906 6.175781l128.535156 176.734375c7.195313 9.894532.113282 23.820313-12.132812 23.820313zm0 0" fill="#fff36e"/><path d="m384.53125 206.730469c12.246094 0 19.328125-13.925781 12.132812-23.820313l-128.535156-176.734375c-2.820312-3.878906-7.332031-6.175781-12.128906-6.175781v206.730469zm0 0" fill="#ffcc01"/></svg>