<svg height="512pt" viewBox="-64 0 512 512.00013" width="512pt" xmlns="http://www.w3.org/2000/svg"><path d="m271.003906 351.332031c0 43.777344-35.492187 79.269531-79.269531 79.269531-43.78125 0-79.269531-35.492187-79.269531-79.269531 0-3.941406.199218-21.402343 4.398437-25.601562l27.738281-27.742188v-25.917969c0-8.289062 6.710938-15 15-15h64.261719c8.289063 0 15 6.710938 15 15v25.917969l27.738281 27.742188c4.203126 4.199219 4.402344 21.660156 4.402344 25.601562zm0 0" fill="#f0cfa3"/><path d="m238.863281 297.988281v-25.917969c0-8.289062-6.710937-15-15-15h-32.128906v173.53125c43.777344 0 79.269531-35.492187 79.269531-79.269531 0-3.941406-.199218-21.402343-4.402344-25.601562zm0 0" fill="#f0b986"/><path d="m352.398438 512h-64.265626c-3.980468 0-7.792968-1.582031-10.605468-4.394531l-96.398438-96.398438c-5.859375-5.859375-5.859375-15.355469 0-21.214843l80.332032-80.332032c6.265624-6.269531 16.515624-5.734375 22.128906 1.003906l28.902344 34.6875c35.410156 42.496094 54.90625 96.351563 54.90625 151.648438 0 8.28125-6.714844 15-15 15zm0 0" fill="#a50017"/><path d="m191.734375 287.066406c-61.425781 0-111.398437-49.972656-111.398437-111.398437v-32.148438c0-61.417969 49.964843-111.382812 111.382812-111.382812 61.441406 0 111.414062 49.972656 111.414062 111.398437v32.132813c0 61.425781-49.972656 111.398437-111.398437 111.398437zm0 0" fill="#ffe2c0"/><path d="m191.734375 32.132812v254.933594c61.425781 0 111.398437-49.972656 111.398437-111.398437v-32.132813c0-61.421875-49.964843-111.390625-111.398437-111.402344zm0 0" fill="#f0cfa3"/><path d="m296.449219 39.371094c5.855469-5.859375 5.855469-15.355469-.003907-21.210938l-13.777343-13.769531c-5.859375-5.855469-15.359375-5.851563-21.214844.003906-5.855469 5.863281-5.851563 15.359375.007813 21.214844l13.777343 13.769531c5.859375 5.855469 15.355469 5.851563 21.210938-.007812zm0 0" fill="#c7001c"/><path d="m344.085938 87.023438c-5.855469 5.859374-5.855469 15.355468 0 21.214843l13.769531 13.769531c5.859375 5.855469 15.355469 5.855469 21.214843 0 5.855469-5.859374 5.855469-15.355468 0-21.214843l-13.769531-13.769531c-5.859375-5.859376-15.355469-5.855469-21.214843 0zm0 0" fill="#c7001c"/><path d="m257.0625 63.199219c0-34.847657 28.351562-63.199219 63.203125-63.199219 34.847656 0 63.199219 28.351562 63.199219 63.199219 0 34.851562-28.351563 63.199219-63.199219 63.199219-34.851563 0-63.203125-28.351563-63.203125-63.199219zm0 0" fill="#001737"/><path d="m87.015625 39.371094c-5.859375-5.859375-5.855469-15.355469.003906-21.210938l13.777344-13.769531c5.859375-5.855469 15.355469-5.851563 21.214844.003906 5.855469 5.863281 5.851562 15.359375-.007813 21.214844l-13.777344 13.769531c-5.859374 5.855469-15.355468 5.851563-21.210937-.007812zm0 0" fill="#ff415b"/><path d="m39.378906 87.023438c5.855469 5.859374 5.855469 15.355468 0 21.214843l-13.769531 13.769531c-5.859375 5.855469-15.355469 5.855469-21.214844 0-5.859375-5.859374-5.859375-15.355468 0-21.214843l13.769531-13.769531c5.859376-5.859376 15.355469-5.855469 21.214844 0zm0 0" fill="#ff415b"/><path d="m126.398438 63.199219c0-34.847657-28.347657-63.199219-63.199219-63.199219-34.847657 0-63.199219 28.351562-63.199219 63.199219 0 34.851562 28.351562 63.199219 63.199219 63.199219 34.851562 0 63.199219-28.351563 63.199219-63.199219zm0 0" fill="#00347b"/><path d="m191.734375 143.535156c-3.980469 0-7.792969-1.582031-10.605469-4.394531l-11.535156-11.53125c-2.894531-2.894531-7.777344-2.101563-9.609375 1.558594l-3.035156 6.074219c-2.539063 5.082031-7.734375 8.292968-13.417969 8.292968h-63.195312c0-61.425781 49.972656-111.398437 111.398437-111.398437 61.421875 0 111.398437 49.972656 111.398437 111.398437zm0 0" fill="#0051bd"/><path d="m191.734375 32.132812v111.398438h111.398437c0-61.421875-49.972656-111.398438-111.398437-111.398438zm0 0" fill="#00347b"/><path d="m31.066406 512c-8.285156 0-15-6.71875-15-15 0-55.304688 19.496094-109.160156 54.898438-151.648438l28.914062-34.6875c5.667969-6.804687 15.925782-7.207031 22.128906-1.003906l202.339844 202.339844zm0 0" fill="#ff415b"/><path d="m191.734375 512h132.613281l-132.613281-132.613281zm0 0" fill="#c7001c"/></svg>