<svg height="512pt" viewBox="-48 0 512 512" width="512pt" xmlns="http://www.w3.org/2000/svg"><path d="m207.800781 454.441406c61.539063 0 111.429688-49.890625 111.429688-111.429687 0-.042969 0-.085938 0-.128907-.011719-7.914062-4.664063-15.09375-11.789063-18.539062-11.507812-5.566406-23.695312-10.03125-36.441406-13.242188v-35.597656c0-4.105468-1.535156-8.121094-4.476562-10.984375-4.960938-4.828125-12.308594-5.589843-18.023438-2.292969-12.359375 7.132813-26.433594 10.90625-40.699219 10.90625-14.199219 0-28.203125-3.734374-40.519531-10.800781-3.503906-2.011719-7.679688-2.679687-11.578125-1.609375-6.71875 1.847656-11.101563 7.859375-11.101563 14.496094v35.878906c-12.746093 3.207032-24.933593 7.671875-36.445312 13.238282-7.125 3.445312-11.773438 10.621093-11.785156 18.535156v.140625c0 61.539062 49.886718 111.429687 111.429687 111.429687zm0 0" fill="#f0cfa3"/><path d="m307.441406 324.34375c-11.507812-5.566406-23.695312-10.03125-36.441406-13.242188v-35.597656c0-4.105468-1.535156-8.121094-4.476562-10.984375-4.960938-4.828125-12.308594-5.589843-18.023438-2.292969-12.347656 7.128907-26.40625 10.898438-40.664062 10.90625v181.304688c61.523437-.019531 111.394531-49.898438 111.394531-111.425781 0-.046875 0-.089844 0-.132813-.011719-7.910156-4.664063-15.089844-11.789063-18.535156zm0 0" fill="#f0b986"/><path d="m324.011719 512h-309.011719c-8.28125 0-15-6.71875-15-15 0-95.117188 64.324219-154.402344 116.058594-176.269531 1.902344-.800781 5.207031-2.300781 9.023437-2.300781 3.191407 0 6.738281 1.046874 10.117188 4.421874zm0 0" fill="#fff36e"/><path d="m207.800781 303.132812c-61.523437 0-111.402343-49.773437-111.402343-111.398437v-80.335937c0-8.28125 6.71875-15 15-15h192.800781c8.285156 0 15 6.71875 15 15v80.335937c0 61.527344-49.78125 111.398437-111.398438 111.398437zm0 0" fill="#ffe2c0"/><path d="m159.601562 479.867188c-3.839843 0-7.679687-1.464844-10.609374-4.394532l-32.132813-32.132812c-5.855469-5.859375-5.855469-15.355469 0-21.210938 5.859375-5.859375 15.355469-5.859375 21.214844 0l32.132812 32.132813c5.855469 5.855469 5.855469 15.351562 0 21.210937-2.929687 2.929688-6.769531 4.394532-10.605469 4.394532zm0 0" fill="#fffac5"/><path d="m96.371094 303.125c-8.285156 0-15-6.707031-15-14.992188 0-29.765624 11.585937-57.738281 32.621094-78.777343 21.039062-21.035157 49.011718-32.621094 78.761718-32.621094 8.285156 0 15.007813 6.714844 15.007813 15 0 8.28125-6.707031 15-14.992188 15h-.015625c-21.738281 0-42.175781 8.464844-57.546875 23.835937-15.371093 15.371094-23.835937 35.808594-23.835937 57.546876 0 8.285156-6.714844 15.007812-15 15.007812zm0 0" fill="#edf6ff"/><path d="m304.199219 96.398438h-96.363281v206.734374c61.601562-.019531 111.363281-49.886718 111.363281-111.398437v-80.335937c0-8.28125-6.714844-15-15-15zm0 0" fill="#f0cfa3"/><path d="m319.230469 303.125c-8.285157 0-15-6.707031-15-14.992188 0-21.753906-8.464844-42.191406-23.835938-57.5625-15.371093-15.371093-35.808593-23.835937-57.546875-23.835937-8.285156 0-15.011718-6.714844-15.011718-15s6.710937-15 14.992187-15h.019531c29.75 0 57.722656 11.585937 78.757813 32.625 21.039062 21.035156 32.625 49.007813 32.625 78.757813 0 8.285156-6.714844 15.007812-15 15.007812zm0 0" fill="#d5e9ff"/><path d="m207.800781 0c-61.425781 0-111.402343 49.972656-111.402343 111.398438v15h222.800781v-15c0-61.425782-49.972657-111.398438-111.398438-111.398438zm0 0" fill="#ff415b"/><path d="m207.835938 126.398438h111.363281v-15c0-61.414063-49.953125-111.3789068-111.363281-111.398438zm0 0" fill="#c7001c"/><path d="m236.238281 32.421875c-3.925781-12.109375-12.835937-32.421875-28.4375-32.421875-15.601562 0-24.515625 20.3125-28.4375 32.421875-5.609375 17.300781-8.699219 40.019531-8.699219 63.976563v30h74.269532v-30c0-23.957032-3.085938-46.675782-8.695313-63.976563zm0 0" fill="#ff8d9d"/><path d="m207.835938.00390625v126.39453175h37.097656v-30c0-23.953126-3.089844-46.675782-8.695313-63.976563-3.921875-12.101563-12.824219-32.3867188-28.402343-32.41796875zm0 0" fill="#ff415b"/><path d="m91.589844 512h309.011718c8.277344 0 15-6.71875 15-15 0-95.117188-64.324218-154.402344-116.058593-176.269531-1.902344-.800781-5.207031-2.300781-9.027344-2.300781-3.1875 0-6.734375 1.046874-10.117187 4.421874zm0 0" fill="#ffcc01"/><path d="m299.542969 320.730469c-1.902344-.800781-5.207031-2.300781-9.027344-2.300781-3.1875 0-6.734375 1.046874-10.117187 4.421874l-72.5625 72.691407v116.457031h192.765624c8.277344 0 15-6.71875 15-15 0-95.117188-64.324218-154.402344-116.058593-176.269531zm0 0" fill="#e19600"/><path d="m318.921875 422.128906c-5.855469-5.859375-15.355469-5.859375-21.210937 0l-89.875 89.871094h42.425781l68.660156-68.660156c5.859375-5.859375 5.859375-15.355469 0-21.210938zm0 0" fill="#ffcc01"/><path d="m94.480469 111.65625v15.257812h226.636719v-15.257812c0-5.171875-.355469-10.265625-1.027344-15.257812h-224.578125c-.675781 4.996093-1.03125 10.085937-1.03125 15.257812zm0 0" fill="#fff36e"/><path d="m207.839844 96.398438v30.519531h113.277344v-15.257813c0-5.175781-.355469-10.265625-1.027344-15.257812h-112.25zm0 0" fill="#ffcc01"/><path d="m207.800781 343.011719c-8.285156 0-15-6.714844-15-15v-88.078125c0-8.285156 6.714844-15 15-15 8.285157 0 15 6.714844 15 15v88.078125c0 8.285156-6.714843 15-15 15zm0 0" fill="#edf6ff"/><path d="m207.835938 224.933594v118.078125c8.269531-.023438 14.964843-6.730469 14.964843-15v-88.078125c0-8.273438-6.695312-14.980469-14.964843-15zm0 0" fill="#d5e9ff"/></svg>