<svg height="512pt" viewBox="0 0 512 512" width="512pt" xmlns="http://www.w3.org/2000/svg"><path d="m443.3125 133.308594-75.914062-46.386719v-71.921875c0-8.285156-6.714844-15-15-15h-17.132813c-43.707031 0-79.265625 35.558594-79.265625 79.265625 0-43.707031-35.558594-79.265625-79.265625-79.265625h-17.132813c-8.285156 0-15 6.714844-15 15v71.921875l-75.914062 46.386719c-60.90625 37.222656-68.6875 98.804687-68.6875 122.476562v241.210938c0 8.285156 6.714844 15 15 15h482c8.285156 0 15-6.714844 15-15v-241.210938c0-23.667968-7.78125-85.253906-68.6875-122.476562zm0 0" fill="#ff415b"/><path d="m497 512c8.285156 0 15-6.71875 15-15v-241.214844c0-23.667968-7.78125-85.253906-68.6875-122.476562l-75.914062-46.386719v-71.921875c0-8.285156-6.714844-15-15-15h-17.132813c-43.707031 0-79.265625 35.558594-79.265625 79.265625v432.730469h241zm0 0" fill="#c7001c"/><path d="m111.398438 512v-239.933594c0-8.285156-6.714844-15-15-15-8.28125 0-15 6.714844-15 15v239.933594zm0 0" fill="#c7001c"/><path d="m446.667969 512v-239.933594c0-8.285156-6.71875-15-15-15-8.285157 0-15 6.714844-15 15v239.933594zm0 0" fill="#a50017"/><path d="m416.488281 116.921875-49.089843-30h-222.796876l-49.09375 30h160.492188l-5.238281 2.617187c-18.023438 9.011719-61.578125 39.421876-61.578125 99.640626v292.820312h30v-292.820312c0-31.03125 17.238281-58.929688 44.996094-72.808594l58.902343-29.449219zm0 0" fill="#c7001c"/><g fill="#fff36e"><path d="m288.132812 401.664062h-116.085937c-8.28125 0-15 6.71875-15 15 0 8.285157 6.71875 15 15 15h116.085937c8.285157 0 15-6.714843 15-15 0-8.28125-6.714843-15-15-15zm0 0"/><path d="m288.132812 321.332031h-116.085937c-8.28125 0-15 6.714844-15 15 0 8.285157 6.71875 15 15 15h116.085937c8.285157 0 15-6.714843 15-15 0-8.285156-6.714843-15-15-15zm0 0"/><path d="m172.046875 271h116.085937c8.285157 0 15-6.71875 15-15 0-8.285156-6.714843-15-15-15h-116.085937c-8.28125 0-15 6.714844-15 15 0 8.28125 6.71875 15 15 15zm0 0"/></g><path d="m303.128906 416.671875c0 8.277344-6.707031 15-15 15h-32.128906v-30h32.128906c8.292969 0 15 6.707031 15 15zm0 0" fill="#ffcc01"/><path d="m303.128906 336.328125c0 8.289063-6.707031 15-15 15h-32.128906v-30h32.128906c8.292969 0 15 6.722656 15 15zm0 0" fill="#ffcc01"/><path d="m303.128906 256c0 8.277344-6.707031 15-15 15h-32.128906v-30h32.128906c8.292969 0 15 6.71875 15 15zm0 0" fill="#ffcc01"/><path d="m416.488281 116.921875-49.089843-30h-111.398438v64.148437c2.613281-1.703124 5.335938-3.277343 8.179688-4.699218l58.902343-29.449219zm0 0" fill="#a50017"/></svg>