<svg height="512pt" viewBox="0 -48 512 512" width="512pt" xmlns="http://www.w3.org/2000/svg"><path d="m288.132812 78.199219h-64.265624c-8.285157 0-15-6.714844-15-15v-16.066407c0-25.988281 21.144531-47.132812 47.132812-47.132812s47.132812 21.144531 47.132812 47.132812v16.066407c0 8.285156-6.714843 15-15 15zm0 0" fill="#c7001c"/><path d="m288.132812 78.199219c8.285157 0 15-6.714844 15-15v-16.066407c0-25.988281-21.144531-47.132812-47.132812-47.132812v78.199219zm0 0" fill="#a50017"/><path d="m497 319.199219h-482c-8.285156 0-15-6.71875-15-15 0-141.410157 114.414062-256 256-256 141.40625 0 256 114.417969 256 256 0 8.285156-6.714844 15-15 15zm0 0" fill="#ff415b"/><path d="m497 319.199219c8.285156 0 15-6.71875 15-15 0-141.585938-114.59375-256-256-256v271zm0 0" fill="#c7001c"/><path d="m368.464844 319.199219h-224.929688c-8.285156 0-15-6.71875-15-15 0-136.097657 52.011719-256 127.464844-256 76.335938 0 127.464844 121.695312 127.464844 256 0 8.285156-6.714844 15-15 15zm0 0" fill="#fff36e"/><path d="m480.933594 415.597656h-449.867188c-17.15625 0-31.066406-13.910156-31.066406-31.066406v-80.332031h512v80.332031c0 17.15625-13.910156 31.066406-31.066406 31.066406zm0 0" fill="#ff8d9d"/><path d="m368.464844 319.199219c8.285156 0 15-6.71875 15-15 0-134.304688-51.128906-256-127.464844-256v271zm0 0" fill="#ffcc01"/><path d="m256 415.597656h224.933594c17.15625 0 31.066406-13.910156 31.066406-31.066406v-80.332031h-256zm0 0" fill="#ff415b"/><path d="m256 326.699219c-18.308594 0-33.199219 14.890625-33.199219 33.199219 0 18.304687 14.894531 33.199218 33.199219 33.199218s33.199219-14.894531 33.199219-33.199218c0-18.308594-14.890625-33.199219-33.199219-33.199219zm0 0" fill="#fffac5"/><path d="m289.199219 359.898438c0-18.308594-14.894531-33.199219-33.199219-33.199219v66.398437c18.308594 0 33.199219-14.894531 33.199219-33.199218zm0 0" fill="#fff36e"/></svg>