<svg height="512pt" viewBox="0 0 512 512" width="512pt" xmlns="http://www.w3.org/2000/svg"><path d="m456.03125 512c-8.664062 0-16.820312-3.375-22.964844-9.503906-28.757812-28.710938-170.183594-170.199219-171.605468-171.625-5.859376-5.859375-5.855469-15.355469.003906-21.214844l48.199218-48.195312c5.859376-5.859376 15.355469-5.855469 21.214844.003906 1.421875 1.425781 142.835938 142.898437 171.578125 171.59375 6.152344 6.140625 9.542969 14.304687 9.542969 22.988281 0 30.859375-25.109375 55.953125-55.96875 55.953125zm0 0" fill="#ffcc01"/><path d="m502.457031 433.058594c-28.742187-28.695313-170.15625-170.167969-171.578125-171.59375-5.859375-5.859375-15.355468-5.863282-21.214844-.003906l-24.109374 24.109374 210.027343 210.03125c10.140625-10.132812 16.417969-24.121093 16.417969-39.554687 0-8.683594-3.390625-16.851563-9.542969-22.988281zm0 0" fill="#e19600"/><path d="m174.597656 464.847656c0-6.023437-3.550781-11.21875-8.671875-13.605468-8.699219-4.378907-87.726562-44.976563-87.742187-142.402344v-18.472656c0-8.285157-6.714844-15-15-15-8.28125 0-15 6.714843-15 15v18.476562c.003906 34.246094 13.144531 123.605469 104.695312 169.417969 2.085938 1.042969 4.382813 1.585937 6.714844 1.585937 8.28125 0 15.003906-6.714844 15.003906-15zm0 0" fill="#d5e9ff"/><path d="m238.867188 464.847656c0-25.988281-21.144532-47.132812-47.132813-47.132812-25.992187 0-47.132813 21.144531-47.132813 47.132812 0 25.992188 21.144532 47.132813 47.132813 47.132813s47.132813-21.140625 47.132813-47.132813zm0 0" fill="#edf6ff"/><path d="m464.867188 174.578125c-6.023438 0-11.21875-3.550781-13.605469-8.671875-4.382813-8.695312-44.980469-87.726562-142.40625-87.738281h-18.472657c-8.285156 0-15-6.714844-15-15 0-8.285157 6.714844-15 15-15h18.476563c34.246094.003906 123.609375 13.144531 169.421875 104.695312 1.042969 2.082031 1.585938 4.382813 1.585938 6.710938 0 8.285156-6.71875 15.003906-15 15.003906zm0 0" fill="#aed3ff"/><path d="m464.867188 238.851562c-25.988282 0-47.132813-21.144531-47.132813-47.132812 0-25.992188 21.144531-47.136719 47.132813-47.136719 25.988281 0 47.132812 21.144531 47.132812 47.136719 0 25.988281-21.144531 47.132812-47.132812 47.132812zm0 0" fill="#d5e9ff"/><path d="m351.210938 175.605469c0 96.984375-78.621094 175.605469-175.605469 175.605469s-175.605469-78.621094-175.605469-175.605469 78.621094-175.605469 175.605469-175.605469 175.605469 78.621094 175.605469 175.605469zm0 0" fill="#ff415b"/><path d="m299.777344 299.777344c31.777344-31.777344 51.433594-75.679688 51.433594-124.171875 0-96.984375-78.621094-175.605469-175.605469-175.605469-48.492188 0-92.394531 19.65625-124.171875 51.433594zm0 0" fill="#c7001c"/><path d="m174.601562 304.230469c-70.90625 0-128.589843-57.679688-128.589843-128.582031 0-70.898438 57.683593-128.582032 128.589843-128.582032s128.589844 57.683594 128.589844 128.582032c0 70.902343-57.683594 128.582031-128.589844 128.582031zm0 0" fill="#fffac5"/><path d="m174.601562 47.066406c-35.1875 0-67.109374 14.207032-90.351562 37.183594l181.75 181.75c22.980469-23.238281 37.191406-55.164062 37.191406-90.351562 0-70.898438-57.683594-128.582032-128.589844-128.582032zm0 0" fill="#fff36e"/></svg>