<svg height="512pt" viewBox="0 0 512.001 512" width="512pt" xmlns="http://www.w3.org/2000/svg"><path d="m68.660156 250.539062-64.265625-64.269531c-5.859375-5.855469-5.859375-15.351562 0-21.210937l160.664063-160.667969c5.859375-5.855469 15.363281-5.851563 21.214844 0l64.265624 64.269531c5.859376 5.855469 5.859376 15.355469 0 21.210938l-160.667968 160.667968c-5.855469 5.855469-15.359375 5.851563-21.210938 0zm0 0" fill="#ff415b"/><path d="m170.207031 170.203125 80.332031-80.332031c5.859376-5.855469 5.859376-15.355469 0-21.214844l-64.265624-64.265625c-5.851563-5.851563-15.355469-5.855469-21.214844 0l-80.332032 80.335937zm0 0" fill="#c7001c"/><path d="m429.683594 507.605469-425.289063-425.289063c-5.859375-5.859375-5.859375-15.355468 0-21.214844 5.855469-5.855468 15.355469-5.855468 21.210938 0l425.292969 425.292969c5.855468 5.855469 5.855468 15.355469 0 21.210938-5.859376 5.859375-15.359376 5.859375-21.214844 0zm0 0" fill="#fff36e"/><path d="m486.394531 450.898438-425.289062-425.292969c-5.859375-5.855469-5.859375-15.351563 0-21.210938 5.855469-5.855469 15.355469-5.855469 21.210937 0l425.292969 425.289063c5.855469 5.859375 5.855469 15.355468 0 21.214844-5.863281 5.859374-15.359375 5.855468-21.214844 0zm0 0" fill="#ffcc01"/></svg>