<svg height="512pt" viewBox="0 0 512 512.00026" width="512pt" xmlns="http://www.w3.org/2000/svg"><path d="m486.390625 507.605469-411.40625-411.40625c-5.859375-5.859375-5.859375-15.355469 0-21.214844 5.855469-5.859375 15.355469-5.859375 21.214844 0l411.40625 411.410156c5.859375 5.855469 5.859375 15.355469 0 21.210938-5.859375 5.859375-15.355469 5.859375-21.214844 0zm0 0" fill="#fff36e"/><path d="m507.605469 486.394531-411.40625-411.410156c-5.859375-5.859375-15.359375-5.859375-21.214844 0l432.621094 432.621094c5.859375-5.855469 5.859375-15.355469 0-21.210938zm0 0" fill="#ffcc01"/><path d="m8.21875 510.386719c-5.785156-2.929688-9.03125-9.25-8.042969-15.660157l64.265625-417.738281c.996094-6.472656 6.074219-11.550781 12.542969-12.542969l417.734375-64.269531c6.417969-.988281 12.726562 2.257813 15.660156 8.042969 2.929688 5.789062 1.8125 12.800781-2.773437 17.386719l-482 482.007812c-5.71875 5.722657-13.144531 4.925781-17.386719 2.773438zm0 0" fill="#ff8d9d"/><path d="m494.71875.175781-417.734375 64.269531c-3.234375.496094-6.121094 2.015626-8.324219 4.21875l197.945313 197.945313 241-241.003906c4.585937-4.585938 5.703125-11.597657 2.773437-17.386719-2.933594-5.785156-9.242187-9.03125-15.660156-8.042969zm0 0" fill="#ff415b"/><path d="m112.648438 386.878906-48.199219-305.269531c-.75-4.742187.816406-9.554687 4.210937-12.945313 3.390625-3.394531 8.207032-4.960937 12.945313-4.210937l305.265625 48.199219c12.085937 1.910156 16.925781 16.765625 8.265625 25.425781l-257.0625 257.066406c-8.652344 8.652344-23.515625 3.824219-25.425781-8.265625zm0 0" fill="#ff415b"/><path d="m386.871094 112.652344-305.265625-48.199219c-4.738281-.75-9.554688.816406-12.945313 4.210937l197.945313 197.945313 128.53125-128.53125c8.660156-8.660156 3.820312-23.515625-8.265625-25.425781zm0 0" fill="#c7001c"/></svg>