<svg height="512pt" viewBox="0 0 512 512" width="512pt" xmlns="http://www.w3.org/2000/svg"><path d="m236.324219 512c-124.300781 0-236.324219-98.292969-236.324219-239.917969 0-72.675781 28.300781-141 79.691406-192.390625s119.714844-79.691406 192.390625-79.691406c186.554688 0 239.917969 164.082031 239.917969 236.316406 0 54.957032-34.726562 104.394532-86.414062 123.027344l-19.902344 7.167969c-7.796875 2.808593-36.363282 31.382812-39.171875 39.175781l-7.171875 19.898438c-18.636719 51.6875-68.070313 86.414062-123.015625 86.414062zm0 0" fill="#ff415b"/><path d="m400.601562 257.066406h-92.320312l75.574219-75.574218c5.855469-5.855469 5.855469-15.355469 0-21.214844-5.859375-5.855469-15.359375-5.855469-21.214844 0l-75.574219 75.574218v-108.382812c0-8.285156-6.714844-15-15-15s-15 6.714844-15 15v108.382812l-86.859375-86.859374c-5.855469-5.855469-15.355469-5.855469-21.214843 0-5.855469 5.859374-5.855469 15.355468 0 21.214843l86.863281 86.859375h-111.480469c-8.285156 0-15 6.714844-15 15s6.714844 15 15 15h111.480469l-70.796875 70.792969c-5.855469 5.859375-5.855469 15.355469 0 21.214844 5.855468 5.855469 15.355468 5.859375 21.214844 0l70.792968-70.792969v92.320312c0 8.28125 6.714844 15 15 15s15-6.71875 15-15v-113.535156h113.535156c8.28125 0 15-6.714844 15-15s-6.71875-15-15-15zm0 0" fill="#c7001c"/><path d="m272.082031 0c-72.675781 0-141 28.300781-192.390625 79.691406l304.539063 304.539063c8.464843-8.46875 17.554687-16.3125 21.453125-17.714844l19.902344-7.167969c51.6875-18.636718 86.414062-68.074218 86.414062-123.03125 0-72.234375-53.363281-236.316406-239.917969-236.316406zm0 0" fill="#c7001c"/><path d="m415.601562 272.066406c0-8.285156-6.71875-15-15-15h-92.320312l75.574219-75.574218c5.855469-5.855469 5.855469-15.355469 0-21.214844-5.859375-5.855469-15.359375-5.855469-21.214844 0l-75.574219 75.574218v-108.382812c0-8.285156-6.714844-15-15-15s-15 6.714844-15 15v108.382812l-86.859375-86.859374c-5.855469-5.855469-15.355469-5.855469-21.214843 0l138.074218 138.074218h113.535156c8.28125 0 15-6.714844 15-15zm0 0" fill="#a50017"/><path d="m460.914062 512h-.015624c-11.808594 0-22.910157-4.597656-31.261719-12.949219l-188.019531-188.019531c-16.878907-16.863281-25.632813-50.328125-3.269532-72.683594 23.886719-23.890625 57.730469-11.667968 72.675782 3.261719l188.027343 188.027344c8.351563 8.351562 12.949219 19.453125 12.949219 31.261719 0 28.671874-23.316406 51.101562-51.085938 51.101562zm0 0" fill="#edf6ff"/><path d="m311.027344 241.609375c-14.949219-14.929687-48.792969-27.152344-72.675782-3.261719h-.003906l258.683594 258.683594c9.207031-9.179688 14.96875-21.882812 14.96875-36.132812 0-11.808594-4.597656-22.910157-12.949219-31.261719zm0 0" fill="#d5e9ff"/></svg>