<svg height="512pt" viewBox="0 0 512 512" width="512pt" xmlns="http://www.w3.org/2000/svg"><path d="m151.566406 118.367188c-3.835937 0-7.675781-1.464844-10.605468-4.394532-5.855469-5.855468-5.855469-15.355468 0-21.210937l24.101562-24.101563c5.855469-5.855468 15.355469-5.855468 21.210938 0 5.859374 5.859375 5.859374 15.355469 0 21.214844l-24.097657 24.097656c-2.929687 2.929688-6.769531 4.394532-10.609375 4.394532zm0 0" fill="#c7001c"/><path d="m100.792969 89.875c-5.855469-5.859375-5.855469-15.355469 0-21.214844l32.136719-32.132812c5.855468-5.855469 15.351562-5.855469 21.210937 0 5.859375 5.859375 5.859375 15.355468 0 21.214844l-32.132813 32.132812c-5.859374 5.859375-15.359374 5.859375-21.214843 0zm0 0" fill="#c7001c"/><path d="m47.136719 158.535156c-3.839844 0-7.679688-1.464844-10.609375-4.394531-5.855469-5.855469-5.855469-15.355469 0-21.210937l32.132812-32.136719c5.859375-5.855469 15.355469-5.859375 21.214844 0s5.859375 15.355469 0 21.214843l-32.132812 32.132813c-2.929688 2.929687-6.769532 4.394531-10.605469 4.394531zm0 0" fill="#ff415b"/><path d="m68.660156 186.273438c-5.855468-5.855469-5.855468-15.355469 0-21.210938l24.101563-24.101562c5.855469-5.855469 15.355469-5.855469 21.214843 0 5.855469 5.855468 5.855469 15.355468 0 21.214843l-24.101562 24.097657c-5.859375 5.859374-15.355469 5.859374-21.214844 0zm0 0" fill="#ff415b"/><path d="m347.226562 512c-78.066406 0-120.554687-58.0625-133.003906-97.46875l-33.988281-107.632812c-22.132813-70.101563-61.308594-134.625-113.289063-186.601563l-14.351562-14.359375c-5.855469-5.855469-5.855469-15.351562 0-21.210938l32.132812-32.132812c.316407-.3125 4.125-4.394531 10.609376-4.394531 3.976562 0 7.792968 1.582031 10.605468 4.398437l14.347656 14.351563c51.984376 51.980469 116.515626 91.15625 186.605469 113.289062l107.628907 33.988281c38.445312 12.140626 97.476562 54.214844 97.476562 132.996094 0 90.859375-73.917969 164.777344-164.773438 164.777344zm0 0" fill="#fffac5"/><g fill="#ffcc01"><path d="m260.175781 314.808594c-5.859375-5.859375-5.859375-15.355469 0-21.214844l33.417969-33.417969c5.855469-5.855469 15.355469-5.855469 21.214844 0 5.855468 5.855469 5.855468 15.355469 0 21.214844l-33.421875 33.417969c-5.859375 5.859375-15.355469 5.855468-21.210938 0zm0 0"/><path d="m221.292969 274.640625c-5.855469-5.855469-5.855469-15.355469 0-21.210937l32.132812-32.132813c5.859375-5.859375 15.355469-5.859375 21.214844 0 5.855469 5.855469 5.855469 15.351563 0 21.210937l-32.132813 32.132813c-5.859374 5.859375-15.355468 5.855469-21.214843 0zm0 0"/><path d="m300.34375 354.972656c-5.859375-5.855468-5.859375-15.351562 0-21.210937l33.417969-33.417969c5.855469-5.859375 15.351562-5.859375 21.210937 0 5.859375 5.855469 5.859375 15.351562 0 21.210938l-33.417968 33.417968c-5.859376 5.859375-15.355469 5.855469-21.210938 0zm0 0"/><path d="m372.640625 443.339844c-5.855469-5.855469-5.855469-15.355469 0-21.210938l49.484375-49.488281c5.859375-5.855469 15.355469-5.855469 21.214844 0 5.855468 5.859375 5.855468 15.355469 0 21.214844l-49.484375 49.484375c-5.859375 5.859375-15.355469 5.855468-21.214844 0zm0 0"/></g><path d="m414.523438 214.226562-107.628907-33.988281c-70.089843-22.132812-134.617187-61.308593-186.605469-113.289062l-14.347656-14.351563c-2.8125-2.8125-6.628906-4.394531-10.605468-4.394531-6.484376 0-10.296876 4.078125-10.609376 4.394531l-16.066406 16.0625 395.023438 395.023438c29.835937-29.835938 48.316406-71.03125 48.316406-116.460938 0-78.78125-59.03125-120.855468-97.476562-132.996094zm0 0" fill="#fff36e"/><path d="m314.8125 281.390625-16.710938 16.710937-21.21875-21.21875 16.707032-16.710937c5.859375-5.851563 15.359375-5.851563 21.222656 0 5.859375 5.859375 5.859375 15.359375 0 21.21875zm0 0" fill="#e19600"/><path d="m274.640625 242.511719-16.058594 16.070312-21.222656-21.222656 16.070313-16.070313c5.851562-5.847656 15.351562-5.847656 21.210937 0 5.859375 5.863282 5.859375 15.363282 0 21.222657zm0 0" fill="#e19600"/><path d="m354.96875 321.550781-16.707031 16.710938-21.210938-21.210938 16.710938-16.710937c5.859375-5.859375 15.359375-5.859375 21.207031 0 5.863281 5.859375 5.863281 15.359375 0 21.210937zm0 0" fill="#e19600"/><path d="m443.339844 393.851562-24.738282 24.75-21.210937-21.210937 24.742187-24.75c5.847657-5.859375 15.347657-5.859375 21.207032 0s5.859375 15.359375 0 21.210937zm0 0" fill="#e19600"/><path d="m55.167969 110.332031c-30.417969 0-55.167969-24.746093-55.167969-55.164062 0-30.421875 24.75-55.167969 55.167969-55.167969s55.164062 24.746094 55.164062 55.167969c0 30.417969-24.746093 55.164062-55.164062 55.164062zm0 0" fill="#ffcc01"/><path d="m55.167969 0c-15.210938 0-29.003907 6.1875-38.992188 16.175781l77.980469 77.980469c9.992188-9.988281 16.179688-23.78125 16.179688-38.988281-.003907-30.421875-24.75-55.167969-55.167969-55.167969zm0 0" fill="#e19600"/></svg>