<svg height="512pt" viewBox="0 0 512 512" width="512pt" xmlns="http://www.w3.org/2000/svg"><path d="m448.472656 362.671875-13.707031-14.59375c-7.035156-7.488281-17.789063-9.988281-27.398437-6.367187-.003907 0-.007813 0-.011719.003906-19.46875 7.328125-41.554688 2.5625-56.265625-12.152344l-14.757813-14.753906c-5.859375-5.859375-5.859375-15.355469 0-21.214844 5.855469-5.855469 15.355469-5.855469 21.214844 0l14.753906 14.753906c6.355469 6.355469 15.871094 8.449219 24.296875 5.359375.15625-.0625.3125-.117187.46875-.175781 20.921875-7.753906 44.273438-2.273438 59.566406 14.007812l13.707032 14.59375c5.667968 6.035157 5.371094 15.527344-.664063 21.203126-8.222656 7.71875-17.886719 2.863281-21.203125-.664063zm0 0" fill="#e19600"/><g fill="#ffcc01"><path d="m411.203125 400.601562c-5.855469-5.859374-5.855469-15.355468 0-21.214843l5.460937-5.460938c5.859376-5.855469 15.355469-5.859375 21.214844 0s5.859375 15.355469 0 21.214844l-5.460937 5.460937c-5.851563 5.847657-15.34375 5.867188-21.214844 0zm0 0"/><path d="m480.933594 328.792969c-5.859375-5.855469-5.859375-15.355469 0-21.214844l5.460937-5.460937c5.855469-5.855469 15.351563-5.855469 21.210938 0 5.859375 5.859374 5.859375 15.355468 0 21.214843l-5.460938 5.460938c-5.847656 5.847656-15.34375 5.867187-21.210937 0zm0 0"/><path d="m480.933594 373.925781c5.855468-5.859375 15.351562-5.859375 21.210937 0l5.460938 5.460938c5.859375 5.859375 5.859375 15.355469 0 21.214843-5.855469 5.855469-15.351563 5.855469-21.210938 0l-5.460937-5.460937c-5.851563-5.851563-5.867188-15.347656 0-21.214844zm0 0"/><path d="m368.46875 512c-3.839844 0-7.679688-1.464844-10.605469-4.394531l-112.46875-112.464844c-5.859375-5.859375-5.859375-15.355469 0-21.214844 5.859375-5.855469 15.355469-5.855469 21.214844 0l112.464844 112.46875c9.492187 9.492188 2.621093 25.605469-10.605469 25.605469zm0 0"/></g><path d="m245.394531 395.140625-208.867187-208.867187c-5.855469-5.859376-5.851563-15.359376 0-21.210938l128.535156-128.535156c5.855469-5.855469 15.355469-5.855469 21.210938 0l208.867187 208.867187c5.859375 5.859375 5.851563 15.359375 0 21.210938l-128.53125 128.535156c-5.863281 5.859375-15.359375 5.855469-21.214844 0zm0 0" fill="#ff415b"/><path d="m186.273438 36.527344c-5.855469-5.855469-15.351563-5.855469-21.210938 0l-64.265625 64.269531 230.074219 230.078125 64.269531-64.269531c5.851563-5.851563 5.859375-15.351563 0-21.210938zm0 0" fill="#c7001c"/><path d="m118.222656 267.96875h275.558594l1.359375-1.359375c5.851563-5.851563 5.859375-15.355469 0-21.214844l-7.425781-7.425781h-299.492188zm0 0" fill="#ff8d9d"/><path d="m313.445312 163.699219h-275.554687l-1.359375 1.363281c-5.855469 5.851562-5.859375 15.351562 0 21.210938l7.425781 7.425781h299.492188zm0 0" fill="#ff8d9d"/><path d="m82.15625 119.433594h187.023438l-30-30h-127.023438zm0 0" fill="#ff8d9d"/><path d="m192.488281 342.234375h127.023438l30-30h-187.023438zm0 0" fill="#ff8d9d"/><path d="m395.140625 266.609375-1.359375 1.359375h-125.8125l-30-30h149.742188l7.429687 7.421875c5.859375 5.859375 5.847656 15.371094 0 21.21875zm0 0" fill="#ff415b"/><path d="m343.449219 193.699219h-149.75l-30-30h149.75zm0 0" fill="#ff415b"/><path d="m269.179688 119.429688h-149.75l-18.628907-18.628907 11.359375-11.371093h127.019532zm0 0" fill="#ff415b"/><path d="m349.511719 312.230469-18.640625 18.640625-18.640625-18.640625zm0 0" fill="#ff415b"/><path d="m0 207.800781v-192.800781c0-8.285156 6.714844-15 15-15h192.800781c13.332031 0 20.035157 16.175781 10.605469 25.605469l-192.800781 192.800781c-9.414063 9.417969-25.605469 2.738281-25.605469-10.605469zm0 0" fill="#fffac5"/><path d="m207.800781 0h-192.800781c-4.140625 0-7.890625 1.679688-10.605469 4.394531l117.609375 117.613281 96.402344-96.402343c9.429688-9.429688 2.726562-25.605469-10.605469-25.605469zm0 0" fill="#fff36e"/></svg>