<svg height="512pt" viewBox="-48 0 512 512" width="512pt" xmlns="http://www.w3.org/2000/svg"><path d="m304.199219 142.46875c-8.285157 0-15-6.71875-15-15 0-53.746094-43.722657-97.46875-97.46875-97.46875-26.042969 0-50.515625 10.136719-68.921875 28.542969s-28.542969 42.878906-28.542969 68.90625c0 8.285156-6.714844 15.007812-15 15.007812s-15-6.707031-15-14.988281c0-34.0625 13.257813-66.066406 37.332031-90.140625 24.074219-24.070313 56.078125-37.328125 90.117188-37.328125 70.300781 0 127.484375 57.183594 127.484375 127.46875 0 8.28125-6.714844 15-15 15zm0 0" fill="#ffcc01"/><path d="m191.734375 0v30c53.742187 0 97.464844 43.722656 97.464844 97.46875 0 8.28125 6.714843 15 15 15 8.285156 0 15-6.71875 15-15 0-70.28125-57.171875-127.4609375-127.464844-127.46875zm0 0" fill="#e19600"/><g fill="#fff36e"><path d="m79.265625 206.734375c-8.285156 0-15-6.714844-15-15v-16.066406c0-8.285157 6.714844-15 15-15s15 6.714843 15 15v16.066406c0 8.285156-6.714844 15-15 15zm0 0"/><path d="m31.066406 142.46875h-16.066406c-8.285156 0-15-6.714844-15-15s6.714844-15 15-15h16.066406c8.285156 0 15 6.714844 15 15s-6.714844 15-15 15zm0 0"/><path d="m143.53125 142.46875h-16.066406c-8.28125 0-15-6.714844-15-15s6.71875-15 15-15h16.066406c8.285156 0 15 6.714844 15 15s-6.714844 15-15 15zm0 0"/></g><path d="m400.597656 512h-192.796875c-8.285156 0-15-6.714844-15-15v-369.53125c0-8.285156 6.714844-15 15-15h192.796875c8.285156 0 15 6.714844 15 15v369.53125c0 8.285156-6.714844 15-15 15zm0 0" fill="#ff415b"/><path d="m400.597656 112.46875h-96.398437v399.53125h96.398437c8.285156 0 15-6.714844 15-15v-369.53125c0-8.285156-6.714844-15-15-15zm0 0" fill="#c7001c"/><path d="m192.800781 176.734375h222.796875v30h-222.796875zm0 0" fill="#fff36e"/><path d="m192.800781 417.734375h222.796875v30h-222.796875zm0 0" fill="#fff36e"/><path d="m304.199219 176.734375h111.398437v30h-111.398437zm0 0" fill="#ffcc01"/><path d="m304.199219 417.734375h111.398437v30h-111.398437zm0 0" fill="#ffcc01"/></svg>