<svg height="512pt" viewBox="0 0 512 512" width="512pt" xmlns="http://www.w3.org/2000/svg"><path d="m245.394531 346.9375-19.136719-19.132812h-27.0625c-8.28125 0-15-6.71875-15-15v-27.0625l-19.132812-19.136719c-5.859375-5.859375-5.855469-15.363281 0-21.214844l19.132812-19.132813v-27.0625c0-8.285156 6.71875-15 15-15h27.0625l19.136719-19.136718c5.859375-5.859375 15.355469-5.859375 21.210938 0l19.136719 19.136718h27.0625c8.285156 0 15 6.714844 15 15v27.0625l19.136718 19.132813c5.859375 5.859375 5.859375 15.355469 0 21.214844l-19.136718 19.136719v27.0625c0 8.28125-6.714844 15-15 15h-27.0625l-19.136719 19.132812c-5.859375 5.863281-15.355469 5.859375-21.210938 0zm0 0" fill="#ff8d9d"/><path d="m346.941406 245.390625-19.140625-19.128906v-27.0625c0-8.289063-6.710937-15-15-15h-27.0625l-19.128906-19.140625c-2.929687-2.929688-6.769531-4.398438-10.609375-4.398438v190.679688c3.839844 0 7.679688-1.46875 10.609375-4.398438l19.128906-19.140625h27.0625c8.289063 0 15-6.710937 15-15v-27.0625l19.140625-19.128906c5.859375-5.859375 5.859375-15.359375 0-21.21875zm0 0" fill="#ff415b"/><path d="m256 126.398438c-8.285156 0-15-6.714844-15-15v-32.132813c0-8.28125 6.714844-15 15-15s15 6.71875 15 15v32.132813c0 8.285156-6.714844 15-15 15zm0 0" fill="#ff415b"/><path d="m256 447.734375c-8.285156 0-15-6.71875-15-15v-32.132813c0-8.285156 6.714844-15 15-15s15 6.714844 15 15v32.132813c0 8.285156-6.714844 15-15 15zm0 0" fill="#ff415b"/><g fill-rule="evenodd"><path d="m271 15c0 8.285156-6.714844 15-15 15s-15-6.714844-15-15 6.714844-15 15-15 15 6.714844 15 15zm0 0" fill="#fffac5"/><path d="m463.800781 63.199219c0 8.285156-6.714843 15-15 15-8.285156 0-15-6.714844-15-15 0-8.285157 6.714844-15 15-15 8.285157 0 15 6.714843 15 15zm0 0" fill="#ff415b"/><path d="m463.800781 448.800781c0 8.285157-6.714843 15-15 15-8.285156 0-15-6.714843-15-15 0-8.285156 6.714844-15 15-15 8.285157 0 15 6.714844 15 15zm0 0" fill="#ff415b"/><path d="m271 497c0 8.285156-6.714844 15-15 15s-15-6.714844-15-15 6.714844-15 15-15 15 6.714844 15 15zm0 0" fill="#fffac5"/></g><path d="m432.734375 271h-32.132813c-8.285156 0-15-6.714844-15-15s6.714844-15 15-15h32.132813c8.285156 0 15 6.714844 15 15s-6.714844 15-15 15zm0 0" fill="#ff415b"/><path d="m111.398438 271h-32.132813c-8.28125 0-15-6.714844-15-15s6.71875-15 15-15h32.132813c8.285156 0 15 6.714844 15 15s-6.714844 15-15 15zm0 0" fill="#ff415b"/><path d="m512 256c0 8.285156-6.714844 15-15 15s-15-6.714844-15-15 6.714844-15 15-15 15 6.714844 15 15zm0 0" fill="#fffac5" fill-rule="evenodd"/><path d="m30 256c0 8.285156-6.714844 15-15 15s-15-6.714844-15-15 6.714844-15 15-15 15 6.714844 15 15zm0 0" fill="#fffac5" fill-rule="evenodd"/><path d="m341.792969 170.207031c-5.855469-5.859375-5.855469-15.355469 0-21.214843l48.199219-48.199219c5.859374-5.855469 15.355468-5.855469 21.214843 0 5.855469 5.859375 5.855469 15.355469 0 21.214843l-48.199219 48.199219c-5.859374 5.859375-15.359374 5.855469-21.214843 0zm0 0" fill="#fff36e"/><path d="m400.601562 415.601562c-3.839843 0-7.679687-1.464843-10.609374-4.394531l-48.195313-48.199219c-5.859375-5.859374-5.859375-15.355468 0-21.214843 5.855469-5.855469 15.351563-5.855469 21.210937 0l48.199219 48.199219c5.859375 5.859374 5.859375 15.355468 0 21.214843-2.929687 2.929688-6.769531 4.394531-10.605469 4.394531zm0 0" fill="#fff36e"/><path d="m78.199219 63.199219c0 8.285156-6.714844 15-15 15-8.285157 0-15-6.714844-15-15 0-8.285157 6.714843-15 15-15 8.285156 0 15 6.714843 15 15zm0 0" fill="#ff415b" fill-rule="evenodd"/><path d="m78.199219 448.800781c0 8.285157-6.714844 15-15 15-8.285157 0-15-6.714843-15-15 0-8.285156 6.714843-15 15-15 8.285156 0 15 6.714844 15 15zm0 0" fill="#ff415b" fill-rule="evenodd"/><path d="m148.992188 170.207031-48.199219-48.199219c-5.855469-5.859374-5.855469-15.355468 0-21.214843 5.859375-5.855469 15.355469-5.855469 21.214843 0l48.199219 48.199219c5.859375 5.859374 5.859375 15.355468 0 21.214843-5.871093 5.867188-15.367187 5.847657-21.214843 0zm0 0" fill="#fffac5"/><path d="m100.792969 411.207031c-5.855469-5.859375-5.855469-15.355469 0-21.214843l48.199219-48.199219c5.859374-5.855469 15.355468-5.855469 21.214843 0 5.855469 5.859375 5.855469 15.355469 0 21.214843l-48.199219 48.199219c-5.859374 5.859375-15.359374 5.855469-21.214843 0zm0 0" fill="#fffac5"/><path d="m316.808594 109.191406c-7.652344-3.171875-11.289063-11.945312-8.117188-19.597656l19.960938-48.199219c3.171875-7.65625 11.941406-11.289062 19.601562-8.121093 7.652344 3.171874 11.285156 11.945312 8.117188 19.601562l-19.964844 48.199219c-2.246094 5.417969-9.980469 12.097656-19.597656 8.117187zm0 0" fill="#ffcc01"/><path d="m403.710938 193.007812c-3.171876-7.652343.460937-16.429687 8.113281-19.597656l48.199219-19.972656c7.652343-3.171875 16.429687.464844 19.601562 8.117188 3.171875 7.652343-.464844 16.425781-8.117188 19.597656l-48.199218 19.972656c-9.605469 3.980469-17.324219-2.621094-19.597656-8.117188zm0 0" fill="#ffcc01"/><path d="m169.476562 479.871094c-1.914062 0-3.859374-.367188-5.734374-1.148438-7.65625-3.167968-11.289063-11.941406-8.121094-19.597656l19.964844-48.199219c3.167968-7.652343 11.945312-11.285156 19.597656-8.117187 7.652344 3.167968 11.289062 11.945312 8.117187 19.597656l-19.960937 48.199219c-2.394532 5.777343-7.980469 9.265625-13.863282 9.265625zm0 0" fill="#fff36e"/><path d="m32.367188 350.445312c-3.171876-7.652343.460937-16.429687 8.117187-19.597656l48.199219-19.972656c7.65625-3.171875 16.429687.464844 19.597656 8.117188 3.171875 7.652343-.460938 16.425781-8.113281 19.597656l-48.199219 19.972656c-9.625 3.988281-17.335938-2.652344-19.601562-8.117188zm0 0" fill="#fff36e"/><path d="m459.125 356.375-48.199219-19.96875c-7.652343-3.171875-11.285156-11.945312-8.117187-19.601562 3.171875-7.652344 11.949218-11.285157 19.601562-8.113282l48.199219 19.96875c7.652344 3.171875 11.285156 11.945313 8.113281 19.601563-2.273437 5.488281-10.066406 12.066406-19.597656 8.113281zm0 0" fill="#ffcc01"/><path d="m330.839844 471.515625-19.964844-48.203125c-3.171875-7.652344.464844-16.425781 8.117188-19.597656 7.652343-3.167969 16.429687.464844 19.601562 8.121094l19.960938 48.199218c3.171874 7.652344-.464844 16.429688-8.117188 19.597656-9.605469 3.980469-17.324219-2.621093-19.597656-8.117187zm0 0" fill="#ffcc01"/><path d="m89.59375 203.308594-48.203125-19.96875c-7.652344-3.171875-11.285156-11.945313-8.113281-19.601563 3.167968-7.652343 11.945312-11.289062 19.597656-8.113281l48.199219 19.96875c7.652343 3.171875 11.289062 11.945312 8.117187 19.601562-2.273437 5.488282-10.066406 12.066407-19.597656 8.113282zm0 0" fill="#fff36e"/><path d="m173.398438 100.164062-19.960938-48.199218c-3.171875-7.652344.464844-16.429688 8.117188-19.597656 7.65625-3.171876 16.429687.464843 19.597656 8.117187l19.964844 48.203125c3.167968 7.652344-.464844 16.425781-8.121094 19.597656-9.625 3.988282-17.324219-2.636718-19.597656-8.121094zm0 0" fill="#fff36e"/><path d="m271 79.269531v32.128907c0 8.28125-6.71875 15-15 15v-62.128907c8.28125 0 15 6.710938 15 15zm0 0" fill="#c7001c"/><path d="m271 400.601562v32.128907c0 8.289062-6.71875 15-15 15v-62.128907c8.28125 0 15 6.71875 15 15zm0 0" fill="#c7001c"/><path d="m271 15c0 8.28125-6.71875 15-15 15v-30c8.28125 0 15 6.71875 15 15zm0 0" fill="#fff36e" fill-rule="evenodd"/><path d="m271 497c0 8.28125-6.71875 15-15 15v-30c8.28125 0 15 6.71875 15 15zm0 0" fill="#fff36e" fill-rule="evenodd"/><path d="m214.195312 297.804688h18.273438c3.980469 0 7.792969 1.578124 10.605469 4.394531l12.925781 12.921875 12.921875-12.925782c2.8125-2.8125 6.628906-4.390624 10.605469-4.390624h18.277344v-18.277344c0-3.976563 1.578124-7.792969 4.390624-10.605469l12.925782-12.921875-12.925782-12.921875c-2.8125-2.8125-4.390624-6.628906-4.390624-10.605469v-18.277344h-18.277344c-3.976563 0-7.792969-1.578124-10.605469-4.390624l-12.921875-12.925782-12.921875 12.925782c-2.8125 2.8125-6.628906 4.390624-10.605469 4.390624h-18.277344v18.277344c0 3.976563-1.578124 7.792969-4.390624 10.605469l-12.925782 12.921875 12.925782 12.921875c2.8125 2.8125 4.390624 6.628906 4.390624 10.605469zm0 0" fill="#fff36e"/><path d="m315.121094 256-12.921875 12.921875c-2.820313 2.816406-4.398438 6.628906-4.398438 10.609375v18.269531h-18.269531c-3.980469 0-7.792969 1.578125-10.609375 4.398438l-12.921875 12.921875v-118.242188l12.921875 12.921875c2.816406 2.820313 6.628906 4.398438 10.609375 4.398438h18.269531v18.269531c0 3.980469 1.578125 7.792969 4.398438 10.609375zm0 0" fill="#ffcc01"/></svg>