<svg height="512pt" viewBox="0 -48 512 512" width="512pt" xmlns="http://www.w3.org/2000/svg"><path d="m400.597656 0h-385.597656c-8.285156 0-15 6.714844-15 15v257.066406c0 8.28125 6.714844 15 15 15h385.597656c8.285156 0 15-6.71875 15-15v-257.066406c0-8.285156-6.714844-15-15-15zm0 0" fill="#ff415b"/><path d="m400.597656 0h-192.796875v287.066406h192.796875c8.285156 0 15-6.71875 15-15v-257.066406c0-8.285156-6.714844-15-15-15zm0 0" fill="#c7001c"/><path d="m0 96.398438h415.597656v30h-415.597656zm0 0" fill="#c7001c"/><path d="m207.800781 96.398438h207.796875v30h-207.796875zm0 0" fill="#a50017"/><path d="m207.800781 158.53125c-25.992187 0-47.136719-21.144531-47.136719-47.132812v-32.132813c0-8.285156 6.71875-15 15-15h64.269532c8.285156 0 15 6.714844 15 15v32.132813c0 25.992187-21.144532 47.132812-47.132813 47.132812zm0 0" fill="#fffac5"/><path d="m239.933594 64.265625h-32.132813v94.265625c25.988281 0 47.132813-21.140625 47.132813-47.132812v-32.132813c0-8.28125-6.714844-15-15-15zm0 0" fill="#fff36e"/><path d="m400.601562 415.597656c-61.425781 0-111.398437-49.972656-111.398437-111.398437s49.972656-111.398438 111.398437-111.398438c61.425782 0 111.398438 49.972657 111.398438 111.398438 0 61.421875-49.972656 111.398437-111.398438 111.398437zm0 0" fill="#00347b"/><path d="m400.601562 415.597656v-222.796875c61.425782 0 111.398438 49.972657 111.398438 111.398438 0 61.421875-49.972656 111.398437-111.398438 111.398437zm0 0" fill="#001737"/><path d="m256 415.597656c-61.425781 0-111.398438-49.972656-111.398438-111.398437s49.972657-111.398438 111.398438-111.398438 111.398438 49.972657 111.398438 111.398438c0 61.421875-49.972657 111.398437-111.398438 111.398437zm0 0" fill="#00347b"/><path d="m256 415.597656v-222.796875c61.425781 0 111.398438 49.972657 111.398438 111.398438 0 61.421875-49.972657 111.398437-111.398438 111.398437zm0 0" fill="#001737"/></svg>