<svg height="512pt" viewBox="-96 0 512 512" width="512pt" xmlns="http://www.w3.org/2000/svg"><path d="m79.265625 512h-64.265625c-8.285156 0-15-6.714844-15-15v-289.199219c0-8.285156 6.714844-15 15-15h64.265625c8.285156 0 15 6.714844 15 15v289.199219c0 8.285156-6.714844 15-15 15zm0 0" fill="#00347b"/><path d="m79.265625 192.800781h-32.132813v319.199219h32.132813c8.285156 0 15-6.714844 15-15v-289.199219c0-8.285156-6.714844-15-15-15zm0 0" fill="#001737"/><path d="m272.066406 142.46875c-8.285156 0-15-6.71875-15-15 0-53.746094-43.722656-97.46875-97.464844-97.46875-53.746093 0-97.46875 43.722656-97.46875 97.46875 0 8.28125-6.714843 15-15 15-8.28125 0-15-6.71875-15-15 0-70.285156 57.183594-127.46875 127.46875-127.46875 70.285157 0 127.464844 57.183594 127.464844 127.46875 0 8.28125-6.714844 15-15 15zm0 0" fill="#0051bd"/><path d="m94.265625 222.800781h-94.265625v-63.199219c0-26.035156 21.054688-47.132812 47.132812-47.132812 26.027344 0 47.136719 21.0625 47.136719 47.132812v63.199219zm0 0" fill="#edf6ff"/><path d="m47.132812 112.46875v110.332031h47.132813v-63.199219c0-26.070312-21.105469-47.132812-47.132813-47.132812zm0 0" fill="#d5e9ff"/><path d="m257.066406 127.46875c0 8.28125 6.714844 15 15 15s15-6.71875 15-15c0-70.285156-57.179687-127.46875-127.464844-127.46875v30c53.742188 0 97.464844 43.722656 97.464844 97.46875zm0 0" fill="#00347b"/><path d="m304.199219 512h-64.265625c-8.285156 0-15-6.714844-15-15v-289.199219c0-8.285156 6.714844-15 15-15h64.265625c8.285156 0 15 6.714844 15 15v289.199219c0 8.285156-6.714844 15-15 15zm0 0" fill="#00347b"/><path d="m304.199219 192.800781h-32.132813v319.199219h32.132813c8.285156 0 15-6.714844 15-15v-289.199219c0-8.285156-6.714844-15-15-15zm0 0" fill="#001737"/><path d="m319.199219 222.800781h-94.265625v-63.199219c0-26.035156 21.050781-47.132812 47.132812-47.132812 26.027344 0 47.132813 21.0625 47.132813 47.132812zm0 0" fill="#edf6ff"/><path d="m272.066406 112.46875v110.332031h47.132813v-63.199219c0-26.070312-21.105469-47.132812-47.132813-47.132812zm0 0" fill="#d5e9ff"/></svg>