<svg height="512pt" viewBox="0 0 512 512" width="512pt" xmlns="http://www.w3.org/2000/svg"><path d="m416.667969 0h-286.625c-10.472657 0-18.957031 8.488281-18.957031 18.957031v46.480469h-23.28125c-6.554688 0-13.101563.828125-19.394532 2.671875-15.113281 4.433594-28.980468 12.613281-40.464844 24.066406-18.019531 17.972657-27.945312 41.917969-27.945312 67.425781v337.398438c0 8.285156 6.714844 15 15 15h321.332031c8.285157 0 15-6.714844 15-15v-337.398438c0-17.480468 6.796875-33.882812 19.160157-46.210937 12.152343-12.1875 29.039062-19.160156 46.316406-19.125 8.226562.019531 14.855468-6.769531 14.855468-15v-64.265625c.003907-8.285156-6.714843-15-14.996093-15zm0 0" fill="#00eccf"/><path d="m351.335938 497v-337.398438c0-11.898437 3.152343-23.289062 9.058593-33.242187-.417969-1.128906-.855469-2.25-1.3125-3.359375h3.453125c2.320313-3.410156 4.972656-6.632812 7.957032-9.609375 12.121093-12.152344 28.949218-19.125 46.175781-19.125 8.285156 0 15-6.714844 15-15v-64.265625c0-8.285156-6.714844-15-15-15h-144.996094v64.273438c-.222656 0-.445313-.007813-.671875-.007813-52.152344 0-95.335938 42.121094-95.335938 95.332031v337.402344c0 8.285156 6.71875 15 15 15h145.667969c8.285157 0 15.003907-6.714844 15.003907-15zm0 0" fill="#00cab1"/><path d="m497 512h-160.667969c-8.28125 0-15-6.714844-15-15v-337.398438c0-53.214843 43.183594-95.335937 95.335938-95.335937 51.757812 0 95.332031 41.800781 95.332031 95.335937v337.398438c0 8.285156-6.714844 15-15 15zm0 0" fill="#009784"/><g fill="#fffac5"><path d="m95.332031 319.199219c52.433594 0 79.394531-38.644531 80.332031-39.769531 1.007813 1.203124 27.894532 39.769531 80.335938 39.769531 8.28125 0 15-6.714844 15-15 0-8.285157-6.71875-15-15-15-21.046875 0-40.859375-9.28125-54.363281-25.472657-7.859375-9.40625-14.433594-17.3125-14.4375-17.316406-5.996094-7.210937-17.074219-7.207031-23.066407 0-.003906.003906-6.578124 7.910156-14.449218 17.324219-13.492188 16.183594-33.304688 25.464844-54.351563 25.464844-8.28125 0-15 6.714843-15 15 0 8.285156 6.71875 15 15 15zm0 0"/><path d="m95.332031 222.800781h17.132813v17.132813c0 8.285156 6.71875 15 15 15 8.285156 0 15-6.714844 15-15v-17.132813h66.402344v17.132813c0 8.285156 6.714843 15 15 15 8.28125 0 15-6.714844 15-15v-17.132813h17.132812c8.285156 0 15-6.714843 15-15 0-8.285156-6.714844-15-15-15h-17.132812v-17.132812c0-8.285157-6.714844-15-15-15-8.285157 0-15 6.714843-15 15v17.132812h-66.398438v-17.132812c0-8.285157-6.71875-15-15-15-8.285156 0-15 6.714843-15 15v17.132812h-17.136719c-8.28125 0-15 6.714844-15 15 0 8.285157 6.71875 15 15 15zm0 0"/><path d="m239.933594 367.398438c8.285156 0 15-6.714844 15-15 0-8.28125-6.714844-15-15-15h-49.265625v-17.132813c0-8.28125-6.71875-15-15-15-8.285157 0-15 6.71875-15 15v17.132813h-49.269531c-8.28125 0-15 6.71875-15 15 0 8.285156 6.71875 15 15 15h49.265624v49.269531c0 8.28125 6.71875 15 15 15 8.285157 0 15-6.71875 15-15v-49.269531zm0 0"/><path d="m263.296875 419.628906c-13.84375-7.707031-21.472656-17.957031-26.421875-26.492187-4.121094-7.1875-13.289062-9.667969-20.476562-5.546875-7.183594 4.125-9.667969 13.289062-5.542969 20.476562 5.40625 9.472656 16.476562 25.875 37.847656 37.773438 7.234375 4.03125 16.371094 1.429687 20.402344-5.808594s1.429687-16.375-5.808594-20.402344zm0 0"/><path d="m134.941406 387.605469c-7.171875-4.128907-16.339844-1.65625-20.476562 5.515625-4.984375 8.554687-12.5625 18.789062-26.429688 26.507812-7.234375 4.027344-9.835937 13.164063-5.808594 20.402344 4.03125 7.234375 13.164063 9.835938 20.402344 5.808594 21.351563-11.886719 32.425782-28.277344 37.847656-37.773438 4.121094-7.179687 1.640626-16.332031-5.535156-20.460937zm0 0"/></g><path d="m271 304.199219c0 8.28125-6.71875 15-15 15-52.441406 0-79.328125-38.570313-80.328125-39.769531v-38.429688c4.269531 0 8.527344 1.800781 11.527344 5.410156 0 0 6.582031 7.910156 14.441406 17.320313 13.5 16.191406 33.308594 25.46875 54.359375 25.46875 8.28125 0 15 6.722656 15 15zm0 0" fill="#fff36e"/><path d="m271 207.800781c0 8.277344-6.71875 15-15 15h-17.128906v17.128907c0 8.289062-6.722656 15-15 15-8.292969 0-15-6.710938-15-15v-17.128907h-33.199219v-30h33.199219v-17.128906c0-8.292969 6.707031-15 15-15 8.277344 0 15 6.707031 15 15v17.128906h17.128906c8.28125 0 15 6.71875 15 15zm0 0" fill="#fff36e"/><path d="m254.929688 352.398438c0 8.28125-6.710938 15-15 15h-49.257813v49.273437c0 8.277344-6.722656 15-15 15v-126.402344c8.277344 0 15 6.710938 15 15v17.128907h49.257813c8.289062 0 15 6.722656 15 15zm0 0" fill="#fff36e"/><path d="m263.296875 419.628906c-13.84375-7.707031-21.472656-17.957031-26.421875-26.492187-4.121094-7.1875-13.289062-9.667969-20.476562-5.546875-7.183594 4.125-9.667969 13.289062-5.542969 20.476562 5.40625 9.472656 16.476562 25.875 37.847656 37.773438 7.234375 4.03125 16.371094 1.429687 20.402344-5.808594s1.429687-16.375-5.808594-20.402344zm0 0" fill="#fff36e"/></svg>