<svg height="512pt" viewBox="0 0 512 512" width="512pt" xmlns="http://www.w3.org/2000/svg"><g fill="#00eccf"><path d="m352.398438 512h-192.796876c-3.980468 0-7.792968-1.582031-10.609374-4.394531l-144.597657-144.601563c-2.8125-2.8125-4.394531-6.625-4.394531-10.605468v-192.796876c0-3.980468 1.582031-7.792968 4.394531-10.605468l144.597657-144.601563c2.816406-2.8125 6.628906-4.394531 10.609374-4.394531h192.796876c3.980468 0 7.792968 1.582031 10.605468 4.394531l144.601563 144.601563c2.8125 2.8125 4.394531 6.625 4.394531 10.605468v192.796876c0 3.980468-1.582031 7.796874-4.394531 10.609374l-144.601563 144.597657c-2.8125 2.8125-6.625 4.394531-10.605468 4.394531zm-186.585938-30h180.375l135.8125-135.8125v-180.375l-135.8125-135.8125h-180.375l-135.8125 135.8125v180.375zm0 0"/><path d="m304.199219 78.199219h-96.398438c-8.285156 0-15-6.714844-15-15 0-8.28125 6.714844-15 15-15h96.398438c8.285156 0 15 6.71875 15 15 0 8.285156-6.714844 15-15 15zm0 0"/><path d="m288.132812 126.398438h-64.265624c-8.285157 0-15-6.714844-15-15 0-8.28125 6.714843-15 15-15h64.265624c8.285157 0 15 6.71875 15 15 0 8.285156-6.714843 15-15 15zm0 0"/><path d="m304.199219 463.800781h-96.398438c-8.285156 0-15-6.71875-15-15 0-8.285156 6.714844-15 15-15h96.398438c8.285156 0 15 6.714844 15 15 0 8.28125-6.714844 15-15 15zm0 0"/><path d="m288.132812 415.601562h-64.265624c-8.285157 0-15-6.71875-15-15 0-8.285156 6.714843-15 15-15h64.265624c8.285157 0 15 6.714844 15 15 0 8.28125-6.714843 15-15 15zm0 0"/><path d="m143.144531 437.015625-68.164062-68.160156c-5.855469-5.859375-5.855469-15.355469 0-21.214844 5.859375-5.855469 15.359375-5.855469 21.214843 0l68.164063 68.164063c5.855469 5.855468 5.855469 15.355468 0 21.210937-5.863281 5.859375-15.359375 5.855469-21.214844 0zm0 0"/><path d="m165.863281 391.570312-45.445312-45.441406c-5.855469-5.859375-5.855469-15.355468 0-21.214844 5.859375-5.855468 15.355469-5.855468 21.214843 0l45.441407 45.445313c5.859375 5.855469 5.859375 15.355469 0 21.210937-5.859375 5.863282-15.355469 5.859376-21.210938 0zm0 0"/><path d="m63.199219 319.199219c-8.285157 0-15-6.714844-15-15v-96.398438c0-8.285156 6.714843-15 15-15 8.285156 0 15 6.714844 15 15v96.398438c0 8.285156-6.714844 15-15 15zm0 0"/><path d="m111.398438 303.132812c-8.28125 0-15-6.714843-15-15v-64.265624c0-8.285157 6.71875-15 15-15 8.285156 0 15 6.714843 15 15v64.265624c0 8.285157-6.714844 15-15 15zm0 0"/><path d="m74.980469 164.359375c-5.855469-5.859375-5.855469-15.355469 0-21.214844l68.164062-68.160156c5.859375-5.859375 15.355469-5.859375 21.214844 0 5.855469 5.855469 5.855469 15.355469 0 21.210937l-68.164063 68.164063c-5.859374 5.859375-15.355468 5.855469-21.214843 0zm0 0"/><path d="m120.417969 187.085938c-5.859375-5.859376-5.859375-15.355469 0-21.214844l45.445312-45.441406c5.855469-5.859376 15.355469-5.859376 21.210938 0 5.859375 5.855468 5.859375 15.351562 0 21.210937l-45.441407 45.445313c-5.859374 5.859374-15.359374 5.855468-21.214843 0zm0 0"/></g><path d="m366.449219 255.765625c0 61.394531-49.773438 111.164063-111.167969 111.164063s-111.164062-49.769532-111.164062-111.164063 49.769531-111.164063 111.164062-111.164063 111.167969 49.769532 111.167969 111.164063zm0 0" fill="#edf6ff"/><path d="m255.292969 144.601562v222.328126c61.390625-.003907 111.15625-49.773438 111.15625-111.164063s-49.765625-111.160156-111.15625-111.164063zm0 0" fill="#d5e9ff"/><path d="m255.28125 255.765625c30.699219 0 55.585938-24.886719 55.585938-55.582031 0-30.699219-24.886719-55.582032-55.585938-55.582032 61.398438 0 111.167969 49.769532 111.167969 111.164063s-49.769531 111.164063-111.167969 111.164063c-30.695312 0-55.582031-24.882813-55.582031-55.582032 0-30.695312 24.886719-55.582031 55.582031-55.582031zm0 0" fill="#00347b"/><path d="m366.449219 255.765625c0 61.394531-49.773438 111.164063-111.167969 111.164063v-111.164063c30.699219 0 55.585938-24.886719 55.585938-55.582031 0-30.457032-24.5-55.191406-54.867188-55.578125 61.0625.382812 110.449219 50 110.449219 111.160156zm0 0" fill="#001737"/><path d="m255.292969 215.152344c-8.253907 0-14.96875-6.714844-14.96875-14.96875s6.714843-14.96875 14.96875-14.96875c8.253906 0 14.96875 6.714844 14.96875 14.96875s-6.714844 14.96875-14.96875 14.96875zm0 0" fill="#00347b"/><path d="m255.292969 185.214844v29.9375c8.253906 0 14.96875-6.714844 14.96875-14.96875s-6.714844-14.96875-14.96875-14.96875zm0 0" fill="#001737"/><path d="m255.292969 326.316406c-8.253907 0-14.96875-6.714844-14.96875-14.96875s6.714843-14.96875 14.96875-14.96875c8.253906 0 14.96875 6.714844 14.96875 14.96875s-6.714844 14.96875-14.96875 14.96875zm0 0" fill="#edf6ff"/><path d="m255.292969 296.382812v29.933594c8.253906 0 14.96875-6.714844 14.96875-14.96875 0-8.25-6.714844-14.964844-14.96875-14.964844zm0 0" fill="#d5e9ff"/><path d="m415.804688 164.359375-68.164063-68.164063c-5.859375-5.855468-5.859375-15.355468 0-21.210937 5.855469-5.859375 15.355469-5.859375 21.210937 0l68.164063 68.160156c5.859375 5.859375 5.859375 15.355469 0 21.214844s-15.355469 5.855469-21.210937 0zm0 0" fill="#00cab1"/><path d="m380.964844 191.480469c-3.839844 0-7.679688-1.464844-10.605469-4.394531l-45.445313-45.445313c-5.855468-5.855469-5.855468-15.355469 0-21.210937 5.859376-5.859376 15.355469-5.859376 21.214844 0l45.441406 45.441406c5.859376 5.859375 5.859376 15.355468 0 21.214844-2.925781 2.929687-6.765624 4.394531-10.605468 4.394531zm0 0" fill="#00cab1"/><path d="m448.800781 319.199219c-8.285156 0-15-6.714844-15-15v-96.398438c0-8.285156 6.714844-15 15-15 8.28125 0 15 6.714844 15 15v96.398438c0 8.285156-6.71875 15-15 15zm0 0" fill="#00cab1"/><path d="m400.597656 303.132812c-8.28125 0-15-6.714843-15-15v-64.265624c0-8.285157 6.71875-15 15-15 8.285156 0 15 6.714843 15 15v64.265624c0 8.285157-6.714844 15-15 15zm0 0" fill="#00cab1"/><path d="m347.640625 437.015625c-5.859375-5.855469-5.859375-15.355469 0-21.210937l68.164063-68.164063c5.855468-5.855469 15.355468-5.855469 21.210937 0 5.859375 5.859375 5.859375 15.355469 0 21.214844l-68.160156 68.160156c-5.859375 5.859375-15.359375 5.859375-21.214844 0zm0 0" fill="#00cab1"/><path d="m324.914062 391.570312c-5.859374-5.855468-5.859374-15.351562 0-21.210937l45.445313-45.445313c5.855469-5.855468 15.355469-5.855468 21.210937 0 5.859376 5.859376 5.859376 15.355469 0 21.214844l-45.441406 45.441406c-5.859375 5.863282-15.359375 5.859376-21.214844 0zm0 0" fill="#00cab1"/><path d="m507.601562 148.988281-144.589843-144.597656c-2.820313-2.8125-6.632813-4.390625-10.613281-4.390625h-97.097657v30h90.890625l135.808594 135.808594v180.382812l-135.808594 135.808594h-90.890625v30h97.097657c3.980468 0 7.792968-1.578125 10.613281-4.390625l144.589843-144.597656c2.820313-2.820313 4.398438-6.632813 4.398438-10.613281v-192.796876c0-3.980468-1.578125-7.792968-4.398438-10.613281zm0 0" fill="#00cab1"/><path d="m319.199219 63.199219c0 8.289062-6.71875 15-15 15h-48.898438v-30h48.898438c8.28125 0 15 6.722656 15 15zm0 0" fill="#00cab1"/><path d="m303.128906 111.398438c0 8.28125-6.710937 15-15 15h-32.828125v-30h32.828125c8.289063 0 15 6.722656 15 15zm0 0" fill="#00cab1"/><path d="m319.199219 448.800781c0 8.277344-6.71875 15-15 15h-48.898438v-30h48.898438c8.28125 0 15 6.710938 15 15zm0 0" fill="#00cab1"/><path d="m303.128906 400.601562c0 8.277344-6.710937 15-15 15h-32.828125v-30h32.828125c8.289063 0 15 6.71875 15 15zm0 0" fill="#00cab1"/></svg>