<svg height="512pt" viewBox="0 0 512 512" width="512pt" xmlns="http://www.w3.org/2000/svg"><path d="m15 512h482c8.285156 0 15-6.71875 15-15v-362.328125c0-8.285156-6.714844-15-15-15h-482c-8.285156 0-15 6.714844-15 15v362.328125c0 8.28125 6.714844 15 15 15zm0 0" fill="#00cab1"/><path d="m376.480469 284.722656-176.734375-112.46875c-4.324219-2.753906-6.945313-7.523437-6.945313-12.652344v-80.335937c0-11.8125 13.078125-19.003906 23.050781-12.652344l176.734376 112.464844c4.328124 2.753906 6.945312 7.527344 6.945312 12.65625v80.332031c0 11.757813-13.015625 19.039063-23.050781 12.65625zm0 0" fill="#ca7400"/><path d="m207.800781 512c-9.460937 0-15-7.953125-15-15v-128.53125c0-5.128906 2.617188-9.902344 6.945313-12.65625l176.734375-112.46875c9.964843-6.339844 23.050781.832031 23.050781 12.65625v128.53125c0 5.128906-2.617188 9.902344-6.945312 12.65625l-176.734376 112.46875c-2.449218 1.558594-5.246093 2.34375-8.050781 2.34375zm0 0" fill="#db7d00"/><path d="m207.800781 512h-192.800781c-8.285156 0-15-6.714844-15-15v-160.667969c0-8.28125 6.714844-15 15-15h192.800781c8.285157 0 15 6.71875 15 15v160.667969c0 8.285156-6.714843 15-15 15zm0 0" fill="#ffcc01"/><path d="m497 399.53125h-112.46875c-8.28125 0-15-6.714844-15-15v-128.53125c0-8.285156 6.71875-15 15-15h112.46875c8.285156 0 15 6.714844 15 15v128.53125c0 8.285156-6.714844 15-15 15zm0 0" fill="#ffcc01"/><path d="m497 241h-56.230469v158.53125h56.230469c8.28125 0 15-6.710938 15-15v-128.53125c0-8.28125-6.71875-15-15-15zm0 0" fill="#e19600"/><path d="m512 256h-142.46875v-64.265625c0-8.285156 6.71875-15 15-15h112.46875c8.285156 0 15 6.714844 15 15zm0 0" fill="#fff36e"/><path d="m497 176.734375h-56.230469v79.265625h71.230469v-64.265625c0-8.285156-6.714844-15-15-15zm0 0" fill="#ffcc01"/><path d="m508.289062 181.855469-56.234374-64.265625c-2.847657-3.257813-6.960938-5.125-11.289063-5.125-4.324219 0-8.4375 1.867187-11.289063 5.125l-56.230468 64.265625c-2.4375 2.785156-3.707032 6.300781-3.710938 9.863281v.015625h142.464844c0-.007813-.003906-.011719-.003906-.015625-.003906-3.558594-1.269532-7.078125-3.707032-9.863281zm0 0" fill="#fffac5"/><path d="m512 191.71875v.011719h-71.230469v-79.261719c4.320313 0 8.441407 1.859375 11.289063 5.121094l56.230468 64.269531c2.429688 2.78125 3.699219 6.300781 3.710938 9.859375zm0 0" fill="#fff36e"/><path d="m207.800781 321.332031h-96.402343v190.667969h96.402343c8.285157 0 15-6.714844 15-15v-160.667969c0-8.28125-6.714843-15-15-15zm0 0" fill="#e19600"/><path d="m222.800781 336.332031h-222.800781v-96.398437c0-8.285156 6.714844-15 15-15h64.265625c8.285156 0 15 6.714844 15 15v17.132812h34.269531v-17.132812c0-8.285156 6.714844-15 15-15h64.265625c8.285157 0 15 6.714844 15 15zm0 0" fill="#fff36e"/><path d="m207.800781 224.933594h-64.269531c-8.28125 0-15 6.714844-15 15v17.132812h-17.132812v79.269532h111.402343v-96.402344c0-8.285156-6.714843-15-15-15zm0 0" fill="#ffcc01"/><path d="m207.800781 174.601562h-96.402343c-8.28125 0-15-6.71875-15-15v-80.335937c0-8.28125 6.71875-15 15-15h96.402343c8.285157 0 15 6.71875 15 15v80.335937c0 8.28125-6.714843 15-15 15zm0 0" fill="#fff36e"/><path d="m207.800781 64.265625h-48.199219v110.335937h48.199219c8.285157 0 15-6.71875 15-15v-80.335937c0-8.285156-6.714843-15-15-15zm0 0" fill="#ffcc01"/><path d="m222.792969 79.21875c-.011719-3.171875-1.019531-6.320312-2.992188-8.953125l-48.199219-64.265625c-2.835937-3.777344-7.28125-6-12-6-4.722656 0-9.167968 2.222656-12 6l-48.203124 64.265625c-1.96875 2.625-2.976563 5.765625-2.992188 8.925781 0 .027344-.007812.050782-.007812.074219h126.402343c0-.015625-.007812-.03125-.007812-.046875zm0 0" fill="#fffac5"/><path d="m171.601562 6c-2.835937-3.777344-7.28125-6-12-6v79.265625h63.199219c0-.015625-.007812-.03125-.007812-.046875-.011719-3.167969-1.019531-6.320312-2.992188-8.953125zm0 0" fill="#fff36e"/></svg>