<svg height="512pt" viewBox="0 0 512 512" width="512pt" xmlns="http://www.w3.org/2000/svg"><path d="m15 94.265625h297.417969c8.285156 0 15-6.714844 15-15v-32.148437c0-25.980469 21.136719-47.117188 47.117187-47.117188h-327.417968c-26.023438 0-47.117188 21.09375-47.117188 47.117188v32.148437c0 8.285156 6.714844 15 15 15zm0 0" fill="#00347b"/><path d="m384.585938 0h-337.46875c25.960937.0195312 47.078124 21.148438 47.078124 47.117188v417.765624c0 25.96875 21.117188 47.097657 47.078126 47.117188h275.390624c8.285157 0 15-6.714844 15-15v-449.882812c0-25.96875-21.113281-47.0976568-47.078124-47.117188zm0 0" fill="#edf6ff"/><path d="m431.664062 497v-449.882812c0-25.941407-21.070312-47.0507818-46.996093-47.11328175h-168.34375c25.964843.01953125 47.078125 21.14843775 47.078125 47.11328175v417.769531c0 25.9375 21.074218 47.046875 47 47.113281h106.261718c8.285157 0 15-6.714844 15-15zm0 0" fill="#d5e9ff"/><path d="m497 417.734375h-297.417969c-8.285156 0-15 6.714844-15 15v32.148437c0 25.980469-21.136719 47.117188-47.117187 47.117188h327.417968c26.023438 0 47.117188-21.09375 47.117188-47.117188v-32.148437c0-8.285156-6.714844-15-15-15zm0 0" fill="#00347b"/><path d="m512 464.882812v-32.148437c0-8.285156-6.714844-15-15-15h-143.085938v47.148437c0 25.980469-21.136718 47.117188-47.117187 47.117188h158.085937c26.023438 0 47.117188-21.09375 47.117188-47.117188zm0 0" fill="#001737"/><path d="m373.621094 256c0 61.523438-49.875 111.398438-111.398438 111.398438-61.523437 0-111.398437-49.875-111.398437-111.398438s49.875-111.398438 111.398437-111.398438c61.523438 0 111.398438 49.875 111.398438 111.398438zm0 0" fill="#fff"/><path d="m262.234375 144.601562v222.796876c61.519531-.003907 111.390625-49.878907 111.390625-111.398438s-49.871094-111.394531-111.390625-111.398438zm0 0" fill="#edf6ff"/><path d="m262.222656 256c30.761719 0 55.703125-24.9375 55.703125-55.699219s-24.941406-55.699219-55.703125-55.699219c61.523438 0 111.398438 49.875 111.398438 111.398438s-49.875 111.398438-111.398438 111.398438c-30.761718 0-55.699218-24.9375-55.699218-55.699219s24.9375-55.699219 55.699218-55.699219zm0 0" fill="#00347b"/><path d="m373.625 256c0 61.523438-49.878906 111.398438-111.398438 111.398438v-111.398438c30.757813 0 55.699219-24.9375 55.699219-55.699219 0-30.523437-24.550781-55.308593-54.984375-55.695312 61.191406.382812 110.683594 50.109375 110.683594 111.394531zm0 0" fill="#001737"/><path d="m262.234375 215.300781c-8.269531 0-15-6.730469-15-15 0-8.273437 6.730469-15 15-15 8.273437 0 15 6.726563 15 15 0 8.269531-6.726563 15-15 15zm0 0" fill="#00347b"/><path d="m262.234375 185.300781v30c8.273437 0 15-6.730469 15-15 0-8.273437-6.726563-15-15-15zm0 0" fill="#001737"/><g fill="#edf6ff"><path d="m262.234375 326.699219c-8.269531 0-15-6.726563-15-15 0-8.269531 6.730469-15 15-15 8.273437 0 15 6.730469 15 15 0 8.273437-6.726563 15-15 15zm0 0"/><path d="m262.234375 296.699219v30c8.273437 0 15-6.726563 15-15 0-8.269531-6.726563-15-15-15zm0 0"/></g></svg>