<svg height="512pt" viewBox="-96 0 512 512" width="512pt" xmlns="http://www.w3.org/2000/svg"><path d="m272.066406 512h-224.933594c-26.03125 0-47.132812-21.101562-47.132812-47.132812v-136.429688c0-45.167969 19.253906-88.40625 52.824219-118.632812l27.507812-24.75v-57.585938c0-8.285156 6.71875-15 15-15h128.535157c8.28125 0 15 6.714844 15 15v57.585938c5.863281 5.28125 16.261718 14.640624 27.492187 24.746093 33.582031 30.222657 52.839844 73.464844 52.839844 118.636719v136.429688c0 26.03125-21.101563 47.132812-47.132813 47.132812zm0 0" fill="#00eccf"/><path d="m266.359375 209.800781c-11.230469-10.105469-21.625-19.464843-27.492187-24.746093v-57.585938c0-8.285156-6.714844-15-15-15h-64.871094v399.53125h113.070312c26.03125 0 47.132813-21.101562 47.132813-47.132812v-136.429688c0-45.171875-19.257813-88.414062-52.839844-118.636719zm0 0" fill="#00cab1"/><path d="m223.867188 110.332031h-128.535157c-7.148437 0-13.304687-5.046875-14.707031-12.058593l-16.066406-80.332032c-1.855469-9.285156 5.257812-17.941406 14.707031-17.941406h160.667969c9.46875 0 16.558594 8.675781 14.707031 17.941406l-16.066406 80.332032c-1.402344 7.011718-7.558594 12.058593-14.707031 12.058593zm0 0" fill="#fff36e"/><path d="m239.933594 0h-80.9375v110.332031h64.871094c7.148437 0 13.304687-5.046875 14.707031-12.058593l16.066406-80.332032c1.855469-9.265625-5.238281-17.941406-14.707031-17.941406zm0 0" fill="#ffcc01"/><path d="m254.320312 336.335938c0 52.648437-42.683593 95.332031-95.335937 95.332031-52.648437 0-95.332031-42.683594-95.332031-95.332031 0-52.652344 42.683594-95.335938 95.332031-95.335938 52.652344 0 95.335937 42.683594 95.335937 95.335938zm0 0" fill="#fff"/><path d="m158.996094 241v190.667969c52.644531-.007813 95.324218-42.6875 95.324218-95.332031 0-52.648438-42.679687-95.328126-95.324218-95.335938zm0 0" fill="#edf6ff"/><path d="m158.984375 336.335938c26.328125 0 47.667969-21.34375 47.667969-47.667969s-21.339844-47.664063-47.667969-47.664063c52.652344 0 95.335937 42.679688 95.335937 95.332032 0 52.648437-42.683593 95.332031-95.335937 95.332031-26.324219 0-47.664063-21.339844-47.664063-47.664063 0-26.328125 21.339844-47.667968 47.664063-47.667968zm0 0" fill="#00347b"/><path d="m254.320312 336.335938c0 52.648437-42.683593 95.332031-95.335937 95.332031v-95.332031c26.328125 0 47.667969-21.34375 47.667969-47.667969 0-26.121094-21.011719-47.332031-47.050782-47.664063 52.363282.328125 94.71875 42.882813 94.71875 95.332032zm0 0" fill="#001737"/><path d="m238.867188 80.335938h-158.535157c-17.746093 0-32.132812 14.386718-32.132812 32.132812s14.386719 32.132812 32.132812 32.132812h158.535157c17.746093 0 32.132812-14.386718 32.132812-32.132812s-14.386719-32.132812-32.132812-32.132812zm0 0" fill="#00cab1"/><path d="m238.867188 80.335938h-79.871094v64.265624h79.871094c17.746093 0 32.132812-14.386718 32.132812-32.132812s-14.386719-32.132812-32.132812-32.132812zm0 0" fill="#009784"/><path d="m158.996094 303.667969c-8.269532 0-15-6.730469-15-15 0-8.273438 6.730468-15 15-15 8.269531 0 15 6.726562 15 15 0 8.269531-6.730469 15-15 15zm0 0" fill="#00347b"/><path d="m158.996094 273.667969v29.996093c8.269531 0 15-6.726562 15-14.996093 0-8.273438-6.730469-15-15-15zm0 0" fill="#001737"/><g fill="#edf6ff"><path d="m158.984375 399c-8.269531 0-15-6.730469-15-15s6.730469-15 15-15c8.273437 0 15 6.730469 15 15s-6.726563 15-15 15zm0 0"/><path d="m158.984375 369v30c8.273437 0 15-6.730469 15-15s-6.726563-15-15-15zm0 0"/></g></svg>