<svg height="512pt" viewBox="-80 0 511 512" width="512pt" xmlns="http://www.w3.org/2000/svg"><path d="m288.632812 512h-224.933593c-11.953125 0-19.121094-13.359375-12.480469-23.320312 16.839844-25.261719 18.867188-57.828126 5.289062-84.988282 0 0-53.582031-176.902344-49.621093-188.191406 13.160156-37.496094 43.269531-57.867188 57.707031-65.085938 26.351562-13.367187 32.304688-35.609374 32.304688-50.421874 0-1.921876-.070313-3.828126-.214844-5.722657-.347656-4.585937 13.316406-14.269531 13.316406-14.269531s-19.378906-10.515625-22.273438-15.738281c-3.300781-5.953125-7.457031-11.480469-12.40625-16.425781-11.398437-11.394532-22.230468-22.234376-22.230468-22.234376-9.425782-9.429687-2.722656-25.601562 10.609375-25.601562h224.933593c13.335938 0 20.039063 16.175781 10.605469 25.605469l-22.226562 22.230469c-4.96875 4.96875-9.136719 10.515624-12.449219 16.496093-2.527344 4.570313-26.230469 14.9375-26.230469 14.9375s17.714844 9.667969 17.3125 14.980469c-.140625 1.878906-.210937 3.773438-.210937 5.679688 0 9.636718 2.4375 35.144531 32.371094 50.523437 14.246093 7.136719 43.855468 27.148437 57.21875 63.875 4.210937 11.566406-49.199219 189.367187-49.199219 189.367187-13.585938 27.160157-11.558594 59.722657 5.289062 84.984376 6.632813 9.945312-.507812 23.320312-12.480469 23.320312zm0 0" fill="#00347b"/><path d="m287.804688 150.453125c-29.933594-15.378906-32.371094-40.886719-32.371094-50.523437 0-1.90625.070312-3.800782.210937-5.683594.363281-4.777344-20.480469-14.246094-20.480469-14.246094s26.617188-10.640625 29.402344-15.667969c3.308594-5.980469 7.480469-11.53125 12.445313-16.496093l22.226562-22.230469c9.429688-9.429688 2.730469-25.605469-10.605469-25.605469h-112.46875v512h112.46875c11.972657 0 19.109376-13.375 12.476563-23.320312-16.84375-25.261719-18.871094-57.824219-5.289063-84.988282 0 0 53.414063-177.796875 49.203126-189.363281-13.363282-36.730469-42.972657-56.742187-57.21875-63.875zm0 0" fill="#001737"/><path d="m176.164062 412.988281c-13.386718 0-25.230468-8.53125-29.472656-21.230469l-25.316406-75.960937c-5.578125-16.742187-8.410156-34.175781-8.410156-51.820313 0-20.089843 9.972656-38.722656 26.679687-49.855468 13.242188-8.832032 28.203125-18.804688 28.203125-18.804688 5.039063-3.355468 11.601563-3.355468 16.640625.003906l28.203125 18.804688c16.703125 11.125 26.675782 29.761719 26.675782 49.84375 0 17.652344-2.832032 35.085938-8.410157 51.824219l-25.320312 75.953125c-4.234375 12.707031-16.074219 21.242187-29.472657 21.242187zm0 0" fill="#c3deff"/><path d="m94.765625 381.191406v-67.640625c0-32.253906-6.964844-78.324219-47.0625-98.386719l-19.191406-9.59375c-2.390625-1.191406-16.300781-5.503906-21.816407 10.488282-3.847656 11.152344-6.195312 23.808594-6.195312 38.070312 0 24.5625 5.804688 49.15625 16.789062 71.125l38.8125 77.617188c9.316407 18.636718 38.664063 2.945312 38.664063-21.679688zm0 0" fill="#c3deff"/><path d="m255.667969 94.265625c.804687-10.636719 3.863281-20.824219 8.953125-30h-176.914063c5.085938 9.167969 8.144531 19.347656 8.953125 30zm0 0" fill="#edf6ff"/><path d="m62.285156 463.824219h227.753906c-2.640624-9.785157-3.511718-19.972657-2.585937-30.050781h-222.582031c.929687 10.078124.054687 20.265624-2.585938 30.050781zm0 0" fill="#edf6ff"/><path d="m257.566406 381.128906v-67.644531c0-32.253906 6.964844-78.324219 47.0625-98.386719l19.191406-9.589844c2.390626-1.195312 16.300782-5.507812 21.816407 10.484376 3.847656 11.152343 6.195312 23.808593 6.195312 38.070312 0 24.5625-5.808593 49.15625-16.792969 71.125l-38.808593 77.621094c-9.316407 18.636718-38.664063 2.941406-38.664063-21.679688zm0 0" fill="#aed3ff"/><path d="m212.695312 214.128906-28.210937-18.808594c-2.519531-1.679687-5.417969-2.519531-8.320313-2.519531v220.191407c13.402344 0 25.242188-8.542969 29.472657-21.242188l25.320312-75.960938c5.578125-16.726562 8.410157-34.167968 8.410157-51.816406 0-20.082031-9.972657-38.722656-26.671876-49.84375zm0 0" fill="#aed3ff"/><g fill="#d5e9ff"><path d="m264.625 64.269531c-5.097656 9.167969-8.148438 19.359375-8.960938 30h-79.5v-30zm0 0"/><path d="m290.035156 463.828125h-113.871094v-30.054687h111.289063c-.921875 10.078124-.050781 20.265624 2.582031 30.054687zm0 0"/></g></svg>