<svg height="512pt" viewBox="-112 0 512 512" width="512pt" xmlns="http://www.w3.org/2000/svg"><path d="m143.546875 512c-8.285156 0-15-6.714844-15-15v-64.265625c0-8.285156 6.714844-15 15-15s15 6.714844 15 15v64.265625c0 8.285156-6.714844 15-15 15zm0 0" fill="#c7001c"/><path d="m143.546875 383.46875c-8.285156 0-15-6.71875-15-15v-48.199219c0-8.285156 6.714844-15 15-15s15 6.714844 15 15v48.199219c0 8.28125-6.714844 15-15 15zm0 0" fill="#c7001c"/><path d="m143.546875 383.46875c8.285156 0 15-6.71875 15-15v-48.199219c0-8.285156-6.714844-15-15-15zm0 0" fill="#a50017"/><path d="m143.546875 512c8.285156 0 15-6.714844 15-15v-64.265625c0-8.285156-6.714844-15-15-15zm0 0" fill="#a50017"/><path d="m285.785156 185.65625c-.007812-.015625-.003906-.03125-.011718-.046875l-26.011719-58.140625 26.011719-58.140625c4.433593-9.917969-2.839844-21.125-13.691407-21.125h-257.066406c-10.867187 0-18.125 11.21875-13.695313 21.125l26.011719 58.140625-26.011719 58.140625c-.003906.011719-.003906.027344-.007812.039063-1.710938 3.855468-1.742188 8.296874.007812 12.210937l26.011719 58.144531-26.011719 58.140625c-4.433593 9.917969 2.839844 21.125 13.695313 21.125h257.0625c10.867187 0 18.125-11.21875 13.691406-21.125l-26.007812-58.140625 26.007812-58.144531c1.753907-3.914063 1.722657-8.347656.015625-12.203125zm0 0" fill="#ff8d9d"/><path d="m272.078125 48.203125h-128.53125v287.0625h128.53125c10.867187 0 18.125-11.214844 13.691406-21.125l-26.007812-58.140625 26.007812-58.140625c1.753907-3.914063 1.722657-8.351563.015625-12.203125-.007812-.019531-.007812-.03125-.015625-.050781l-26.007812-58.136719 26.007812-58.144531c4.4375-9.914063-2.835937-21.121094-13.691406-21.121094zm0 0" fill="#ff415b"/><path d="m191.746094 78.199219c-8.285156 0-15-6.714844-15-15 0-18.304688-14.890625-33.199219-33.199219-33.199219s-33.199219 14.894531-33.199219 33.199219c0 8.285156-6.714844 15-15 15s-15-6.714844-15-15c0-34.847657 28.351563-63.199219 63.199219-63.199219s63.199219 28.351562 63.199219 63.199219c0 8.285156-6.714844 15-15 15zm0 0" fill="#ffcc01"/><path d="m1.320312 197.859375 26.011719 58.140625h232.429688l26.011719-58.140625c.875-1.957031 1.304687-4.042969 1.300781-6.125h-287.0546878c-.0039062 2.082031.4257808 4.167969 1.3007808 6.125zm0 0" fill="#ff415b"/><path d="m272.078125 48.203125h-257.0625c-10.867187 0-18.125 11.21875-13.695313 21.125l26.011719 58.140625h232.429688l26.011719-58.140625c4.433593-9.917969-2.839844-21.125-13.695313-21.125zm0 0" fill="#ff415b"/><path d="m143.546875 0v30c18.304687 0 33.199219 14.894531 33.199219 33.199219 0 8.285156 6.714844 15 15 15s15-6.714844 15-15c0-34.847657-28.351563-63.199219-63.199219-63.199219zm0 0" fill="#e19600"/><path d="m272.078125 48.203125h-128.53125v79.265625h116.214844l26.011719-58.140625c4.433593-9.917969-2.839844-21.125-13.695313-21.125zm0 0" fill="#c7001c"/><path d="m143.546875 256h116.214844l26.011719-58.140625c.875-1.957031 1.304687-4.042969 1.300781-6.125h-143.527344zm0 0" fill="#c7001c"/><path d="m143.546875 447.734375c-25.988281 0-47.132813-21.144531-47.132813-47.132813 0-25.992187 21.144532-47.136718 47.132813-47.136718s47.132813 21.144531 47.132813 47.136718c0 25.988282-21.144532 47.132813-47.132813 47.132813zm0 0" fill="#fff36e"/><path d="m143.546875 447.734375c25.988281 0 47.132813-21.144531 47.132813-47.132813 0-25.992187-21.144532-47.132812-47.132813-47.132812zm0 0" fill="#ffcc01"/><path d="m143.546875 417.734375c-9.445313 0-17.132813-7.6875-17.132813-17.132813 0-9.449218 7.6875-17.132812 17.132813-17.132812s17.132813 7.683594 17.132813 17.132812c0 9.445313-7.6875 17.132813-17.132813 17.132813zm0 0" fill="#ffcc01"/><path d="m143.546875 417.734375c9.445313 0 17.132813-7.6875 17.132813-17.132813 0-9.449218-7.6875-17.132812-17.132813-17.132812zm0 0" fill="#e19600"/></svg>