<svg height="512pt" viewBox="-48 0 512 512" width="512pt" xmlns="http://www.w3.org/2000/svg"><path d="m207.800781 512c-8.285156 0-15-6.714844-15-15v-104.964844c0-8.285156 6.714844-15 15-15 8.28125 0 15 6.714844 15 15v104.964844c0 8.285156-6.71875 15-15 15zm0 0" fill="#c7001c"/><path d="m222.800781 497v-104.964844c0-8.285156-6.71875-15-15-15v134.964844c8.28125 0 15-6.714844 15-15zm0 0" fill="#a50017"/><path d="m256 78.199219c-8.285156 0-15-6.714844-15-15 0-18.304688-14.894531-33.199219-33.199219-33.199219-18.308593 0-33.203125 14.894531-33.203125 33.199219 0 8.285156-6.714844 15-15 15-8.28125 0-15-6.714844-15-15 0-34.847657 28.351563-63.199219 63.203125-63.199219 34.847657 0 63.199219 28.351562 63.199219 63.199219 0 8.285156-6.71875 15-15 15zm0 0" fill="#ffcc01"/><path d="m241 63.199219c0 8.285156 6.714844 15 15 15 8.28125 0 15-6.714844 15-15 0-34.847657-28.351562-63.199219-63.199219-63.199219v30c18.304688 0 33.199219 14.894531 33.199219 33.199219zm0 0" fill="#e19600"/><path d="m288.132812 415.601562h-160.667968c-8.28125 0-15-6.71875-15-15v-48.203124c0-8.28125 6.71875-15 15-15h160.667968c8.28125 0 15 6.71875 15 15v48.203124c0 8.28125-6.71875 15-15 15zm0 0" fill="#fff36e"/><path d="m288.132812 337.398438h-80.332031v78.203124h80.332031c8.28125 0 15-6.71875 15-15v-48.203124c0-8.28125-6.71875-15-15-15zm0 0" fill="#ffcc01"/><path d="m288.132812 126.402344h-160.667968c-8.28125 0-15-6.71875-15-15v-48.199219c0-8.285156 6.71875-15 15-15h160.667968c8.28125 0 15 6.714844 15 15v48.199219c0 8.285156-6.71875 15-15 15zm0 0" fill="#fff36e"/><path d="m288.132812 48.203125h-80.332031v78.199219h80.332031c8.28125 0 15-6.71875 15-15v-48.199219c0-8.285156-6.71875-15-15-15zm0 0" fill="#ffcc01"/><path d="m280.097656 367.398438h-144.597656c-74.714844 0-135.5-60.78125-135.5-135.496094s60.785156-135.5 135.5-135.5h144.597656c74.714844 0 135.5 60.785156 135.5 135.5s-60.785156 135.496094-135.5 135.496094zm0 0" fill="#ff8d9d"/><path d="m280.097656 96.402344h-72.296875v270.996094h72.296875c74.714844 0 135.5-60.78125 135.5-135.496094s-60.785156-135.5-135.5-135.5zm0 0" fill="#ff415b"/><path d="m207.816406 367.398438c-61.65625 0-111.417968-49.855469-111.417968-111.382813v-48.230469c0-61.515625 49.765624-111.382812 111.382812-111.382812 61.582031 0 111.417969 49.78125 111.417969 111.382812v48.230469c0 61.519531-49.765625 111.382813-111.382813 111.382813zm0 0" fill="#ff415b"/><path d="m207.800781 96.402344v270.996094h.015625c61.617188 0 111.382813-49.867188 111.382813-111.382813v-48.230469c0-61.59375-49.828125-111.375-111.398438-111.382812zm0 0" fill="#c7001c"/></svg>