<svg height="512pt" viewBox="-177 0 512 512" width="512pt" xmlns="http://www.w3.org/2000/svg"><path d="m79.265625 351.332031c-8.28125 0-15-6.714843-15-15v-321.332031c0-8.285156 6.71875-15 15-15 8.285156 0 15 6.714844 15 15v321.332031c0 8.285157-6.714844 15-15 15zm0 0" fill="#c7001c"/><path d="m94.265625 336.332031v-321.332031c0-8.285156-6.714844-15-15-15v351.332031c8.285156 0 15-6.714843 15-15zm0 0" fill="#a50017"/><path d="m79.265625 291.191406c-43.707031 0-79.265625-35.558594-79.265625-79.265625s35.558594-79.265625 79.265625-79.265625c43.710937 0 79.269531 35.558594 79.269531 79.265625s-35.558594 79.265625-79.269531 79.265625zm0 0" fill="#fff36e"/><path d="m79.265625 162.660156c-27.164063 0-49.265625 22.101563-49.265625 49.265625 0 27.167969 22.101562 49.265625 49.265625 49.265625 27.167969 0 49.269531-22.097656 49.269531-49.265625 0-27.164062-22.101562-49.265625-49.269531-49.265625zm0 0" fill="#ffcc01"/><path d="m79.265625 132.660156v158.53125c43.710937 0 79.269531-35.5625 79.269531-79.261718 0-43.710938-35.558594-79.269532-79.269531-79.269532zm0 0" fill="#ffcc01"/><path d="m128.535156 211.929688c0 27.160156-22.097656 49.261718-49.269531 49.261718v-98.53125c27.171875 0 49.269531 22.097656 49.269531 49.269532zm0 0" fill="#e19600"/><path d="m109.046875 57.738281-19.171875-19.171875c-5.859375-5.855468-15.355469-5.855468-21.214844 0l-19.171875 19.171875c-5.859375 5.859375-5.859375 15.355469 0 21.214844l19.171875 19.171875c5.859375 5.859375 15.355469 5.859375 21.210938 0l19.175781-19.171875c5.859375-5.859375 5.859375-15.355469 0-21.214844zm0 0" fill="#fff36e"/><path d="m89.875 98.125 19.171875-19.171875c5.859375-5.859375 5.859375-15.355469 0-21.214844l-19.171875-19.171875c-2.929688-2.929687-6.769531-4.394531-10.609375-4.394531v68.347656c3.839844 0 7.679687-1.464843 10.609375-4.394531zm0 0" fill="#ffcc01"/><path d="m127.46875 512h-96.402344c-9.269531 0-16.316406-8.335938-14.796875-17.464844l16.070313-96.398437c1.203125-7.234375 7.460937-12.535157 14.792968-12.535157h64.265626c7.335937 0 13.59375 5.300782 14.796874 12.535157l16.066407 96.398437c1.523437 9.140625-5.535157 17.464844-14.792969 17.464844zm0 0" fill="#ff415b"/><path d="m126.195312 398.136719c-1.203124-7.234375-7.460937-12.535157-14.796874-12.535157h-32.132813v126.398438h48.203125c9.253906 0 16.316406-8.324219 14.792969-17.464844zm0 0" fill="#c7001c"/><path d="m126.398438 399.359375v-30.910156c0-25.976563-21.132813-47.113281-47.132813-47.113281-25.988281 0-47.132813 21.140624-47.132813 47.132812v30.890625zm0 0" fill="#fff36e"/><path d="m126.398438 399.359375v-30.910156c0-25.976563-21.132813-47.113281-47.132813-47.113281v78.023437zm0 0" fill="#ffcc01"/></svg>