<svg height="512pt" viewBox="-129 0 512 512" width="512pt" xmlns="http://www.w3.org/2000/svg"><path d="m63.910156 174.601562c-8.28125 0-15-6.714843-15-15v-64.265624c0-8.285157 6.71875-15 15-15 8.285156 0 15 6.714843 15 15v64.265624c0 8.285157-6.714844 15-15 15zm0 0" fill="#c7001c"/><path d="m63.910156 80.335938v94.265624c8.285156 0 15-6.714843 15-15v-64.265624c0-8.285157-6.714844-15-15-15zm0 0" fill="#a50017"/><path d="m191.019531 174.601562c-8.28125 0-15-6.714843-15-15v-64.265624c0-8.285157 6.71875-15 15-15 8.285157 0 15 6.714843 15 15v64.265624c0 8.285157-6.714843 15-15 15zm0 0" fill="#c7001c"/><path d="m191.019531 80.335938v94.265624c8.285157 0 15-6.714843 15-15v-64.265624c0-8.285157-6.714843-15-15-15zm0 0" fill="#a50017"/><path d="m127.464844 447.734375c-8.28125 0-15-6.71875-15-15v-337.398437c0-8.285157 6.71875-15 15-15 8.285156 0 15 6.714843 15 15v337.398437c0 8.285156-6.714844 15-15 15zm0 0" fill="#c7001c"/><path d="m127.464844 80.335938v367.398437c8.285156 0 15-6.71875 15-15v-337.398437c0-8.285157-6.714844-15-15-15zm0 0" fill="#a50017"/><path d="m218.40625 84.726562-80.335938-80.332031c-5.855468-5.859375-15.351562-5.859375-21.210937 0l-80.332031 80.332031c-5.859375 5.855469-5.859375 15.355469 0 21.210938 5.855468 5.859375 15.355468 5.859375 21.210937 0l54.726563-54.726562v44.121093c0 8.285157 6.71875 15 15 15 8.285156 0 15-6.714843 15-15v-44.121093l54.726562 54.726562c2.929688 2.929688 6.769532 4.394531 10.609375 4.394531 3.835938 0 7.675781-1.464843 10.605469-4.394531 5.859375-5.855469 5.859375-15.355469 0-21.210938zm0 0" fill="#ffcc01"/><path d="m138.070312 4.394531c-2.925781-2.929687-6.765624-4.394531-10.605468-4.394531v110.332031c8.285156 0 15-6.714843 15-15v-44.117187l54.726562 54.726562c2.929688 2.925782 6.769532 4.394532 10.609375 4.394532 3.835938 0 7.675781-1.46875 10.605469-4.394532 5.855469-5.859375 5.855469-15.355468 0-21.214844zm0 0" fill="#e19600"/><path d="m239.933594 110.335938h-224.933594c-8.285156 0-15-6.71875-15-15 0-8.285157 6.714844-15 15-15h224.933594c8.28125 0 15 6.714843 15 15 0 8.28125-6.71875 15-15 15zm0 0" fill="#fff36e"/><path d="m80.6875 144.601562h-33.554688c-8.285156 0-15 6.714844-15 15v128.53125c0 8.285157 6.714844 15 15 15h33.554688c8.285156 0 15-6.714843 15-15v-128.53125c0-8.285156-6.714844-15-15-15zm0 0" fill="#ff8d9d"/><path d="m144.242188 144.601562h-33.554688c-8.28125 0-15 6.714844-15 15v192.796876c0 8.285156 6.71875 15 15 15h33.554688c8.285156 0 15-6.714844 15-15v-192.796876c0-8.285156-6.714844-15-15-15zm0 0" fill="#ff8d9d"/><path d="m207.800781 144.601562h-33.558593c-8.28125 0-15 6.714844-15 15v160.667969c0 8.28125 6.71875 15 15 15h33.558593c8.28125 0 15-6.71875 15-15v-160.667969c0-8.285156-6.71875-15-15-15zm0 0" fill="#ff8d9d"/><path d="m127.464844 512c-25.988282 0-47.132813-21.144531-47.132813-47.132812 0-25.988282 21.144531-47.132813 47.132813-47.132813 25.988281 0 47.132812 21.144531 47.132812 47.132813 0 25.988281-21.144531 47.132812-47.132812 47.132812zm0 0" fill="#fff36e"/><path d="m80.6875 144.601562h-16.777344v158.53125h16.777344c8.285156 0 15-6.714843 15-15v-128.53125c0-8.285156-6.714844-15-15-15zm0 0" fill="#ff415b"/><path d="m144.242188 144.601562h-16.777344v222.796876h16.777344c8.285156 0 15-6.714844 15-15v-192.796876c0-8.285156-6.714844-15-15-15zm0 0" fill="#ff415b"/><path d="m207.800781 144.601562h-16.78125v190.667969h16.78125c8.28125 0 15-6.71875 15-15v-160.667969c0-8.285156-6.71875-15-15-15zm0 0" fill="#ff415b"/><g fill="#ffcc01"><path d="m239.933594 80.335938h-112.46875v30h112.46875c8.28125 0 15-6.71875 15-15 0-8.285157-6.71875-15-15-15zm0 0"/><path d="m127.464844 417.734375v94.265625c25.988281 0 47.132812-21.144531 47.132812-47.132812 0-25.988282-21.144531-47.132813-47.132812-47.132813zm0 0"/><path d="m127.464844 447.734375c-9.445313 0-17.132813 7.683594-17.132813 17.132813 0 9.445312 7.6875 17.132812 17.132813 17.132812 9.449218 0 17.132812-7.6875 17.132812-17.132812 0-9.449219-7.683594-17.132813-17.132812-17.132813zm0 0"/></g><path d="m127.464844 447.734375v34.265625c9.449218 0 17.132812-7.6875 17.132812-17.132812 0-9.449219-7.683594-17.132813-17.132812-17.132813zm0 0" fill="#e19600"/></svg>