<svg height="512pt" viewBox="0 0 512.00049 512" width="512pt" xmlns="http://www.w3.org/2000/svg"><path d="m448.796875 415.601562h-385.59375c-8.285156 0-15-6.71875-15-15v-112.46875c0-8.285156 6.714844-15 15-15h385.59375c8.285156 0 15 6.714844 15 15v112.46875c0 8.285157-6.714844 15-15 15zm0 0" fill="#ff415b"/><path d="m448.796875 273.132812h-192.796875v142.46875h192.796875c8.285156 0 15-6.71875 15-15v-112.46875c0-8.285156-6.714844-15-15-15zm0 0" fill="#c7001c"/><path d="m448.796875 303.132812h-385.59375c-25.507813 0-48.464844-14.183593-59.921875-37.015624-1.082031-2.15625-1.746094-3.515626-1.746094-3.515626-2.28125-4.648437-2-10.144531.738282-14.539062 2.742187-4.390625 7.550781-7.0625 12.730468-7.0625h6.34375c31.234375 0 60.234375-15.523438 77.574219-41.523438 2.785156-4.171874 7.464844-6.675781 12.480469-6.675781h289.195312c5.015625 0 9.695313 2.503907 12.480469 6.675781 17.339844 26 46.339844 41.523438 77.574219 41.523438h6.34375c5.179687 0 9.992187 2.671875 12.730468 7.0625 2.738282 4.394531 3.019532 9.890625.738282 14.539062 0 0-.664063 1.359376-1.75 3.519532-11.449219 22.828125-34.410156 37.011718-59.917969 37.011718zm0 0" fill="#fff36e"/><path d="m509.726562 248.0625c-2.738281-4.390625-7.546874-7.0625-12.726562-7.0625h-6.351562c-31.230469 0-60.230469-15.519531-77.570313-41.519531-2.78125-4.179688-7.46875-6.679688-12.480469-6.679688h-144.597656v110.332031h192.800781c25.507813 0 48.46875-14.179687 59.917969-37.011718 1.082031-2.160156 1.75-3.519532 1.75-3.519532 2.28125-4.652343 2-10.140624-.742188-14.539062zm0 0" fill="#ffcc01"/><path d="m400.597656 222.800781h-289.195312c-8.285156 0-15-6.714843-15-15v-64.265625c0-8.285156 6.714844-15 15-15h289.195312c8.285156 0 15 6.714844 15 15v64.265625c0 8.285157-6.714844 15-15 15zm0 0" fill="#ff415b"/><path d="m400.597656 128.535156h-144.597656v94.265625h144.597656c8.285156 0 15-6.714843 15-15v-64.265625c0-8.285156-6.714844-15-15-15zm0 0" fill="#c7001c"/><path d="m478.714844 105.640625c-2.328125-5.59375-7.789063-9.238281-13.851563-9.238281-35.554687 0-69.507812-16.976563-90.792969-45.375-2.660156-3.566406-4.96875-6.648438-6.671874-8.910156v-27.117188c0-8.28125-6.714844-15-15-15-8.28125 0-15 6.71875-15 15v17.136719h-162.796876v-17.136719c0-8.28125-6.714843-15-15-15-8.285156 0-15 6.71875-15 15v27.15625c-1.667968 2.230469-3.953124 5.273438-6.640624 8.835938-21.316407 28.433593-55.265626 45.40625-90.824219 45.40625-6.058594 0-11.523438 3.648437-13.851563 9.242187s-1.058594 12.039063 3.210938 16.335937c0 0 4.117187 4.136719 9.429687 9.441407 17.21875 17.230469 41.085938 27.117187 65.476563 27.117187h289.195312c24.390625 0 48.253906-9.886718 65.464844-27.105468 5.324219-5.316407 9.4375-9.453126 9.4375-9.453126 4.273438-4.296874 5.542969-10.742187 3.214844-16.335937zm0 0" fill="#fff36e"/><path d="m478.71875 105.640625c-2.332031-5.589844-7.800781-9.242187-13.851562-9.242187-35.558594 0-69.519532-16.976563-90.796876-45.367188-2.660156-3.570312-4.972656-6.652344-6.671874-8.921875v-27.109375c0-8.28125-6.71875-15-15-15-8.277344 0-15 6.71875-15 15v17.128906h-81.398438v126.402344h144.597656c24.390625 0 48.25-9.882812 65.460938-27.101562 5.332031-5.320313 9.441406-9.449219 9.441406-9.449219 4.269531-4.300781 5.539062-10.75 3.21875-16.339844zm0 0" fill="#ffcc01"/><path d="m400.597656 158.535156h-289.195312c-24.390625 0-48.257813-9.882812-65.476563-27.117187-5.3125-5.304688-9.429687-9.441407-9.429687-9.441407-5.839844-5.875-5.8125-15.371093.0625-21.214843 5.875-5.839844 15.375-5.808594 21.214844.0625.007812.011719 4.085937 4.109375 9.359374 9.378906 11.648438 11.652344 27.777344 18.332031 44.269532 18.332031h289.195312c16.488282 0 32.621094-6.679687 44.257813-18.320312 5.285156-5.28125 9.363281-9.378906 9.371093-9.390625 5.839844-5.871094 15.335938-5.898438 21.210938-.0625 5.875 5.84375 5.902344 15.339843.0625 21.214843 0 0-4.113281 4.140626-9.4375 9.453126-17.210938 17.222656-41.074219 27.105468-65.464844 27.105468zm0 0" fill="#ffcc01"/><path d="m475.5 121.980469s-4.113281 4.128906-9.441406 9.449219c-17.210938 17.21875-41.070313 27.101562-65.460938 27.101562h-144.597656v-30h144.597656c16.492188 0 32.621094-6.671875 44.261719-18.320312 5.28125-5.28125 9.359375-9.378907 9.371094-9.390626 5.839843-5.871093 15.339843-5.898437 21.207031-.058593 5.882812 5.839843 5.902344 15.339843.0625 21.21875zm0 0" fill="#e19600"/><path d="m448.796875 303.132812h-385.59375c-25.507813 0-48.464844-14.183593-59.921875-37.015624-1.082031-2.15625-1.746094-3.515626-1.746094-3.515626-3.648437-7.4375-.574218-16.421874 6.863282-20.066406 7.4375-3.648437 16.425781-.578125 20.070312 6.859375.019531.03125.632812 1.285157 1.625 3.265625 6.335938 12.628906 19.023438 20.472656 33.109375 20.472656h385.59375c14.085937 0 26.773437-7.84375 33.105469-20.46875.996094-1.980468 1.609375-3.234374 1.625-3.269531 3.648437-7.4375 12.636718-10.507812 20.070312-6.859375 7.4375 3.644532 10.511719 12.628906 6.867188 20.066406 0 0-.667969 1.359376-1.75 3.519532-11.449219 22.828125-34.410156 37.011718-59.917969 37.011718zm0 0" fill="#ffcc01"/><path d="m510.46875 262.601562s-.671875 1.359376-1.75 3.519532c-11.449219 22.832031-34.410156 37.011718-59.921875 37.011718h-192.796875v-30h192.800781c14.089844 0 26.769531-7.839843 33.097657-20.472656 1-1.980468 1.609374-3.230468 1.632812-3.257812 3.648438-7.441406 12.636719-10.511719 20.066406-6.871094 7.441406 3.648438 10.511719 12.640625 6.871094 20.070312zm0 0" fill="#e19600"/><path d="m139.601562 321.347656c-23.859374 0-43.199218 19.339844-43.199218 43.199219v60.15625h86.398437v-60.15625c0-23.859375-19.339843-43.199219-43.199219-43.199219zm0 0" fill="#00347b"/><path d="m256 321.347656c-23.859375 0-43.199219 19.339844-43.199219 43.199219v60.15625h86.398438v-60.15625c0-23.859375-19.339844-43.199219-43.199219-43.199219zm0 0" fill="#00347b"/><path d="m372.398438 321.347656c-23.859376 0-43.199219 19.339844-43.199219 43.199219v60.15625h86.398437v-60.15625c0-23.859375-19.339844-43.199219-43.199218-43.199219zm0 0" fill="#001737"/><path d="m299.199219 424.703125v-60.15625c0-23.859375-19.339844-43.199219-43.199219-43.199219v103.355469zm0 0" fill="#001737"/><path d="m480.929688 463.800781h-449.859376c-8.285156 0-15-6.714843-15-15v-48.199219c0-8.285156 6.714844-15 15-15h449.859376c8.285156 0 15 6.714844 15 15v48.199219c0 8.285157-6.714844 15-15 15zm0 0" fill="#edf6ff"/><path d="m480.929688 385.601562h-224.929688v78.199219h224.929688c8.289062 0 15-6.71875 15-15v-48.199219c0-8.28125-6.710938-15-15-15zm0 0" fill="#d5e9ff"/><path d="m496.996094 512h-481.992188c-8.285156 0-14.99999975-6.714844-14.99999975-15v-48.199219c0-8.285156 6.71484375-15 14.99999975-15h481.992188c8.285156 0 15 6.714844 15 15v48.199219c0 8.285156-6.714844 15-15 15zm0 0" fill="#d5e9ff"/><path d="m496.996094 433.800781h-240.996094v78.199219h240.996094c8.285156 0 15-6.714844 15-15v-48.199219c0-8.285156-6.714844-15-15-15zm0 0" fill="#c3deff"/></svg>