<svg height="512pt" viewBox="0 0 512 512" width="512pt" xmlns="http://www.w3.org/2000/svg"><path d="m503.601562 194.332031c-.617187-.304687-3.15625-1.53125-6.601562-1.53125h-18.796875c-24.957031 0-49.375-10.113281-66.996094-27.738281-2.8125-2.816406-6.628906-4.398438-10.605469-4.398438h-289.199218c-3.980469 0-7.796875 1.582032-10.609375 4.398438-17.878907 17.886719-41.671875 27.738281-66.992188 27.738281h-18.796875c-3.449218 0-5.980468 1.222657-6.605468 1.53125-5.3125 2.605469-8.398438 7.933594-8.398438 13.480469 0 5.847656 6.863281 18.582031 15.898438 27.621094 12.339843 12.335937 29.179687 19.5 47.304687 19.5h385.59375c18.125 0 34.964844-7.164063 47.300781-19.5 9.039063-9.039063 15.902344-21.773438 15.902344-27.621094 0-5.546875-3.085938-10.875-8.398438-13.480469zm0 0" fill="#0051bd"/><path d="m503.601562 194.332031c-.617187-.304687-3.15625-1.53125-6.601562-1.53125h-18.796875c-24.957031 0-49.375-10.113281-66.996094-27.738281-2.8125-2.816406-6.628906-4.398438-10.605469-4.398438h-144.601562v94.269532h192.796875c18.125 0 34.964844-7.164063 47.304687-19.5 9.035157-9.039063 15.898438-21.773438 15.898438-27.621094 0-5.546875-3.085938-10.875-8.398438-13.480469zm0 0" fill="#00347b"/><path d="m95.335938 447.730469c-8.285157 0-15-6.714844-15-15v-144.597657c0-8.285156 6.714843-15 15-15 8.28125 0 15 6.714844 15 15v144.597657c0 8.285156-6.71875 15-15 15zm0 0" fill="#ff415b"/><path d="m336.335938 447.730469c-8.285157 0-15-6.714844-15-15v-144.597657c0-8.285156 6.714843-15 15-15 8.28125 0 15 6.714844 15 15v144.597657c0 8.285156-6.71875 15-15 15zm0 0" fill="#c7001c"/><path d="m416.667969 447.730469c-8.285157 0-15-6.714844-15-15v-144.597657c0-8.285156 6.714843-15 15-15 8.28125 0 15 6.714844 15 15v144.597657c0 8.285156-6.71875 15-15 15zm0 0" fill="#c7001c"/><path d="m175.667969 447.730469c-8.285157 0-15-6.714844-15-15v-144.597657c0-8.285156 6.714843-15 15-15 8.285156 0 15 6.714844 15 15v144.597657c0 8.285156-6.714844 15-15 15zm0 0" fill="#ff415b"/><path d="m448.800781 303.132812h-385.597656c-8.285156 0-15-6.71875-15-15v-48.199218c0-8.285156 6.714844-15 15-15h385.597656c8.285157 0 15 6.714844 15 15v48.199218c0 8.28125-6.714843 15-15 15zm0 0" fill="#ff8d9d"/><path d="m448.800781 224.933594h-192.800781v78.199218h192.800781c8.285157 0 15-6.71875 15-15v-48.199218c0-8.285156-6.714843-15-15-15zm0 0" fill="#ff415b"/><path d="m207.800781 512h-144.597656c-8.285156 0-15-6.714844-15-15v-64.265625c0-8.285156 6.714844-15 15-15h144.597656c8.285157 0 15 6.714844 15 15v64.265625c0 8.285156-6.714843 15-15 15zm0 0" fill="#fff36e"/><path d="m448.800781 512h-144.601562c-8.28125 0-15-6.714844-15-15v-64.265625c0-8.285156 6.71875-15 15-15h144.601562c8.285157 0 15 6.714844 15 15v64.265625c0 8.285156-6.714843 15-15 15zm0 0" fill="#ffcc01"/><path d="m400.601562 190.664062h-289.199218c-8.285156 0-15-6.714843-15-15v-48.195312c0-8.285156 6.714844-15 15-15h289.199218c8.28125 0 15 6.714844 15 15v48.195312c0 8.285157-6.71875 15-15 15zm0 0" fill="#ffcc01"/><path d="m400.601562 112.46875h-144.601562v78.195312h144.601562c8.28125 0 15-6.714843 15-15v-48.195312c0-8.285156-6.71875-15-15-15zm0 0" fill="#e19600"/><path d="m503.601562 194.332031c-7.4375-3.648437-16.421874-.574219-20.070312 6.863281-2.054688 4.234376-4.078125 8.429688-8.609375 12.960938-6.820313 6.820312-16.117187 10.777344-26.125 10.777344h-385.59375c-10.003906 0-19.304687-3.957032-26.121094-10.777344-4.53125-4.53125-6.554687-8.726562-8.609375-12.960938-3.648437-7.4375-12.632812-10.511718-20.070312-6.863281-5.316406 2.605469-8.402344 7.933594-8.402344 13.480469 0 5.847656 6.863281 18.582031 15.902344 27.621094 12.335937 12.335937 29.175781 19.5 47.300781 19.5h385.59375c18.125 0 34.964844-7.164063 47.304687-19.5 9.035157-9.039063 15.898438-21.773438 15.898438-27.621094 0-5.546875-3.085938-10.875-8.398438-13.480469zm0 0" fill="#00347b"/><path d="m503.601562 194.332031c-7.4375-3.648437-16.421874-.574219-20.070312 6.863281-2.054688 4.234376-4.078125 8.429688-8.609375 12.960938-6.820313 6.820312-16.117187 10.777344-26.125 10.777344h-192.796875v30h192.796875c18.125 0 34.964844-7.164063 47.304687-19.503906 9.035157-9.035157 15.898438-21.769532 15.898438-27.621094 0-5.542969-3.085938-10.871094-8.398438-13.476563zm0 0" fill="#001737"/><path d="m471.46875 81.867188c-.625-.308594-3.15625-1.535157-6.601562-1.535157h-18.796876c-25.324218 0-49.117187-9.851562-66.996093-27.734375-2.8125-2.816406-6.628907-4.398437-10.605469-4.398437h-224.933594c-3.980468 0-7.796875 1.582031-10.609375 4.398437-17.878906 17.886719-41.671875 27.734375-66.992187 27.734375h-18.796875c-3.449219 0-5.980469 1.226563-6.605469 1.535157-5.3125 2.605468-8.398438 7.933593-8.398438 13.476562 0 5.851562 6.863282 18.585938 15.898438 27.621094 12.339844 12.339844 29.179688 19.503906 47.304688 19.503906h321.328124c18.125 0 34.964844-7.164062 47.300782-19.503906 9.039062-9.035156 15.902344-21.769532 15.902344-27.621094 0-5.542969-3.085938-10.871094-8.398438-13.476562zm0 0" fill="#0051bd"/><path d="m471.46875 81.867188c-.625-.308594-3.15625-1.535157-6.601562-1.535157h-18.796876c-25.324218 0-49.117187-9.851562-66.996093-27.734375-2.8125-2.816406-6.628907-4.398437-10.605469-4.398437h-112.46875v94.269531h160.664062c18.125 0 34.964844-7.164062 47.304688-19.503906 9.035156-9.035156 15.898438-21.769532 15.898438-27.621094 0-5.542969-3.085938-10.871094-8.398438-13.476562zm0 0" fill="#00347b"/><path d="m352.398438 142.46875h-192.796876c-5.859374 0-11.179687-3.410156-13.628906-8.734375-2.445312-5.320313-1.570312-11.582031 2.242188-16.027344l96.398437-112.46875c2.847657-3.324219 7.007813-5.238281 11.386719-5.238281s8.539062 1.914062 11.390625 5.238281l96.398437 112.464844c3.8125 4.449219 4.6875 10.710937 2.238282 16.03125-2.449219 5.324219-7.769532 8.734375-13.628906 8.734375zm0 0" fill="#fff36e"/><path d="m267.390625 5.238281c-2.851563-3.324219-7.011719-5.238281-11.390625-5.238281v142.46875h96.398438c5.859374 0 11.179687-3.410156 13.628906-8.734375 2.449218-5.320313 1.574218-11.582031-2.238282-16.027344zm0 0" fill="#ffcc01"/><path d="m471.46875 81.867188c-7.4375-3.648438-16.421875-.578126-20.070312 6.859374-2.054688 4.238282-4.078126 8.433594-8.613282 12.964844-6.816406 6.816406-16.113281 10.773438-26.121094 10.773438h-321.328124c-10.007813 0-19.304688-3.957032-26.121094-10.773438-4.53125-4.53125-6.558594-8.726562-8.609375-12.964844-3.648438-7.4375-12.636719-10.511718-20.074219-6.859374-5.3125 2.605468-8.398438 7.933593-8.398438 13.476562 0 5.851562 6.863282 18.585938 15.898438 27.621094 12.339844 12.339844 29.179688 19.503906 47.304688 19.503906h321.328124c18.125 0 34.964844-7.164062 47.300782-19.503906 9.039062-9.035156 15.902344-21.769532 15.902344-27.621094 0-5.542969-3.085938-10.871094-8.398438-13.476562zm0 0" fill="#00347b"/><path d="m471.46875 81.867188c-7.4375-3.648438-16.421875-.578126-20.070312 6.859374-2.054688 4.238282-4.078126 8.433594-8.613282 12.964844-6.816406 6.816406-16.113281 10.773438-26.121094 10.773438h-160.664062v30h160.664062c18.125 0 34.964844-7.160156 47.304688-19.5 9.035156-9.039063 15.898438-21.769532 15.898438-27.621094 0-5.542969-3.085938-10.871094-8.398438-13.476562zm0 0" fill="#001737"/></svg>