<svg height="512pt" viewBox="0 0 512 512" width="512pt" xmlns="http://www.w3.org/2000/svg"><path d="m416.664062 447.730469h-321.328124c-8.285157 0-15-6.714844-15-15v-160.664063c0-8.285156 6.714843-15 15-15h321.328124c8.285157 0 15 6.714844 15 15v160.664063c0 8.285156-6.714843 15-15 15zm0 0" fill="#ff415b"/><path d="m416.671875 257.070312h-160.671875v190.660157h160.671875c8.277344 0 15-6.710938 15-15v-160.660157c0-8.289062-6.722656-15-15-15zm0 0" fill="#c7001c"/><path d="m400.597656 126.398438h-289.199218c-8.28125 0-15-6.714844-15-15 0-8.28125 6.71875-15 15-15 36.027343 0 65.335937-29.308594 65.335937-65.332032v-16.066406c0-8.28125 6.714844-15 15-15h128.53125c8.285156 0 15 6.71875 15 15v16.066406c0 36.023438 29.308594 65.332032 65.332031 65.332032 8.285156 0 15 6.71875 15 15 0 8.285156-6.714844 15-15 15zm0 0" fill="#0051bd"/><path d="m400.601562 96.398438c-36.03125 0-65.332031-29.308594-65.332031-65.328126v-16.070312c0-8.28125-6.71875-15-15-15h-64.269531v126.398438h144.601562c8.277344 0 15-6.71875 15-15 0-8.277344-6.722656-15-15-15zm0 0" fill="#00347b"/><path d="m352.398438 190.667969h-192.796876c-8.285156 0-15-6.71875-15-15v-64.269531c0-8.28125 6.714844-15 15-15h192.796876c8.285156 0 15 6.71875 15 15v64.269531c0 8.28125-6.714844 15-15 15zm0 0" fill="#ff415b"/><path d="m352.398438 96.398438h-96.398438v94.273437h96.398438c8.28125 0 15-6.722656 15-15v-64.273437c0-8.277344-6.71875-15-15-15zm0 0" fill="#c7001c"/><path d="m464.863281 287.066406h-417.730469c-8.285156 0-15-6.714844-15-15s6.714844-15 15-15c36.023438 0 65.332032-29.308594 65.332032-65.332031v-16.066406c0-8.285157 6.71875-15 15-15h257.066406c8.285156 0 15 6.714843 15 15v16.066406c0 36.023437 29.308594 65.332031 65.332031 65.332031 8.285157 0 15 6.714844 15 15s-6.714843 15-15 15zm0 0" fill="#0051bd"/><path d="m464.871094 257.070312c-36.03125 0-65.339844-29.308593-65.339844-65.339843v-16.058594c0-8.292969-6.710938-15-15-15h-128.53125v126.398437h208.871094c8.277344 0 15-6.71875 15-15 0-8.289062-6.722656-15-15-15zm0 0" fill="#00347b"/><path d="m144.601562 447.730469c-8.285156 0-15-6.714844-15-15v-160.664063c0-8.285156 6.714844-15 15-15 8.28125 0 15 6.714844 15 15v160.664063c0 8.285156-6.714843 15-15 15zm0 0" fill="#c7001c"/><path d="m256 321.347656c-26.03125 0-47.132812 21.101563-47.132812 47.132813v79.25h94.265624v-79.25c0-26.03125-21.101562-47.132813-47.132812-47.132813zm0 0" fill="#00347b"/><path d="m367.402344 447.730469c-8.285156 0-15-6.714844-15-15v-160.664063c0-8.285156 6.714844-15 15-15 8.28125 0 15 6.714844 15 15v160.664063c0 8.285156-6.714844 15-15 15zm0 0" fill="#a50017"/><path d="m303.132812 447.730469v-79.25c0-26.03125-21.101562-47.132813-47.132812-47.132813v126.382813zm0 0" fill="#001737"/><path d="m400.597656 126.398438h-289.199218c-25.988282 0-47.132813-21.140626-47.132813-47.132813 0-8.28125 6.71875-15 15-15 8.285156 0 15 6.71875 15 15 0 9.449219 7.6875 17.132813 17.132813 17.132813h289.199218c9.449219 0 17.132813-7.683594 17.132813-17.132813 0-8.28125 6.71875-15 15-15 8.285156 0 15 6.71875 15 15 0 25.992187-21.140625 47.132813-47.132813 47.132813zm0 0" fill="#00347b"/><path d="m447.730469 79.269531c0 25.992188-21.140625 47.128907-47.128907 47.128907h-144.601562v-30h144.601562c9.449219 0 17.128907-7.6875 17.128907-17.128907 0-8.289062 6.71875-15 15-15 8.289062 0 15 6.710938 15 15zm0 0" fill="#001737"/><path d="m464.863281 287.066406h-417.730469c-25.988281 0-47.132812-21.144531-47.132812-47.132812 0-8.285156 6.714844-15 15-15s15 6.714844 15 15c0 9.449218 7.6875 17.132812 17.132812 17.132812h417.730469c9.449219 0 17.136719-7.683594 17.136719-17.132812 0-8.285156 6.714844-15 15-15 8.28125 0 15 6.714844 15 15 0 25.988281-21.144531 47.132812-47.136719 47.132812zm0 0" fill="#00347b"/><path d="m512 239.929688c0 25.992187-21.148438 47.140624-47.140625 47.140624h-208.859375v-30h208.859375c9.449219 0 17.140625-7.691406 17.140625-17.140624 0-8.28125 6.710938-15 15-15 8.28125 0 15 6.71875 15 15zm0 0" fill="#001737"/><path d="m497 512h-482c-8.285156 0-15-6.71875-15-15 0-43.714844 35.558594-79.269531 79.265625-79.269531h353.464844c43.710937 0 79.269531 35.558593 79.269531 79.269531 0 8.28125-6.71875 15-15 15zm0 0" fill="#fff36e"/><path d="m432.730469 417.730469h-176.730469v94.269531h241c8.28125 0 15-6.71875 15-15 0-43.710938-35.558594-79.269531-79.269531-79.269531zm0 0" fill="#ffcc01"/></svg>