<svg height="512pt" viewBox="0 0 512 512.001" width="512pt" xmlns="http://www.w3.org/2000/svg"><path d="m400.601562 415.597656h-289.199218c-8.285156 0-15-6.714844-15-15v-176.730468c0-8.285157 6.714844-15 15-15h289.199218c8.285157 0 15 6.714843 15 15v176.730468c0 8.285156-6.714843 15-15 15zm0 0" fill="#fff36e"/><path d="m400.601562 208.867188h-144.601562v206.730468h144.601562c8.285157 0 15-6.714844 15-15v-176.730468c0-8.285157-6.714843-15-15-15zm0 0" fill="#ffcc01"/><path d="m400.601562 208.867188h-289.199218c-8.285156 0-15 6.714843-15 15v48.199218h319.199218v-48.199218c0-8.285157-6.714843-15-15-15zm0 0" fill="#ffcc01"/><path d="m256 64.265625c-17.71875 0-32.132812-14.414063-32.132812-32.132813s14.414062-32.132812 32.132812-32.132812 32.132812 14.414062 32.132812 32.132812-14.414062 32.132813-32.132812 32.132813zm0 0" fill="#c7001c"/><path d="m288.132812 32.132812c0-17.71875-14.414062-32.132812-32.132812-32.132812v64.265625c17.71875 0 32.132812-14.414063 32.132812-32.132813zm0 0" fill="#a50017"/><path d="m400.601562 208.867188h-144.601562v63.199218h159.601562v-48.199218c0-8.285157-6.714843-15-15-15zm0 0" fill="#e19600"/><path d="m497 238.867188h-482c-7.441406 0-13.757812-5.460938-14.839844-12.824219-1.082031-7.363281 3.402344-14.40625 10.53125-16.542969l40.488282-12.144531c75.808593-22.738281 142.648437-66.890625 193.296874-127.6875 2.847657-3.421875 7.070313-5.398438 11.523438-5.398438s8.675781 1.976563 11.523438 5.398438c50.648437 60.796875 117.488281 104.949219 193.296874 127.6875l40.488282 12.144531c7.128906 2.136719 11.609375 9.179688 10.53125 16.542969s-7.394532 12.824219-14.839844 12.824219zm0 0" fill="#ff415b"/><path d="m497 238.867188c7.441406 0 13.761719-5.460938 14.839844-12.824219 1.082031-7.363281-3.402344-14.40625-10.53125-16.542969l-40.488282-12.144531c-75.804687-22.738281-142.644531-66.890625-193.292968-127.6875-2.851563-3.421875-7.074219-5.398438-11.527344-5.398438v174.597657zm0 0" fill="#c7001c"/><path d="m303.132812 415.597656h-94.265624v-95.332031c0-8.285156 6.714843-15 15-15h64.265624c8.285157 0 15 6.714844 15 15zm0 0" fill="#ffcc01"/><path d="m288.132812 305.265625h-32.132812v110.332031h47.132812v-95.332031c0-8.285156-6.714843-15-15-15zm0 0" fill="#e19600"/><path d="m509.480469 488.679688-64.265625-96.402344c-2.78125-4.171875-7.464844-6.679688-12.480469-6.679688h-353.464844c-5.015625 0-9.699219 2.507813-12.480469 6.679688l-64.265624 96.402344c-3.554688 5.328124-3.375 12.421874.707031 17.621093 2.90625 3.703125 7.484375 5.699219 12.191406 5.699219h481.160156c4.703125 0 9.28125-1.996094 12.1875-5.699219 4.085938-5.199219 4.265625-12.292969.710938-17.621093zm0 0" fill="#00cab1"/><path d="m445.214844 392.277344c-2.78125-4.171875-7.464844-6.679688-12.480469-6.679688h-176.734375v126.398438h240.582031c4.703125 0 9.28125-1.996094 12.1875-5.695313 4.085938-5.199219 4.265625-12.292969.710938-17.625zm0 0" fill="#009784"/><path d="m256 385.597656h77.132812v126.402344h-77.132812zm0 0" fill="#00cab1"/><path d="m178.867188 385.597656h77.132812v126.402344h-77.132812zm0 0" fill="#00eccf"/><path d="m208.867188 385.597656h94.265624v126.402344h-94.265624zm0 0" fill="#fffac5"/><path d="m256 385.597656h47.132812v126.402344h-47.132812zm0 0" fill="#fff36e"/><path d="m208.867188 427.734375h94.265624v84.265625h-94.265624zm0 0" fill="#ffcc01"/><path d="m256 427.734375h47.132812v84.265625h-47.132812zm0 0" fill="#e19600"/><path d="m208.867188 427.734375h94.265624v42.132813h-94.265624zm0 0" fill="#fff36e"/><path d="m256 427.734375h47.132812v42.132813h-47.132812zm0 0" fill="#ffcc01"/></svg>